<svg width="706" height="690" version="1.1" baseProfile="full" xmlns="http://www.w3.org/2000/svg" xmlns:xlink="http://www.w3.org/1999/xlink" xmlns:ev="http://www.w3.org/2001/xml-events" style="font-weight:bold; font-size:11pt; font-family:'Calibri', Helvetica, sans-serif;;stroke-width:3;stroke-linejoin:round;stroke-linecap:round"><path d="M85.8 55.5 L44 88 L44 120.5 L44 120.5 " style="stroke:#33322E;fill:none;"></path>
<path d="M37.5 104.3 L44 104.3 L50.5 104.3 L44 120.5 Z" style="stroke:#33322E;fill:#eee8d5;"></path>
<path d="M160.3 46.1 L379.5 88 L379.5 120.5 L379.5 120.5 " style="stroke:#33322E;fill:none;"></path>
<path d="M373 104.3 L379.5 112.4 L386 104.3 L379.5 120.5 Z" style="stroke:#33322E;fill:#33322E;"></path>
<path d="M44 158.5 L44 191 L44 397 L44 397 L66.2 429.5 L66.2 429.5 " style="stroke:#33322E;fill:none;"></path>
<path d="M51.7 419.8 L57.1 416.1 L62.4 412.4 L66.2 429.5 Z" style="stroke:#33322E;fill:#eee8d5;"></path>
<path d="M379.5 158.5 L379.5 191 L367.5 223.5 L367.5 223.5 " style="stroke:#33322E;fill:none;"></path>
<path d="M367 206 L370.3 215.9 L379.2 210.5 L367.5 223.5 Z" style="stroke:#33322E;fill:#33322E;"></path>
<path d="M305.5 261.3 L209.5 294 L209.5 326.5 L209.5 326.5 " style="stroke:#33322E;fill:none;"></path>
<path d="M203 310.3 L209.5 310.3 L216 310.3 L209.5 326.5 Z" style="stroke:#33322E;fill:#eee8d5;"></path>
<path d="M371 261.5 L389 294 L389 326.5 L389 326.5 " style="stroke:#33322E;fill:none;"></path>
<path d="M382.5 310.3 L389 318.4 L395.5 310.3 L389 326.5 Z" style="stroke:#33322E;fill:#33322E;"></path>
<path d="M209.5 364.5 L209.5 397 L119.8 432.5 L119.8 432.5 " style="stroke:#33322E;fill:none;"></path>
<path d="M132.5 420.5 L134.9 426.5 L137.3 432.6 L119.8 432.5 Z" style="stroke:#33322E;fill:#eee8d5;"></path>
<path d="M389 364.5 L389 397 L389 429.5 L389 429.5 " style="stroke:#33322E;fill:none;"></path>
<path d="M382.5 413.3 L389 421.4 L395.5 413.3 L389 429.5 Z" style="stroke:#33322E;fill:#33322E;"></path>
<path d="M209.5 158.5 L209.5 191 L305.5 223.7 L305.5 223.7 " style="stroke:#33322E;fill:none;"></path>
<path d="M288 224.6 L290.1 218.5 L292.2 212.3 L305.5 223.7 Z" style="stroke:#33322E;fill:#eee8d5;"></path>
<path d="M544.5 158.5 L544.5 191 L415.5 227.1 L415.5 227.1 " style="stroke:#33322E;fill:none;"></path>
<path d="M429.4 216.5 L431.1 222.7 L432.9 229 L415.5 227.1 Z" style="stroke:#33322E;fill:#eee8d5;"></path>
<path d="M284.2 467.5 L105 500 L105 532.5 L105 532.5 " style="stroke:#33322E;fill:none;"></path>
<path d="M98.5 516.3 L105 524.4 L111.5 516.3 L105 532.5 Z" style="stroke:#33322E;fill:#33322E;"></path>
<path d="M371.5 467.5 L341.5 500 L341.5 532.5 L341.5 532.5 " style="stroke:#33322E;fill:none;"></path>
<path d="M335 516.3 L341.5 524.4 L348 516.3 L341.5 532.5 Z" style="stroke:#33322E;fill:#33322E;"></path>
<path d="M467.4 467.5 L601.5 500 L601.5 532.5 L601.5 532.5 " style="stroke:#33322E;fill:none;"></path>
<path d="M595 516.3 L601.5 524.4 L608 516.3 L601.5 532.5 Z" style="stroke:#33322E;fill:#33322E;"></path>
<path d="M105 570.5 L105 603 L324.5 642.8 L324.5 642.8 " style="stroke:#33322E;fill:none;"></path>
<path d="M307.4 646.3 L316.5 641.4 L309.7 633.5 L324.5 642.8 Z" style="stroke:#33322E;fill:#33322E;"></path>
<path d="M341.5 570.5 L341.5 603 L371.5 635.5 L371.5 635.5 " style="stroke:#33322E;fill:none;"></path>
<path d="M355.7 628 L366 629.5 L365.2 619.1 L371.5 635.5 Z" style="stroke:#33322E;fill:#33322E;"></path>
<path d="M601.5 570.5 L601.5 603 L453.5 638.9 L453.5 638.9 " style="stroke:#33322E;fill:none;"></path>
<path d="M467.8 628.7 L461.4 637 L470.8 641.4 L453.5 638.9 Z" style="stroke:#33322E;fill:#33322E;"></path>
<path d="M110.3 5.5 L172.5 36.5 L110.3 67.5 L48.5 36.5 Z" style="stroke:#33322E;fill:#eee8d5;"></path>
<text x="72.5" y="41.9" style="">Vel >= 0</text>
<ellipse cx="44" cy="139.5" rx="26.5" ry="19" style="stroke:#33322E;fill:#ffc5c5;"></ellipse>
<text x="29.5" y="144.9" style="">No*</text>
<ellipse cx="379.5" cy="139.5" rx="31" ry="19" style="stroke:#33322E;fill:#ceffcf;"></ellipse>
<text x="360.5" y="144.9" style="">Yes*</text>
<rect x="38.5" y="429.5" height="38" width="81" style="stroke:#33322E;fill:#f2f8f9;"></rect>
<text x="50.5" y="453.9" style="">Ignore</text>
<path d="M360.5 211.5 L427.5 242.5 L360.5 273.5 L293.5 242.5 Z" style="stroke:#33322E;fill:#eee8d5;"></path>
<text x="317.8" y="247.9" style="">Accel > 4</text>
<ellipse cx="209.5" cy="345.5" rx="31" ry="19" style="stroke:#33322E;fill:#ffc5c5;"></ellipse>
<text x="190.5" y="350.9" style="">*No*</text>
<ellipse cx="389" cy="345.5" rx="36" ry="19" style="stroke:#33322E;fill:#ceffcf;"></ellipse>
<text x="365.5" y="350.9" style="">*Yes*</text>
<rect x="267.5" y="429.5" height="38" width="243" style="stroke:#33322E;fill:#ff906b;"></rect>
<text x="279.5" y="453.9" style="">Start Accident Protocol</text>
<rect x="135.5" y="120.5" height="38" width="148" style="stroke:#33322E;fill:#eee8d5;"></rect>
<text x="147.8" y="144.9" style="">SuddenStop(1)</text>
<rect x="475.5" y="120.5" height="38" width="138" style="stroke:#33322E;fill:#eee8d5;"></rect>
<text x="487.5" y="144.9" style="">PhoneDrop(3)</text>
<rect x="40.5" y="532.5" height="38" width="129" style="stroke:#33322E;fill:#eee8d5;"></rect>
<text x="52.8" y="556.9" style="">SnapshotOBD</text>
<rect x="234.5" y="532.5" height="38" width="214" style="stroke:#33322E;fill:#eee8d5;"></rect>
<text x="246.5" y="556.9" style="">SnapshotOtherSensors</text>
<rect x="513.5" y="532.5" height="38" width="176" style="stroke:#33322E;fill:#eee8d5;"></rect>
<text x="525.5" y="556.9" style="">SnapshotBlackBox</text>
<rect x="324.5" y="635.5" height="38" width="129" style="stroke:#33322E;fill:#eee8d5;"></rect>
<text x="336.8" y="659.9" style="">Send to 119</text></svg>
