<svg width="1323" height="690" version="1.1" baseProfile="full" xmlns="http://www.w3.org/2000/svg" xmlns:xlink="http://www.w3.org/1999/xlink" xmlns:ev="http://www.w3.org/2001/xml-events" style="font-weight:bold; font-size:11pt; font-family:'Calibri', Helvetica, sans-serif;;stroke-width:3;stroke-linejoin:round;stroke-linecap:round"><path d="M267.8 45.2 L44 88 L44 120.5 L44 120.5 " style="stroke:#33322E;fill:none;"></path>
<path d="M37.5 104.3 L44 104.3 L50.5 104.3 L44 120.5 Z" style="stroke:#33322E;fill:#eee8d5;"></path>
<path d="M358.8 45.2 L582.5 88 L582.5 120.5 L582.5 120.5 " style="stroke:#33322E;fill:none;"></path>
<path d="M576 104.3 L582.5 112.4 L589 104.3 L582.5 120.5 Z" style="stroke:#33322E;fill:#33322E;"></path>
<path d="M44 158.5 L44 191 L44 397 L44 397 L242.5 439.8 L242.5 439.8 " style="stroke:#33322E;fill:none;"></path>
<path d="M225.2 442.7 L226.6 436.4 L228 430 L242.5 439.8 Z" style="stroke:#33322E;fill:#eee8d5;"></path>
<path d="M582.5 158.5 L582.5 191 L472.5 225.3 L472.5 225.3 " style="stroke:#33322E;fill:none;"></path>
<path d="M486.1 214.3 L480.3 222.9 L489.9 226.7 L472.5 225.3 Z" style="stroke:#33322E;fill:#33322E;"></path>
<path d="M362.5 260.7 L261.5 294 L261.5 326.5 L261.5 326.5 " style="stroke:#33322E;fill:none;"></path>
<path d="M255 310.3 L261.5 310.3 L268 310.3 L261.5 326.5 Z" style="stroke:#33322E;fill:#eee8d5;"></path>
<path d="M472.5 251.5 L731.3 294 L731.3 326.5 L731.3 326.5 " style="stroke:#33322E;fill:none;"></path>
<path d="M724.8 310.3 L731.3 318.4 L737.8 310.3 L731.3 326.5 Z" style="stroke:#33322E;fill:#33322E;"></path>
<path d="M261.5 364.5 L261.5 397 L275.1 429.5 L275.1 429.5 " style="stroke:#33322E;fill:none;"></path>
<path d="M262.8 417 L268.8 414.5 L274.8 412 L275.1 429.5 Z" style="stroke:#33322E;fill:#eee8d5;"></path>
<path d="M731.3 364.5 L731.3 397 L901.2 429.5 L901.2 429.5 " style="stroke:#33322E;fill:none;"></path>
<path d="M884 432.8 L893.2 428 L886.4 420.1 L901.2 429.5 Z" style="stroke:#33322E;fill:#33322E;"></path>
<path d="M209.5 158.5 L209.5 191 L362.5 228.9 L362.5 228.9 " style="stroke:#33322E;fill:none;"></path>
<path d="M345.2 231.3 L346.7 225 L348.3 218.7 L362.5 228.9 Z" style="stroke:#33322E;fill:#eee8d5;"></path>
<path d="M417.5 158.5 L417.5 191 L417.5 223.5 L417.5 223.5 " style="stroke:#33322E;fill:none;"></path>
<path d="M411 207.3 L417.5 207.3 L424 207.3 L417.5 223.5 Z" style="stroke:#33322E;fill:#eee8d5;"></path>
<path d="M743 158.5 L743 191 L863 223.7 L863 223.7 " style="stroke:#33322E;fill:none;"></path>
<path d="M845.6 225.7 L855.2 221.6 L849 213.2 L863 223.7 Z" style="stroke:#33322E;fill:#33322E;"></path>
<path d="M932 158.5 L932 191 L932 223.5 L932 223.5 " style="stroke:#33322E;fill:none;"></path>
<path d="M925.5 207.3 L932 207.3 L938.5 207.3 L932 223.5 Z" style="stroke:#33322E;fill:#eee8d5;"></path>
<path d="M1111.5 158.5 L1111.5 191 L998.2 223.5 L998.2 223.5 " style="stroke:#33322E;fill:none;"></path>
<path d="M1012.1 212.8 L1013.8 219 L1015.6 225.3 L998.2 223.5 Z" style="stroke:#33322E;fill:#eee8d5;"></path>
<path d="M863 253 L594.3 294 L594.3 326.5 L594.3 326.5 " style="stroke:#33322E;fill:none;"></path>
<path d="M587.8 310.3 L594.3 310.3 L600.8 310.3 L594.3 326.5 Z" style="stroke:#33322E;fill:#eee8d5;"></path>
<path d="M981.6 261.5 L1066.5 294 L1066.5 326.5 L1066.5 326.5 " style="stroke:#33322E;fill:none;"></path>
<path d="M1060 310.3 L1066.5 318.4 L1073 310.3 L1066.5 326.5 Z" style="stroke:#33322E;fill:#33322E;"></path>
<path d="M594.3 364.5 L594.3 397 L323.5 441.8 L323.5 441.8 " style="stroke:#33322E;fill:none;"></path>
<path d="M338.5 432.7 L339.5 439.1 L340.6 445.6 L323.5 441.8 Z" style="stroke:#33322E;fill:#eee8d5;"></path>
<path d="M1066.5 364.5 L1066.5 397 L1024.8 429.5 L1024.8 429.5 " style="stroke:#33322E;fill:none;"></path>
<path d="M1033.7 414.4 L1031.3 424.5 L1041.7 424.6 L1024.8 429.5 Z" style="stroke:#33322E;fill:#33322E;"></path>
<path d="M937.6 467.5 L830 500 L830 532.5 L830 532.5 " style="stroke:#33322E;fill:none;"></path>
<path d="M823.5 516.3 L830 524.4 L836.5 516.3 L830 532.5 Z" style="stroke:#33322E;fill:#33322E;"></path>
<path d="M1059.9 467.5 L1161.5 500 L1161.5 532.5 L1161.5 532.5 " style="stroke:#33322E;fill:none;"></path>
<path d="M1155 516.3 L1161.5 524.4 L1168 516.3 L1161.5 532.5 Z" style="stroke:#33322E;fill:#33322E;"></path>
<path d="M830 570.5 L830 603 L937.6 635.5 L937.6 635.5 " style="stroke:#33322E;fill:none;"></path>
<path d="M920.2 637 L929.8 633.2 L923.9 624.6 L937.6 635.5 Z" style="stroke:#33322E;fill:#33322E;"></path>
<path d="M1161.5 570.5 L1161.5 603 L1059.9 635.5 L1059.9 635.5 " style="stroke:#33322E;fill:none;"></path>
<path d="M1073.4 624.4 L1067.6 633 L1077.4 636.7 L1059.9 635.5 Z" style="stroke:#33322E;fill:#33322E;"></path>
<path d="M313.3 5.5 L370.5 36.5 L313.3 67.5 L255.5 36.5 Z" style="stroke:#33322E;fill:#eee8d5;"></path>
<text x="279.8" y="41.9" style="">Vel > 0</text>
<ellipse cx="44" cy="139.5" rx="26.5" ry="19" style="stroke:#33322E;fill:#ffc5c5;"></ellipse>
<text x="29.5" y="144.9" style="">No*</text>
<ellipse cx="582.5" cy="139.5" rx="31" ry="19" style="stroke:#33322E;fill:#ceffcf;"></ellipse>
<text x="563.5" y="144.9" style="">Yes*</text>
<rect x="242.5" y="429.5" height="38" width="81" style="stroke:#33322E;fill:#f2f8f9;"></rect>
<text x="254.5" y="453.9" style="">Ignore</text>
<path d="M417.5 211.5 L484.5 242.5 L417.5 273.5 L350.5 242.5 Z" style="stroke:#33322E;fill:#eee8d5;"></path>
<text x="374.8" y="247.9" style="">Accel > 4</text>
<ellipse cx="261.5" cy="345.5" rx="31" ry="19" style="stroke:#33322E;fill:#ffc5c5;"></ellipse>
<text x="242.5" y="350.9" style="">*No*</text>
<ellipse cx="731.3" cy="345.5" rx="36" ry="19" style="stroke:#33322E;fill:#ceffcf;"></ellipse>
<text x="707.5" y="350.9" style="">*Yes*</text>
<rect x="879.5" y="429.5" height="38" width="243" style="stroke:#33322E;fill:#ff906b;"></rect>
<text x="891.5" y="453.9" style="">Start Accident Protocol</text>
<rect x="135.5" y="120.5" height="38" width="148" style="stroke:#33322E;fill:#eee8d5;"></rect>
<text x="147.8" y="144.9" style="">SuddenStop(1)</text>
<rect x="348.5" y="120.5" height="38" width="138" style="stroke:#33322E;fill:#eee8d5;"></rect>
<text x="360.5" y="144.9" style="">PhoneDrop(3)</text>
<rect x="678.5" y="120.5" height="38" width="129" style="stroke:#33322E;fill:#eee8d5;"></rect>
<text x="690.8" y="144.9" style="">Airbag(160)</text>
<path d="M932 211.5 L1013.5 242.5 L932 273.5 L851.5 242.5 Z" style="stroke:#33322E;fill:#eee8d5;"></path>
<text x="875.5" y="247.9" style="">Sound >= 160</text>
<rect x="872.5" y="120.5" height="38" width="119" style="stroke:#33322E;fill:#eee8d5;"></rect>
<text x="884.5" y="144.9" style="">Shout(110)</text>
<rect x="1056.5" y="120.5" height="38" width="110" style="stroke:#33322E;fill:#eee8d5;"></rect>
<text x="1068.8" y="144.9" style="">Speak(60)</text>
<ellipse cx="594.3" cy="345.5" rx="36" ry="19" style="stroke:#33322E;fill:#ffc5c5;"></ellipse>
<text x="570.5" y="350.9" style="">*No**</text>
<ellipse cx="1066.5" cy="345.5" rx="40.5" ry="19" style="stroke:#33322E;fill:#ceffcf;"></ellipse>
<text x="1038.5" y="350.9" style="">*Yes**</text>
<rect x="708.5" y="532.5" height="38" width="243" style="stroke:#33322E;fill:#eee8d5;"></rect>
<text x="720.8" y="556.9" style="">OBD Snapshot (last 15s)</text>
<rect x="1016.5" y="532.5" height="38" width="290" style="stroke:#33322E;fill:#eee8d5;"></rect>
<text x="1028.5" y="556.9" style="">BlackBox Snapshot (last 15s)</text>
<rect x="936.5" y="635.5" height="38" width="129" style="stroke:#33322E;fill:#eee8d5;"></rect>
<text x="948.8" y="659.9" style="">Send to 119</text></svg>
