<svg width="619" height="341" version="1.1" baseProfile="full" xmlns="http://www.w3.org/2000/svg" xmlns:xlink="http://www.w3.org/1999/xlink" xmlns:ev="http://www.w3.org/2001/xml-events" style="font-weight:bold; font-size:12pt; font-family:'Calibri', Helvetica, sans-serif;;stroke-width:3;stroke-linejoin:round;stroke-linecap:round"><path d="M124.3 43.4 L36 64.5 L36 84.5 L36 84.5 " style="stroke:#33322E;fill:none;"></path>
<path d="M30.7 71.2 L36 77.8 L41.3 71.2 L36 84.5 Z" style="stroke:#33322E;fill:#33322E;"></path>
<path d="M245.3 43.4 L333.5 64.5 L333.5 84.5 L333.5 84.5 " style="stroke:#33322E;fill:none;"></path>
<path d="M328.2 71.2 L333.5 77.8 L338.8 71.2 L333.5 84.5 Z" style="stroke:#33322E;fill:#33322E;"></path>
<path d="M36 115.5 L36 135.5 L36 277.5 L36 277.5 L87 298.2 L87 298.2 " style="stroke:#33322E;fill:none;"></path>
<path d="M72.6 298.1 L80.8 295.7 L76.6 288.2 L87 298.2 Z" style="stroke:#33322E;fill:#33322E;"></path>
<path d="M333.5 115.5 L333.5 135.5 L333.5 155.5 L333.5 155.5 " style="stroke:#33322E;fill:none;"></path>
<path d="M328.2 142.2 L333.5 148.8 L338.8 142.2 L333.5 155.5 Z" style="stroke:#33322E;fill:#33322E;"></path>
<path d="M306.8 186.5 L272.3 206.5 L272.3 226.5 L272.3 226.5 " style="stroke:#33322E;fill:none;"></path>
<path d="M266.9 213.2 L272.3 219.8 L277.6 213.2 L272.3 226.5 Z" style="stroke:#33322E;fill:#33322E;"></path>
<path d="M355.1 186.5 L383 206.5 L383 226.5 L383 226.5 " style="stroke:#33322E;fill:none;"></path>
<path d="M377.7 213.2 L383 219.8 L388.3 213.2 L383 226.5 Z" style="stroke:#33322E;fill:#33322E;"></path>
<path d="M272.3 257.5 L272.3 277.5 L160 304.3 L160 304.3 " style="stroke:#33322E;fill:none;"></path>
<path d="M171.7 296 L166.5 302.7 L174.2 306.4 L160 304.3 Z" style="stroke:#33322E;fill:#33322E;"></path>
<path d="M383 257.5 L383 277.5 L383 297.5 L383 297.5 " style="stroke:#33322E;fill:none;"></path>
<path d="M377.7 284.2 L383 290.8 L388.3 284.2 L383 297.5 Z" style="stroke:#33322E;fill:#33322E;"></path>
<path d="M182.5 115.5 L182.5 135.5 L278 158 L278 158 " style="stroke:#33322E;fill:none;"></path>
<path d="M263.8 160.1 L271.5 156.4 L266.2 149.7 L278 158 Z" style="stroke:#33322E;fill:#33322E;"></path>
<path d="M503.5 115.5 L503.5 135.5 L389 159.4 L389 159.4 " style="stroke:#33322E;fill:none;"></path>
<path d="M401 151.5 L395.5 158 L403.1 161.9 L389 159.4 Z" style="stroke:#33322E;fill:#33322E;"></path>
<path d="M184.8 5.5 L253.5 29 L184.8 52.5 L116.5 29 Z" style="stroke:#33322E;fill:#eee8d5;"></path>
<text x="132.8" y="35" style="">Vel > 15mph</text>
<rect x="13.5" y="84.5" height="31" width="45" style="stroke:#33322E;fill:#eee8d5;"></rect>
<text x="21.8" y="106" style="">No*</text>
<rect x="306.5" y="84.5" height="31" width="54" style="stroke:#33322E;fill:#eee8d5;"></rect>
<text x="314.5" y="106" style="">Yes*</text>
<rect x="87.5" y="297.5" height="31" width="73" style="stroke:#33322E;fill:#eee8d5;"></rect>
<text x="95.5" y="319" style="">Ignore</text>
<path d="M333.5 147.5 L397.5 171 L333.5 194.5 L270.5 171 Z" style="stroke:#33322E;fill:#eee8d5;"></path>
<text x="286.5" y="177" style="">Accel > 4G</text>
<rect x="245.5" y="226.5" height="31" width="54" style="stroke:#33322E;fill:#eee8d5;"></rect>
<text x="253.5" y="248" style="">No**</text>
<rect x="351.5" y="226.5" height="31" width="64" style="stroke:#33322E;fill:#eee8d5;"></rect>
<text x="359.8" y="248" style="">Yes**</text>
<rect x="337.5" y="297.5" height="31" width="92" style="stroke:#33322E;fill:#eee8d5;"></rect>
<text x="345.5" y="319" style="">Accident</text>
<rect x="98.5" y="84.5" height="31" width="168" style="stroke:#33322E;fill:#eee8d5;"></rect>
<text x="106.5" y="106" style="">Sudden Stop (1G)</text>
<rect x="400.5" y="84.5" height="31" width="206" style="stroke:#33322E;fill:#eee8d5;"></rect>
<text x="408.5" y="106" style="">Smartphone Drop (3G)</text></svg>
