<svg width="1033" height="389" version="1.1" baseProfile="full" xmlns="http://www.w3.org/2000/svg" xmlns:xlink="http://www.w3.org/1999/xlink" xmlns:ev="http://www.w3.org/2001/xml-events" style="font-weight:bold; font-size:12pt; font-family:'Calibri', Helvetica, sans-serif;;stroke-width:3;stroke-linejoin:round;stroke-linecap:round"><path d="M230.3 44.8 L44 76.5 L44 96.5 L44 96.5 " style="stroke:#33322E;fill:none;"></path>
<path d="M38.7 83.2 L44 83.2 L49.3 83.2 L44 96.5 Z" style="stroke:#33322E;fill:#eee8d5;"></path>
<path d="M321.3 44.8 L507.5 76.5 L507.5 96.5 L507.5 96.5 " style="stroke:#33322E;fill:none;"></path>
<path d="M502.2 83.2 L507.5 89.8 L512.8 83.2 L507.5 96.5 Z" style="stroke:#33322E;fill:#33322E;"></path>
<path d="M44 135.5 L44 155.5 L44 313.5 L44 313.5 L217.5 345.5 L217.5 345.5 " style="stroke:#33322E;fill:none;"></path>
<path d="M203.4 348.3 L204.4 343.1 L205.4 337.9 L217.5 345.5 Z" style="stroke:#33322E;fill:#eee8d5;"></path>
<path d="M507.5 135.5 L507.5 155.5 L422.5 179.5 L422.5 179.5 " style="stroke:#33322E;fill:none;"></path>
<path d="M433.9 170.7 L428.9 177.7 L436.8 181 L422.5 179.5 Z" style="stroke:#33322E;fill:#33322E;"></path>
<path d="M312.5 211.6 L236.5 234.5 L236.5 254.5 L236.5 254.5 " style="stroke:#33322E;fill:none;"></path>
<path d="M231.2 241.2 L236.5 241.2 L241.8 241.2 L236.5 254.5 Z" style="stroke:#33322E;fill:#eee8d5;"></path>
<path d="M422.5 203.2 L631.3 234.5 L631.3 254.5 L631.3 254.5 " style="stroke:#33322E;fill:none;"></path>
<path d="M625.9 241.2 L631.3 247.8 L636.6 241.2 L631.3 254.5 Z" style="stroke:#33322E;fill:#33322E;"></path>
<path d="M236.5 293.5 L236.5 313.5 L247.4 333.5 L247.4 333.5 " style="stroke:#33322E;fill:none;"></path>
<path d="M236.3 324.3 L241 321.8 L245.7 319.2 L247.4 333.5 Z" style="stroke:#33322E;fill:#eee8d5;"></path>
<path d="M631.3 293.5 L631.3 313.5 L813 344.5 L813 344.5 " style="stroke:#33322E;fill:none;"></path>
<path d="M799 347.5 L806.4 343.4 L800.8 337 L813 344.5 Z" style="stroke:#33322E;fill:#33322E;"></path>
<path d="M184.5 135.5 L184.5 155.5 L312.5 183.1 L312.5 183.1 " style="stroke:#33322E;fill:none;"></path>
<path d="M298.3 185.5 L299.5 180.3 L300.6 175.1 L312.5 183.1 Z" style="stroke:#33322E;fill:#eee8d5;"></path>
<path d="M367.5 135.5 L367.5 155.5 L367.5 175.5 L367.5 175.5 " style="stroke:#33322E;fill:none;"></path>
<path d="M362.2 162.2 L367.5 162.2 L372.8 162.2 L367.5 175.5 Z" style="stroke:#33322E;fill:#eee8d5;"></path>
<path d="M643 135.5 L643 155.5 L738 178.4 L738 178.4 " style="stroke:#33322E;fill:none;"></path>
<path d="M723.8 180.4 L731.5 176.8 L726.3 170.1 L738 178.4 Z" style="stroke:#33322E;fill:#33322E;"></path>
<path d="M807 135.5 L807 155.5 L807 175.5 L807 175.5 " style="stroke:#33322E;fill:none;"></path>
<path d="M801.7 162.2 L807 162.2 L812.3 162.2 L807 175.5 Z" style="stroke:#33322E;fill:#eee8d5;"></path>
<path d="M961.5 135.5 L961.5 155.5 L876 177.4 L876 177.4 " style="stroke:#33322E;fill:none;"></path>
<path d="M887.6 168.9 L888.9 174.1 L890.2 179.2 L876 177.4 Z" style="stroke:#33322E;fill:#eee8d5;"></path>
<path d="M738 204.5 L519.3 234.5 L519.3 254.5 L519.3 254.5 " style="stroke:#33322E;fill:none;"></path>
<path d="M513.9 241.2 L519.3 241.2 L524.6 241.2 L519.3 254.5 Z" style="stroke:#33322E;fill:#eee8d5;"></path>
<path d="M861.1 214.5 L916.5 234.5 L916.5 254.5 L916.5 254.5 " style="stroke:#33322E;fill:none;"></path>
<path d="M911.2 241.2 L916.5 247.8 L921.8 241.2 L916.5 254.5 Z" style="stroke:#33322E;fill:#33322E;"></path>
<path d="M519.3 293.5 L519.3 313.5 L298.5 346.9 L298.5 346.9 " style="stroke:#33322E;fill:none;"></path>
<path d="M310.9 339.6 L311.7 344.9 L312.5 350.2 L298.5 346.9 Z" style="stroke:#33322E;fill:#eee8d5;"></path>
<path d="M916.5 293.5 L916.5 313.5 L889.4 333.5 L889.4 333.5 " style="stroke:#33322E;fill:none;"></path>
<path d="M897 321.3 L894.8 329.5 L903.3 329.9 L889.4 333.5 Z" style="stroke:#33322E;fill:#33322E;"></path>
<path d="M275.8 5.5 L333.5 37 L275.8 68.5 L218.5 37 Z" style="stroke:#33322E;fill:#eee8d5;"></path>
<text x="242.8" y="43" style="">Vel > 0</text>
<ellipse cx="44" cy="116" rx="26.5" ry="19.5" style="stroke:#33322E;fill:#ffc5c5;"></ellipse>
<text x="29.5" y="122" style="">No*</text>
<ellipse cx="507.5" cy="116" rx="31" ry="19.5" style="stroke:#33322E;fill:#ceffcf;"></ellipse>
<text x="488.5" y="122" style="">Yes*</text>
<rect x="217.5" y="333.5" height="39" width="81" style="stroke:#33322E;fill:#f2f8f9;"></rect>
<text x="229.5" y="359" style="">Ignore</text>
<path d="M367.5 163.5 L434.5 195 L367.5 226.5 L300.5 195 Z" style="stroke:#33322E;fill:#eee8d5;"></path>
<text x="324.8" y="201" style="">Accel > 4</text>
<ellipse cx="236.5" cy="274" rx="31" ry="19.5" style="stroke:#33322E;fill:#ffc5c5;"></ellipse>
<text x="217.5" y="280" style="">*No*</text>
<ellipse cx="631.3" cy="274" rx="36" ry="19.5" style="stroke:#33322E;fill:#ceffcf;"></ellipse>
<text x="607.5" y="280" style="">*Yes*</text>
<rect x="813.5" y="333.5" height="39" width="100" style="stroke:#33322E;fill:#ff906b;"></rect>
<text x="825.5" y="359" style="">Accident</text>
<rect x="110.5" y="96.5" height="39" width="148" style="stroke:#33322E;fill:#eee8d5;"></rect>
<text x="122.8" y="122" style="">SuddenStop(1)</text>
<rect x="298.5" y="96.5" height="39" width="138" style="stroke:#33322E;fill:#eee8d5;"></rect>
<text x="310.5" y="122" style="">PhoneDrop(3)</text>
<rect x="578.5" y="96.5" height="39" width="129" style="stroke:#33322E;fill:#eee8d5;"></rect>
<text x="590.8" y="122" style="">Airbag(160)</text>
<path d="M807 163.5 L888.5 195 L807 226.5 L726.5 195 Z" style="stroke:#33322E;fill:#eee8d5;"></path>
<text x="750.5" y="201" style="">Sound >= 160</text>
<rect x="747.5" y="96.5" height="39" width="119" style="stroke:#33322E;fill:#eee8d5;"></rect>
<text x="759.5" y="122" style="">Shout(110)</text>
<rect x="906.5" y="96.5" height="39" width="110" style="stroke:#33322E;fill:#eee8d5;"></rect>
<text x="918.8" y="122" style="">Speak(60)</text>
<ellipse cx="519.3" cy="274" rx="36" ry="19.5" style="stroke:#33322E;fill:#ffc5c5;"></ellipse>
<text x="495.5" y="280" style="">*No**</text>
<ellipse cx="916.5" cy="274" rx="40.5" ry="19.5" style="stroke:#33322E;fill:#ceffcf;"></ellipse>
<text x="888.5" y="280" style="">*Yes**</text></svg>
