<svg width="920.75" height="804" version="1.1" baseProfile="full" xmlns="http://www.w3.org/2000/svg" xmlns:xlink="http://www.w3.org/1999/xlink" xmlns:ev="http://www.w3.org/2001/xml-events" style="font-weight:bold; font-size:11pt; font-family:'Calibri', Helvetica, sans-serif;;stroke-width:3;stroke-linejoin:round;stroke-linecap:round"><path d="M179.5 169.5 L104 202 L104 234.5 L104 234.5 " style="stroke:#33322E;fill:none;"></path>
<path d="M97.5 218.3 L104 226.4 L110.5 218.3 L104 234.5 Z" style="stroke:#33322E;fill:#33322E;"></path>
<path d="M390.8 169.5 L405.8 202 L405.8 234.5 L405.8 234.5 " style="stroke:#33322E;fill:none;"></path>
<path d="M399.3 218.3 L405.8 226.4 L412.3 218.3 L405.8 234.5 Z" style="stroke:#33322E;fill:#33322E;"></path>
<path d="M612.5 169.5 L722.3 202 L722.3 234.5 L722.3 234.5 " style="stroke:#33322E;fill:none;"></path>
<path d="M715.8 218.3 L722.3 226.4 L728.8 218.3 L722.3 234.5 Z" style="stroke:#33322E;fill:#33322E;"></path>
<path d="M104 272.5 L104 305 L104 337.5 L104 337.5 " style="stroke:#33322E;fill:none;"></path>
<path d="M97.5 321.3 L104 329.4 L110.5 321.3 L104 337.5 Z" style="stroke:#33322E;fill:#33322E;"></path>
<path d="M104 375.5 L104 408 L104 440.5 L104 440.5 " style="stroke:#33322E;fill:none;"></path>
<path d="M97.5 424.3 L104 424.3 L110.5 424.3 L104 440.5 Z" style="stroke:#33322E;fill:#eee8d5;"></path>
<path d="M150.9 375.5 L231.3 408 L231.3 440.5 L231.3 440.5 " style="stroke:#33322E;fill:none;"></path>
<path d="M224.8 424.3 L231.3 432.4 L237.8 424.3 L231.3 440.5 Z" style="stroke:#33322E;fill:#33322E;"></path>
<path d="M405.8 272.5 L405.8 305 L405.8 337.5 L405.8 337.5 " style="stroke:#33322E;fill:none;"></path>
<path d="M399.3 321.3 L405.8 329.4 L412.3 321.3 L405.8 337.5 Z" style="stroke:#33322E;fill:#33322E;"></path>
<path d="M388.2 375.5 L358.3 408 L358.3 440.5 L358.3 440.5 " style="stroke:#33322E;fill:none;"></path>
<path d="M351.8 424.3 L358.3 424.3 L364.8 424.3 L358.3 440.5 Z" style="stroke:#33322E;fill:#eee8d5;"></path>
<path d="M472 375.5 L585.3 408 L585.3 440.5 L585.3 440.5 " style="stroke:#33322E;fill:none;"></path>
<path d="M578.8 424.3 L585.3 432.4 L591.8 424.3 L585.3 440.5 Z" style="stroke:#33322E;fill:#33322E;"></path>
<path d="M722.3 272.5 L722.3 305 L722.3 337.5 L722.3 337.5 " style="stroke:#33322E;fill:none;"></path>
<path d="M715.8 321.3 L722.3 329.4 L728.8 321.3 L722.3 337.5 Z" style="stroke:#33322E;fill:#33322E;"></path>
<path d="M722.3 375.5 L722.3 408 L722.3 440.5 L722.3 440.5 " style="stroke:#33322E;fill:none;"></path>
<path d="M715.8 424.3 L722.3 424.3 L728.8 424.3 L722.3 440.5 Z" style="stroke:#33322E;fill:#eee8d5;"></path>
<path d="M774.5 375.5 L863.8 408 L863.8 440.5 L863.8 440.5 " style="stroke:#33322E;fill:none;"></path>
<path d="M857.3 424.3 L863.8 432.4 L870.3 424.3 L863.8 440.5 Z" style="stroke:#33322E;fill:#33322E;"></path>
<path d="M104 478.5 L104 511 L317.8 554.3 L317.8 554.3 " style="stroke:#33322E;fill:none;"></path>
<path d="M300.5 557.4 L301.8 551.1 L303.1 544.7 L317.8 554.3 Z" style="stroke:#33322E;fill:#eee8d5;"></path>
<path d="M358.3 478.5 L358.3 511 L358.3 543.5 L358.3 543.5 " style="stroke:#33322E;fill:none;"></path>
<path d="M351.8 527.3 L358.3 527.3 L364.8 527.3 L358.3 543.5 Z" style="stroke:#33322E;fill:#eee8d5;"></path>
<path d="M722.3 478.5 L722.3 511 L398.8 556.8 L398.8 556.8 " style="stroke:#33322E;fill:none;"></path>
<path d="M413.9 548.1 L414.8 554.5 L415.8 560.9 L398.8 556.8 Z" style="stroke:#33322E;fill:#eee8d5;"></path>
<path d="M231.3 478.5 L231.3 511 L463.8 544.8 L463.8 544.8 " style="stroke:#33322E;fill:none;"></path>
<path d="M446.7 548.9 L455.7 543.7 L448.6 536.1 L463.8 544.8 Z" style="stroke:#33322E;fill:#33322E;"></path>
<path d="M585.3 478.5 L585.3 511 L585.3 543.5 L585.3 543.5 " style="stroke:#33322E;fill:none;"></path>
<path d="M578.8 527.3 L585.3 535.4 L591.8 527.3 L585.3 543.5 Z" style="stroke:#33322E;fill:#33322E;"></path>
<path d="M863.8 478.5 L863.8 511 L688 543.5 L688 543.5 " style="stroke:#33322E;fill:none;"></path>
<path d="M702.8 534.2 L696 542 L705.2 546.9 L688 543.5 Z" style="stroke:#33322E;fill:#33322E;"></path>
<path d="M463.8 580.5 L238 614 L238 646.5 L238 646.5 " style="stroke:#33322E;fill:none;"></path>
<path d="M231.5 630.3 L238 638.4 L244.5 630.3 L238 646.5 Z" style="stroke:#33322E;fill:#33322E;"></path>
<path d="M544.4 581.5 L474.5 614 L474.5 646.5 L474.5 646.5 " style="stroke:#33322E;fill:none;"></path>
<path d="M468 630.3 L474.5 638.4 L481 630.3 L474.5 646.5 Z" style="stroke:#33322E;fill:#33322E;"></path>
<path d="M640.3 581.5 L734.5 614 L734.5 646.5 L734.5 646.5 " style="stroke:#33322E;fill:none;"></path>
<path d="M728 630.3 L734.5 638.4 L741 630.3 L734.5 646.5 Z" style="stroke:#33322E;fill:#33322E;"></path>
<path d="M238 684.5 L238 717 L509 758.6 L509 758.6 " style="stroke:#33322E;fill:none;"></path>
<path d="M492 762.6 L501 757.4 L493.9 749.7 L509 758.6 Z" style="stroke:#33322E;fill:#33322E;"></path>
<path d="M474.5 684.5 L474.5 717 L537 749.5 L537 749.5 " style="stroke:#33322E;fill:none;"></path>
<path d="M519.6 747.8 L529.8 745.8 L525.6 736.2 L537 749.5 Z" style="stroke:#33322E;fill:#33322E;"></path>
<path d="M734.5 684.5 L734.5 717 L632.9 749.5 L632.9 749.5 " style="stroke:#33322E;fill:none;"></path>
<path d="M646.4 738.4 L640.6 747 L650.4 750.7 L632.9 749.5 Z" style="stroke:#33322E;fill:#33322E;"></path>
<rect x="54.5" y="17.5" height="152" width="604" style="stroke:#33322E;fill:#eee8d5;"></rect>
<text x="313.8" y="41.9" style="">Gyroscope</text>
<path d="M54.5 55.5 L658.5 55.5" style="stroke:#33322E;fill:none;"></path>
<text x="66.5" y="79.9" style="">1. Device is initialized (powered on)</text>
<path d="M54.5 93.5 L658.5 93.5" style="stroke:#33322E;fill:none;"></path>
<text x="66.5" y="117.9" style="">2. Baseline XYZ orientation is set</text>
<path d="M54.5 131.5 L658.5 131.5" style="stroke:#33322E;fill:none;"></path>
<text x="66.5" y="155.9" style="">3. XYZ orientation sensor are now waiting for any/all changes</text>
<rect x="60.5" y="234.5" height="38" width="88" style="stroke:#33322E;fill:#eee8d5;"></rect>
<text x="72.8" y="258.9" style="">ΔGyroX</text>
<rect x="361.5" y="234.5" height="38" width="88" style="stroke:#33322E;fill:#eee8d5;"></rect>
<text x="373.8" y="258.9" style="">ΔGyroY</text>
<rect x="678.5" y="234.5" height="38" width="88" style="stroke:#33322E;fill:#eee8d5;"></rect>
<text x="690.8" y="258.9" style="">ΔGyroZ</text>
<path d="M104 325.5 L202.5 356.5 L104 387.5 L5.5 356.5 Z" style="stroke:#33322E;fill:#eee8d5;"></path>
<text x="29.5" y="361.9" style="">ΔGyroX >= Limit</text>
<ellipse cx="104" cy="459.5" rx="26.5" ry="19" style="stroke:#33322E;fill:#ffc5c5;"></ellipse>
<text x="89.5" y="464.9" style="">No*</text>
<ellipse cx="231.3" cy="459.5" rx="31" ry="19" style="stroke:#33322E;fill:#ceffcf;"></ellipse>
<text x="212.5" y="464.9" style="">Yes*</text>
<path d="M405.8 325.5 L504.5 356.5 L405.8 387.5 L307.5 356.5 Z" style="stroke:#33322E;fill:#eee8d5;"></path>
<text x="331.5" y="361.9" style="">ΔGyroY >= Limit</text>
<ellipse cx="358.3" cy="459.5" rx="31" ry="19" style="stroke:#33322E;fill:#ffc5c5;"></ellipse>
<text x="339.5" y="464.9" style="">*No*</text>
<ellipse cx="585.3" cy="459.5" rx="36" ry="19" style="stroke:#33322E;fill:#ceffcf;"></ellipse>
<text x="561.5" y="464.9" style="">*Yes*</text>
<path d="M722.3 325.5 L820.5 356.5 L722.3 387.5 L623.5 356.5 Z" style="stroke:#33322E;fill:#eee8d5;"></path>
<text x="647.5" y="361.9" style="">ΔGyroZ >= Limit</text>
<ellipse cx="722.3" cy="459.5" rx="36" ry="19" style="stroke:#33322E;fill:#ffc5c5;"></ellipse>
<text x="698.5" y="464.9" style="">*No**</text>
<ellipse cx="863.8" cy="459.5" rx="40.5" ry="19" style="stroke:#33322E;fill:#ceffcf;"></ellipse>
<text x="835.5" y="464.9" style="">*Yes**</text>
<rect x="317.5" y="543.5" height="38" width="81" style="stroke:#33322E;fill:#f2f8f9;"></rect>
<text x="329.5" y="567.9" style="">Ignore</text>
<rect x="463.5" y="543.5" height="38" width="243" style="stroke:#33322E;fill:#ff906b;"></rect>
<text x="475.5" y="567.9" style="">Start Accident Protocol</text>
<rect x="173.5" y="646.5" height="38" width="129" style="stroke:#33322E;fill:#eee8d5;"></rect>
<text x="185.8" y="670.9" style="">SnapshotOBD</text>
<rect x="367.5" y="646.5" height="38" width="214" style="stroke:#33322E;fill:#eee8d5;"></rect>
<text x="379.5" y="670.9" style="">SnapshotOtherSensors</text>
<rect x="646.5" y="646.5" height="38" width="176" style="stroke:#33322E;fill:#eee8d5;"></rect>
<text x="658.5" y="670.9" style="">SnapshotBlackBox</text>
<rect x="509.5" y="749.5" height="38" width="129" style="stroke:#33322E;fill:#eee8d5;"></rect>
<text x="521.8" y="773.9" style="">Send to 119</text></svg>
