<svg width="1230.25" height="690" version="1.1" baseProfile="full" xmlns="http://www.w3.org/2000/svg" xmlns:xlink="http://www.w3.org/1999/xlink" xmlns:ev="http://www.w3.org/2001/xml-events" style="font-weight:bold; font-size:11pt; font-family:'Calibri', Helvetica, sans-serif;;stroke-width:3;stroke-linejoin:round;stroke-linecap:round"><path d="M137.8 53.3 L44 88 L44 120.5 L44 120.5 " style="stroke:#33322E;fill:none;"></path>
<path d="M37.5 104.3 L44 104.3 L50.5 104.3 L44 120.5 Z" style="stroke:#33322E;fill:#eee8d5;"></path>
<path d="M228.8 42.4 L582.5 88 L582.5 120.5 L582.5 120.5 " style="stroke:#33322E;fill:none;"></path>
<path d="M576 104.3 L582.5 112.4 L589 104.3 L582.5 120.5 Z" style="stroke:#33322E;fill:#33322E;"></path>
<path d="M44 158.5 L44 191 L44 397 L44 397 L126.5 431.5 L126.5 431.5 " style="stroke:#33322E;fill:none;"></path>
<path d="M109 431.3 L111.5 425.3 L114 419.3 L126.5 431.5 Z" style="stroke:#33322E;fill:#eee8d5;"></path>
<path d="M582.5 158.5 L582.5 191 L425 229.2 L425 229.2 " style="stroke:#33322E;fill:none;"></path>
<path d="M439.3 219 L432.9 227.3 L442.3 231.7 L425 229.2 Z" style="stroke:#33322E;fill:#33322E;"></path>
<path d="M315 257.3 L179 294 L179 326.5 L179 326.5 " style="stroke:#33322E;fill:none;"></path>
<path d="M172.5 310.3 L179 310.3 L185.5 310.3 L179 326.5 Z" style="stroke:#33322E;fill:#eee8d5;"></path>
<path d="M425 252.7 L648.8 294 L648.8 326.5 L648.8 326.5 " style="stroke:#33322E;fill:none;"></path>
<path d="M642.3 310.3 L648.8 318.4 L655.3 310.3 L648.8 326.5 Z" style="stroke:#33322E;fill:#33322E;"></path>
<path d="M179 364.5 L179 397 L171.4 429.5 L171.4 429.5 " style="stroke:#33322E;fill:none;"></path>
<path d="M168.8 412.2 L175.1 413.7 L181.4 415.1 L171.4 429.5 Z" style="stroke:#33322E;fill:#eee8d5;"></path>
<path d="M648.8 364.5 L648.8 397 L811.1 429.5 L811.1 429.5 " style="stroke:#33322E;fill:none;"></path>
<path d="M793.9 432.7 L803.1 427.9 L796.4 419.9 L811.1 429.5 Z" style="stroke:#33322E;fill:#33322E;"></path>
<path d="M209.5 158.5 L209.5 191 L315 224.9 L315 224.9 " style="stroke:#33322E;fill:none;"></path>
<path d="M297.5 226.1 L299.5 219.9 L301.5 213.7 L315 224.9 Z" style="stroke:#33322E;fill:#eee8d5;"></path>
<path d="M417.5 158.5 L417.5 191 L387.5 223.5 L387.5 223.5 " style="stroke:#33322E;fill:none;"></path>
<path d="M393.8 207.1 L398.5 211.6 L403.3 216 L387.5 223.5 Z" style="stroke:#33322E;fill:#eee8d5;"></path>
<path d="M743 158.5 L743 191 L836.9 223.5 L836.9 223.5 " style="stroke:#33322E;fill:none;"></path>
<path d="M819.4 224.3 L829.2 220.8 L823.6 212 L836.9 223.5 Z" style="stroke:#33322E;fill:#33322E;"></path>
<path d="M932 158.5 L932 191 L906.6 223.5 L906.6 223.5 " style="stroke:#33322E;fill:none;"></path>
<path d="M911.5 206.7 L916.6 210.7 L921.7 214.7 L906.6 223.5 Z" style="stroke:#33322E;fill:#eee8d5;"></path>
<path d="M1111.5 158.5 L1111.5 191 L960.8 226.3 L960.8 226.3 " style="stroke:#33322E;fill:none;"></path>
<path d="M975.1 216.3 L976.6 222.6 L978.1 229 L960.8 226.3 Z" style="stroke:#33322E;fill:#eee8d5;"></path>
<path d="M822.8 251.9 L511.8 294 L511.8 326.5 L511.8 326.5 " style="stroke:#33322E;fill:none;"></path>
<path d="M505.3 310.3 L511.8 310.3 L518.3 310.3 L511.8 326.5 Z" style="stroke:#33322E;fill:#eee8d5;"></path>
<path d="M923.1 261.5 L976.8 294 L976.8 326.5 L976.8 326.5 " style="stroke:#33322E;fill:none;"></path>
<path d="M970.3 310.3 L976.8 318.4 L983.3 310.3 L976.8 326.5 Z" style="stroke:#33322E;fill:#33322E;"></path>
<path d="M511.8 364.5 L511.8 397 L207.5 442.4 L207.5 442.4 " style="stroke:#33322E;fill:none;"></path>
<path d="M222.6 433.6 L223.6 440 L224.5 446.5 L207.5 442.4 Z" style="stroke:#33322E;fill:#eee8d5;"></path>
<path d="M976.8 364.5 L976.8 397 L932.1 429.5 L932.1 429.5 " style="stroke:#33322E;fill:none;"></path>
<path d="M941.4 414.7 L938.7 424.7 L949.1 425.2 L932.1 429.5 Z" style="stroke:#33322E;fill:#33322E;"></path>
<path d="M803.9 467.5 L629.3 500 L629.3 532.5 L629.3 532.5 " style="stroke:#33322E;fill:none;"></path>
<path d="M622.8 516.3 L629.3 524.4 L635.8 516.3 L629.3 532.5 Z" style="stroke:#33322E;fill:#33322E;"></path>
<path d="M891.2 467.5 L865.8 500 L865.8 532.5 L865.8 532.5 " style="stroke:#33322E;fill:none;"></path>
<path d="M859.3 516.3 L865.8 524.4 L872.3 516.3 L865.8 532.5 Z" style="stroke:#33322E;fill:#33322E;"></path>
<path d="M987.1 467.5 L1125.8 500 L1125.8 532.5 L1125.8 532.5 " style="stroke:#33322E;fill:none;"></path>
<path d="M1119.3 516.3 L1125.8 524.4 L1132.3 516.3 L1125.8 532.5 Z" style="stroke:#33322E;fill:#33322E;"></path>
<path d="M629.3 570.5 L629.3 603 L827.3 641.8 L827.3 641.8 " style="stroke:#33322E;fill:none;"></path>
<path d="M810.1 645.1 L819.3 640.3 L812.6 632.3 L827.3 641.8 Z" style="stroke:#33322E;fill:#33322E;"></path>
<path d="M865.8 570.5 L865.8 603 L882.2 635.5 L882.2 635.5 " style="stroke:#33322E;fill:none;"></path>
<path d="M869 623.9 L878.5 628.2 L880.6 618.1 L882.2 635.5 Z" style="stroke:#33322E;fill:#33322E;"></path>
<path d="M1125.8 570.5 L1125.8 603 L956.3 640.3 L956.3 640.3 " style="stroke:#33322E;fill:none;"></path>
<path d="M970.7 630.5 L964.2 638.6 L973.5 643.2 L956.3 640.3 Z" style="stroke:#33322E;fill:#33322E;"></path>
<path d="M183.3 5.5 L240.5 36.5 L183.3 67.5 L125.5 36.5 Z" style="stroke:#33322E;fill:#eee8d5;"></path>
<text x="149.8" y="41.9" style="">Vel > 0</text>
<ellipse cx="44" cy="139.5" rx="26.5" ry="19" style="stroke:#33322E;fill:#ffc5c5;"></ellipse>
<text x="29.5" y="144.9" style="">No*</text>
<ellipse cx="582.5" cy="139.5" rx="31" ry="19" style="stroke:#33322E;fill:#ceffcf;"></ellipse>
<text x="563.5" y="144.9" style="">Yes*</text>
<rect x="126.5" y="429.5" height="38" width="81" style="stroke:#33322E;fill:#f2f8f9;"></rect>
<text x="138.5" y="453.9" style="">Ignore</text>
<path d="M370 211.5 L437.5 242.5 L370 273.5 L303.5 242.5 Z" style="stroke:#33322E;fill:#eee8d5;"></path>
<text x="327.8" y="247.9" style="">Accel > 4</text>
<ellipse cx="179" cy="345.5" rx="31" ry="19" style="stroke:#33322E;fill:#ffc5c5;"></ellipse>
<text x="160.5" y="350.9" style="">*No*</text>
<ellipse cx="648.8" cy="345.5" rx="36" ry="19" style="stroke:#33322E;fill:#ceffcf;"></ellipse>
<text x="624.5" y="350.9" style="">*Yes*</text>
<rect x="784.5" y="429.5" height="38" width="243" style="stroke:#33322E;fill:#ff906b;"></rect>
<text x="796.5" y="453.9" style="">Start Accident Protocol</text>
<rect x="135.5" y="120.5" height="38" width="148" style="stroke:#33322E;fill:#eee8d5;"></rect>
<text x="147.8" y="144.9" style="">SuddenStop(1)</text>
<rect x="348.5" y="120.5" height="38" width="138" style="stroke:#33322E;fill:#eee8d5;"></rect>
<text x="360.5" y="144.9" style="">PhoneDrop(3)</text>
<rect x="678.5" y="120.5" height="38" width="129" style="stroke:#33322E;fill:#eee8d5;"></rect>
<text x="690.8" y="144.9" style="">Airbag(160)</text>
<path d="M891.8 211.5 L972.5 242.5 L891.8 273.5 L810.5 242.5 Z" style="stroke:#33322E;fill:#eee8d5;"></path>
<text x="834.5" y="247.9" style="">Sound >= 160</text>
<rect x="872.5" y="120.5" height="38" width="119" style="stroke:#33322E;fill:#eee8d5;"></rect>
<text x="884.5" y="144.9" style="">Shout(110)</text>
<rect x="1056.5" y="120.5" height="38" width="110" style="stroke:#33322E;fill:#eee8d5;"></rect>
<text x="1068.8" y="144.9" style="">Speak(60)</text>
<ellipse cx="511.8" cy="345.5" rx="36" ry="19" style="stroke:#33322E;fill:#ffc5c5;"></ellipse>
<text x="487.5" y="350.9" style="">*No**</text>
<ellipse cx="976.8" cy="345.5" rx="40.5" ry="19" style="stroke:#33322E;fill:#ceffcf;"></ellipse>
<text x="948.5" y="350.9" style="">*Yes**</text>
<rect x="564.5" y="532.5" height="38" width="129" style="stroke:#33322E;fill:#eee8d5;"></rect>
<text x="576.8" y="556.9" style="">SnapshotOBD</text>
<rect x="758.5" y="532.5" height="38" width="214" style="stroke:#33322E;fill:#eee8d5;"></rect>
<text x="770.5" y="556.9" style="">SnapshotOtherSensors</text>
<rect x="1037.5" y="532.5" height="38" width="176" style="stroke:#33322E;fill:#eee8d5;"></rect>
<text x="1049.5" y="556.9" style="">SnapshotBlackBox</text>
<rect x="827.5" y="635.5" height="38" width="129" style="stroke:#33322E;fill:#eee8d5;"></rect>
<text x="839.8" y="659.9" style="">Send to 119</text></svg>
