<svg width="286.5" height="341" version="1.1" baseProfile="full" xmlns="http://www.w3.org/2000/svg" xmlns:xlink="http://www.w3.org/1999/xlink" xmlns:ev="http://www.w3.org/2001/xml-events" style="font-weight:bold; font-size:12pt; font-family:'Calibri', Helvetica, sans-serif;;stroke-width:3;stroke-linejoin:round;stroke-linecap:round"><path d="M89.4 44.5 L36 64.5 L36 84.5 L36 84.5 " style="stroke:#33322E;fill:none;"></path>
<path d="M30.7 71.2 L36 77.8 L41.3 71.2 L36 84.5 Z" style="stroke:#33322E;fill:#33322E;"></path>
<path d="M151.6 44.5 L178.5 64.5 L178.5 84.5 L178.5 84.5 " style="stroke:#33322E;fill:none;"></path>
<path d="M173.2 71.2 L178.5 77.8 L183.8 71.2 L178.5 84.5 Z" style="stroke:#33322E;fill:#33322E;"></path>
<path d="M36 115.5 L36 135.5 L36 277.5 L36 277.5 L54.9 297.5 L54.9 297.5 " style="stroke:#33322E;fill:none;"></path>
<path d="M41.8 291.5 L50.3 292.7 L49.6 284.1 L54.9 297.5 Z" style="stroke:#33322E;fill:#33322E;"></path>
<path d="M178.5 115.5 L178.5 135.5 L178.5 155.5 L178.5 155.5 " style="stroke:#33322E;fill:none;"></path>
<path d="M173.2 142.2 L178.5 148.8 L183.8 142.2 L178.5 155.5 Z" style="stroke:#33322E;fill:#33322E;"></path>
<path d="M151.8 186.5 L117.3 206.5 L117.3 226.5 L117.3 226.5 " style="stroke:#33322E;fill:none;"></path>
<path d="M111.9 213.2 L117.3 219.8 L122.6 213.2 L117.3 226.5 Z" style="stroke:#33322E;fill:#33322E;"></path>
<path d="M200.1 186.5 L228 206.5 L228 226.5 L228 226.5 " style="stroke:#33322E;fill:none;"></path>
<path d="M222.7 213.2 L228 219.8 L233.3 213.2 L228 226.5 Z" style="stroke:#33322E;fill:#33322E;"></path>
<path d="M117.3 257.5 L117.3 277.5 L90.3 297.5 L90.3 297.5 " style="stroke:#33322E;fill:none;"></path>
<path d="M97.9 285.3 L95.7 293.5 L104.2 293.8 L90.3 297.5 Z" style="stroke:#33322E;fill:#33322E;"></path>
<path d="M228 257.5 L228 277.5 L228 297.5 L228 297.5 " style="stroke:#33322E;fill:none;"></path>
<path d="M222.7 284.2 L228 290.8 L233.3 284.2 L228 297.5 Z" style="stroke:#33322E;fill:#33322E;"></path>
<path d="M130.8 5.5 L199.5 29 L130.8 52.5 L62.5 29 Z" style="stroke:#33322E;fill:#eee8d5;"></path>
<text x="78.8" y="35" style="">Vel > 15mph</text>
<rect x="13.5" y="84.5" height="31" width="45" style="stroke:#33322E;fill:#eee8d5;"></rect>
<text x="21.8" y="106" style="">No*</text>
<rect x="151.5" y="84.5" height="31" width="54" style="stroke:#33322E;fill:#eee8d5;"></rect>
<text x="159.5" y="106" style="">Yes*</text>
<rect x="33.5" y="297.5" height="31" width="73" style="stroke:#33322E;fill:#eee8d5;"></rect>
<text x="41.5" y="319" style="">Ignore</text>
<path d="M178.5 147.5 L242.5 171 L178.5 194.5 L115.5 171 Z" style="stroke:#33322E;fill:#eee8d5;"></path>
<text x="131.5" y="177" style="">Accel > 4G</text>
<rect x="90.5" y="226.5" height="31" width="54" style="stroke:#33322E;fill:#eee8d5;"></rect>
<text x="98.5" y="248" style="">No**</text>
<rect x="196.5" y="226.5" height="31" width="64" style="stroke:#33322E;fill:#eee8d5;"></rect>
<text x="204.8" y="248" style="">Yes**</text>
<rect x="182.5" y="297.5" height="31" width="92" style="stroke:#33322E;fill:#eee8d5;"></rect>
<text x="190.5" y="319" style="">Accident</text></svg>
