<svg width="969" height="341" version="1.1" baseProfile="full" xmlns="http://www.w3.org/2000/svg" xmlns:xlink="http://www.w3.org/1999/xlink" xmlns:ev="http://www.w3.org/2001/xml-events" style="font-weight:bold; font-size:12pt; font-family:'Calibri', Helvetica, sans-serif;;stroke-width:3;stroke-linejoin:round;stroke-linecap:round"><path d="M209.8 36.4 L36 64.5 L36 84.5 L36 84.5 " style="stroke:#33322E;fill:none;"></path>
<path d="M30.7 71.2 L36 71.2 L41.3 71.2 L36 84.5 Z" style="stroke:#33322E;fill:#eee8d5;"></path>
<path d="M301.8 36.4 L475.5 64.5 L475.5 84.5 L475.5 84.5 " style="stroke:#33322E;fill:none;"></path>
<path d="M470.2 71.2 L475.5 77.8 L480.8 71.2 L475.5 84.5 Z" style="stroke:#33322E;fill:#33322E;"></path>
<path d="M36 115.5 L36 135.5 L36 277.5 L36 277.5 L205.5 306.7 L205.5 306.7 " style="stroke:#33322E;fill:none;"></path>
<path d="M191.5 309.7 L192.4 304.4 L193.3 299.2 L205.5 306.7 Z" style="stroke:#33322E;fill:#eee8d5;"></path>
<path d="M475.5 115.5 L475.5 135.5 L394.5 157.3 L394.5 157.3 " style="stroke:#33322E;fill:none;"></path>
<path d="M406 148.7 L400.9 155.6 L408.8 159 L394.5 157.3 Z" style="stroke:#33322E;fill:#33322E;"></path>
<path d="M292.5 185.7 L220.5 206.5 L220.5 226.5 L220.5 226.5 " style="stroke:#33322E;fill:none;"></path>
<path d="M215.2 213.2 L220.5 213.2 L225.8 213.2 L220.5 226.5 Z" style="stroke:#33322E;fill:#eee8d5;"></path>
<path d="M394.5 178.3 L591.3 206.5 L591.3 226.5 L591.3 226.5 " style="stroke:#33322E;fill:none;"></path>
<path d="M585.9 213.2 L591.3 219.8 L596.6 213.2 L591.3 226.5 Z" style="stroke:#33322E;fill:#33322E;"></path>
<path d="M220.5 257.5 L220.5 277.5 L232.6 297.5 L232.6 297.5 " style="stroke:#33322E;fill:none;"></path>
<path d="M221.1 288.9 L225.7 286.1 L230.3 283.3 L232.6 297.5 Z" style="stroke:#33322E;fill:#eee8d5;"></path>
<path d="M591.3 257.5 L591.3 277.5 L765 305.6 L765 305.6 " style="stroke:#33322E;fill:none;"></path>
<path d="M751 308.7 L758.4 304.5 L752.7 298.2 L765 305.6 Z" style="stroke:#33322E;fill:#33322E;"></path>
<path d="M168.5 115.5 L168.5 135.5 L292.5 160.7 L292.5 160.7 " style="stroke:#33322E;fill:none;"></path>
<path d="M278.4 163.2 L279.4 158 L280.5 152.8 L292.5 160.7 Z" style="stroke:#33322E;fill:#eee8d5;"></path>
<path d="M343.5 115.5 L343.5 135.5 L343.5 155.5 L343.5 155.5 " style="stroke:#33322E;fill:none;"></path>
<path d="M338.2 142.2 L343.5 142.2 L348.8 142.2 L343.5 155.5 Z" style="stroke:#33322E;fill:#eee8d5;"></path>
<path d="M603 115.5 L603 135.5 L694 156.2 L694 156.2 " style="stroke:#33322E;fill:none;"></path>
<path d="M679.8 158.5 L687.5 154.7 L682.2 148 L694 156.2 Z" style="stroke:#33322E;fill:#33322E;"></path>
<path d="M759 115.5 L759 135.5 L759 155.5 L759 155.5 " style="stroke:#33322E;fill:none;"></path>
<path d="M753.7 142.2 L759 142.2 L764.3 142.2 L759 155.5 Z" style="stroke:#33322E;fill:#eee8d5;"></path>
<path d="M905.5 115.5 L905.5 135.5 L823 155.5 L823 155.5 " style="stroke:#33322E;fill:none;"></path>
<path d="M834.7 147.2 L835.9 152.4 L837.2 157.5 L823 155.5 Z" style="stroke:#33322E;fill:#eee8d5;"></path>
<path d="M694 179.5 L487.3 206.5 L487.3 226.5 L487.3 226.5 " style="stroke:#33322E;fill:none;"></path>
<path d="M481.9 213.2 L487.3 213.2 L492.6 213.2 L487.3 226.5 Z" style="stroke:#33322E;fill:#eee8d5;"></path>
<path d="M803.3 186.5 L860.5 206.5 L860.5 226.5 L860.5 226.5 " style="stroke:#33322E;fill:none;"></path>
<path d="M855.2 213.2 L860.5 219.8 L865.8 213.2 L860.5 226.5 Z" style="stroke:#33322E;fill:#33322E;"></path>
<path d="M487.3 257.5 L487.3 277.5 L278.5 307.7 L278.5 307.7 " style="stroke:#33322E;fill:none;"></path>
<path d="M290.9 300.5 L291.7 305.8 L292.5 311.1 L278.5 307.7 Z" style="stroke:#33322E;fill:#eee8d5;"></path>
<path d="M860.5 257.5 L860.5 277.5 L832.6 297.5 L832.6 297.5 " style="stroke:#33322E;fill:none;"></path>
<path d="M840.3 285.4 L838 293.6 L846.6 294.1 L832.6 297.5 Z" style="stroke:#33322E;fill:#33322E;"></path>
<path d="M255.8 5.5 L309.5 29 L255.8 52.5 L201.5 29 Z" style="stroke:#33322E;fill:#eee8d5;"></path>
<text x="217.5" y="35" style="">Vel >= 0</text>
<ellipse cx="36" cy="100" rx="22.5" ry="15.5" style="stroke:#33322E;fill:#ffc5c5;"></ellipse>
<text x="21.5" y="106" style="">No*</text>
<ellipse cx="475.5" cy="100" rx="27" ry="15.5" style="stroke:#33322E;fill:#ceffcf;"></ellipse>
<text x="456.5" y="106" style="">Yes*</text>
<rect x="205.5" y="297.5" height="31" width="73" style="stroke:#33322E;fill:#eee8d5;"></rect>
<text x="213.5" y="319" style="">Ignore</text>
<path d="M343.5 147.5 L402.5 171 L343.5 194.5 L284.5 171 Z" style="stroke:#33322E;fill:#eee8d5;"></path>
<text x="300.8" y="177" style="">Accel > 4</text>
<ellipse cx="220.5" cy="242" rx="27" ry="15.5" style="stroke:#33322E;fill:#ffc5c5;"></ellipse>
<text x="201.5" y="248" style="">*No*</text>
<ellipse cx="591.3" cy="242" rx="32" ry="15.5" style="stroke:#33322E;fill:#ceffcf;"></ellipse>
<text x="567.5" y="248" style="">*Yes*</text>
<rect x="765.5" y="297.5" height="31" width="92" style="stroke:#33322E;fill:#eee8d5;"></rect>
<text x="773.5" y="319" style="">Accident</text>
<rect x="98.5" y="84.5" height="31" width="140" style="stroke:#33322E;fill:#eee8d5;"></rect>
<text x="106.8" y="106" style="">SuddenStop(1)</text>
<rect x="278.5" y="84.5" height="31" width="130" style="stroke:#33322E;fill:#eee8d5;"></rect>
<text x="286.5" y="106" style="">PhoneDrop(3)</text>
<rect x="542.5" y="84.5" height="31" width="121" style="stroke:#33322E;fill:#eee8d5;"></rect>
<text x="550.8" y="106" style="">Airbag(160)</text>
<path d="M759 147.5 L832.5 171 L759 194.5 L686.5 171 Z" style="stroke:#33322E;fill:#eee8d5;"></path>
<text x="702.5" y="177" style="">Sound >= 160</text>
<rect x="703.5" y="84.5" height="31" width="111" style="stroke:#33322E;fill:#eee8d5;"></rect>
<text x="711.5" y="106" style="">Shout(110)</text>
<rect x="854.5" y="84.5" height="31" width="102" style="stroke:#33322E;fill:#eee8d5;"></rect>
<text x="862.8" y="106" style="">Speak(60)</text>
<ellipse cx="487.3" cy="242" rx="32" ry="15.5" style="stroke:#33322E;fill:#ffc5c5;"></ellipse>
<text x="463.5" y="248" style="">*No**</text>
<ellipse cx="860.5" cy="242" rx="36.5" ry="15.5" style="stroke:#33322E;fill:#ceffcf;"></ellipse>
<text x="832.5" y="248" style="">*Yes**</text></svg>
