<svg width="2165.25" height="3822" version="1.1" baseProfile="full" xmlns="http://www.w3.org/2000/svg" xmlns:xlink="http://www.w3.org/1999/xlink" xmlns:ev="http://www.w3.org/2001/xml-events" style="font-weight:bold; font-size:12pt; font-family:'Calibri', Helvetica, sans-serif;;stroke-width:3;stroke-linejoin:round;stroke-linecap:round"><path d="M1699.2 1541.5 L1661.3 1716.5 L1516.4 1860.5 L1516.4 1860.5 " style="stroke:#33322E;fill:none;"></path>
<path d="M1522.1 1847.3 L1521.1 1855.8 L1529.6 1854.9 L1516.4 1860.5 Z" style="stroke:#33322E;fill:#33322E;"></path>
<path d="M1738.4 1541.5 L1749.5 1716.5 L1877.8 1848.3 L1877.8 1848.3 " style="stroke:#33322E;fill:none;"></path>
<path d="M1864.6 1842.4 L1873.1 1843.5 L1872.3 1835 L1877.8 1848.3 Z" style="stroke:#33322E;fill:#33322E;"></path>
<path d="M1454.5 1603.5 L1454.5 1716.5 L1564.8 1829.3 L1564.8 1829.3 " style="stroke:#33322E;fill:none;"></path>
<path d="M1551.6 1823.5 L1560.1 1824.6 L1559.2 1816.1 L1564.8 1829.3 Z" style="stroke:#33322E;fill:#33322E;"></path>
<path d="M1927 3264.5 L1927 3284.5 L362.5 3428 L362.5 3428 " style="stroke:#33322E;fill:none;"></path>
<path d="M375.3 3421.5 L369.1 3427.4 L376.3 3432.1 L362.5 3428 Z" style="stroke:#33322E;fill:#33322E;"></path>
<path d="M188 3583.5 L188 3603.5 L286.8 3654 L286.8 3654 " style="stroke:#33322E;fill:none;"></path>
<path d="M272.5 3652.7 L280.8 3651 L277.3 3643.2 L286.8 3654 Z" style="stroke:#33322E;fill:#33322E;"></path>
<path d="M350 1696.5 L350 1716.5 L350 2221.5 L350 2221.5 L1757.5 2695.9 L1757.5 2695.9 " style="stroke:#33322E;fill:none;"></path>
<path d="M1743.2 2696.7 L1751.2 2693.7 L1746.6 2686.6 L1757.5 2695.9 Z" style="stroke:#33322E;fill:#33322E;"></path>
<path d="M1701.3 2201.5 L1701.3 2221.5 L1757.5 2353.9 L1757.5 2353.9 " style="stroke:#33322E;fill:none;"></path>
<path d="M1747.4 2343.7 L1754.9 2347.8 L1757.2 2339.6 L1757.5 2353.9 Z" style="stroke:#33322E;fill:#33322E;"></path>
<path d="M615.8 794 L784.8 1087.5 L1062 1308.4 L1062 1308.4 " style="stroke:#33322E;fill:none;"></path>
<path d="M1048.2 1304.2 L1056.8 1304.2 L1054.9 1295.9 L1062 1308.4 Z" style="stroke:#33322E;fill:#33322E;"></path>
<path d="M323.8 823.9 L188 1087.5 L188 3284.5 L188 3284.5 L188 3304.5 L188 3304.5 " style="stroke:#33322E;fill:none;"></path>
<path d="M182.7 3291.2 L188 3297.8 L193.3 3291.2 L188 3304.5 Z" style="stroke:#33322E;fill:#33322E;"></path>
<path d="M361.2 1036.5 L350 1087.5 L350 1107.5 L350 1107.5 " style="stroke:#33322E;fill:none;"></path>
<path d="M344.7 1094.2 L350 1100.8 L355.3 1094.2 L350 1107.5 Z" style="stroke:#33322E;fill:#33322E;"></path>
<path d="M615.8 690.5 L1002 1087.5 L747 1302.8 L747 1302.8 " style="stroke:#33322E;fill:none;"></path>
<path d="M753.7 1290.1 L752.1 1298.5 L760.6 1298.3 L747 1302.8 Z" style="stroke:#33322E;fill:#33322E;"></path>
<path d="M629.5 1541.5 L629.5 1716.5 L629.5 3603.5 L629.5 3603.5 L530.8 3654 L530.8 3654 " style="stroke:#33322E;fill:none;"></path>
<path d="M540.2 3643.2 L536.7 3651 L545 3652.7 L530.8 3654 Z" style="stroke:#33322E;fill:#33322E;"></path>
<path d="M1324.8 838.7 L1159.5 1087.5 L1022 1257.1 L1022 1257.1 " style="stroke:#33322E;fill:none;"></path>
<path d="M1026.3 1243.4 L1026.2 1251.9 L1034.5 1250.1 L1022 1257.1 Z" style="stroke:#33322E;fill:#33322E;"></path>
<path d="M1363.1 1067.5 L1357 1087.5 L1612 1302.8 L1612 1302.8 " style="stroke:#33322E;fill:none;"></path>
<path d="M1598.4 1298.3 L1606.9 1298.5 L1605.3 1290.1 L1612 1302.8 Z" style="stroke:#33322E;fill:#33322E;"></path>
<path d="M1720.8 744.4 L2054 1087.5 L2054 1716.5 L2054 1716.5 L2031.3 1814 L2031.3 1814 " style="stroke:#33322E;fill:none;"></path>
<path d="M2029.1 1799.8 L2032.8 1807.5 L2039.5 1802.2 L2031.3 1814 Z" style="stroke:#33322E;fill:#33322E;"></path>
<path d="M1324.8 875.6 L1199.5 1087.5 L1337 1257.1 L1337 1257.1 " style="stroke:#33322E;fill:none;"></path>
<path d="M1324.5 1250.1 L1332.8 1251.9 L1332.7 1243.4 L1337 1257.1 Z" style="stroke:#33322E;fill:#33322E;"></path>
<path d="M1513.6 1067.5 L1513.3 1087.5 L1297 1291.3 L1297 1291.3 " style="stroke:#33322E;fill:none;"></path>
<path d="M1303 1278.3 L1301.9 1286.7 L1310.4 1286 L1297 1291.3 Z" style="stroke:#33322E;fill:#33322E;"></path>
<path d="M1720.8 712.4 L2152.8 1087.5 L2152.8 2221.5 L2152.8 2221.5 L2096.5 2353.9 L2096.5 2353.9 " style="stroke:#33322E;fill:none;"></path>
<path d="M2096.8 2339.6 L2099.1 2347.8 L2106.6 2343.7 L2096.5 2353.9 Z" style="stroke:#33322E;fill:#33322E;"></path>
<path d="M1720.8 837.8 L1887 1087.5 L1887 1716.5 L1887 1716.5 L1837.8 1783.4 L1837.8 1783.4 " style="stroke:#33322E;fill:none;"></path>
<path d="M1841.4 1769.5 L1841.7 1778.1 L1849.9 1775.9 L1837.8 1783.4 Z" style="stroke:#33322E;fill:#33322E;"></path>
<rect x="787.5" y="1216.5" height="372" width="235" style="stroke:#33322E;fill:#eee8d5;"></rect>
<text x="871.8" y="1238" style="">Address</text>
<path d="M787.5 1247.5 L1022.5 1247.5" style="stroke:#33322E;fill:none;"></path>
<text x="795.5" y="1269" style="">Category int(11)</text>
<path d="M787.5 1278.5 L1022.5 1278.5" style="stroke:#33322E;fill:none;"></path>
<text x="795.5" y="1300" style="">Status int(11)</text>
<path d="M787.5 1309.5 L1022.5 1309.5" style="stroke:#33322E;fill:none;"></path>
<text x="795.5" y="1331" style="">Country int(4)</text>
<path d="M787.5 1340.5 L1022.5 1340.5" style="stroke:#33322E;fill:none;"></path>
<text x="795.5" y="1362" style="">Street varchar(45)</text>
<path d="M787.5 1371.5 L1022.5 1371.5" style="stroke:#33322E;fill:none;"></path>
<text x="795.5" y="1393" style="">City varchar(45)</text>
<path d="M787.5 1402.5 L1022.5 1402.5" style="stroke:#33322E;fill:none;"></path>
<text x="795.5" y="1424" style="">Province varchar(45)</text>
<path d="M787.5 1433.5 L1022.5 1433.5" style="stroke:#33322E;fill:none;"></path>
<text x="795.5" y="1455" style="">Zipcode varchar(45)</text>
<path d="M787.5 1464.5 L1022.5 1464.5" style="stroke:#33322E;fill:none;"></path>
<text x="795.5" y="1486" style="">*UserID int(11)</text>
<path d="M787.5 1495.5 L1022.5 1495.5" style="stroke:#33322E;fill:none;"></path>
<text x="795.5" y="1517" style="">ID int(11)</text>
<path d="M787.5 1526.5 L1022.5 1526.5" style="stroke:#33322E;fill:none;"></path>
<text x="795.5" y="1548" style="">CreatedAt decimal(13,3)</text>
<path d="M787.5 1557.5 L1022.5 1557.5" style="stroke:#33322E;fill:none;"></path>
<text x="795.5" y="1579" style="">UpdatedAt decimal(13,3)</text>
<rect x="1612.5" y="1262.5" height="279" width="235" style="stroke:#33322E;fill:#eee8d5;"></rect>
<text x="1706.3" y="1284" style="">Board</text>
<path d="M1612.5 1293.5 L1847.5 1293.5" style="stroke:#33322E;fill:none;"></path>
<text x="1620.5" y="1315" style="">Category int(11)</text>
<path d="M1612.5 1324.5 L1847.5 1324.5" style="stroke:#33322E;fill:none;"></path>
<text x="1620.5" y="1346" style="">Status int(11)</text>
<path d="M1612.5 1355.5 L1847.5 1355.5" style="stroke:#33322E;fill:none;"></path>
<text x="1620.5" y="1377" style="">Theme varchar(45)</text>
<path d="M1612.5 1386.5 L1847.5 1386.5" style="stroke:#33322E;fill:none;"></path>
<text x="1620.5" y="1408" style="">Content text</text>
<path d="M1612.5 1417.5 L1847.5 1417.5" style="stroke:#33322E;fill:none;"></path>
<text x="1620.5" y="1439" style="">*UserID int(11)</text>
<path d="M1612.5 1448.5 L1847.5 1448.5" style="stroke:#33322E;fill:none;"></path>
<text x="1620.5" y="1470" style="">ID int(11)</text>
<path d="M1612.5 1479.5 L1847.5 1479.5" style="stroke:#33322E;fill:none;"></path>
<text x="1620.5" y="1501" style="">CreatedAt decimal(13,3)</text>
<path d="M1612.5 1510.5 L1847.5 1510.5" style="stroke:#33322E;fill:none;"></path>
<text x="1620.5" y="1532" style="">UpdatedAt decimal(13,3)</text>
<rect x="1289.5" y="1860.5" height="217" width="235" style="stroke:#33322E;fill:#eee8d5;"></rect>
<text x="1359.5" y="1882" style="">BoardImage</text>
<path d="M1289.5 1891.5 L1524.5 1891.5" style="stroke:#33322E;fill:none;"></path>
<text x="1297.5" y="1913" style="">ImageURL varchar(250)</text>
<path d="M1289.5 1922.5 L1524.5 1922.5" style="stroke:#33322E;fill:none;"></path>
<text x="1297.5" y="1944" style="">Status int(10)</text>
<path d="M1289.5 1953.5 L1524.5 1953.5" style="stroke:#33322E;fill:none;"></path>
<text x="1297.5" y="1975" style="">*BoardID int(10)</text>
<path d="M1289.5 1984.5 L1524.5 1984.5" style="stroke:#33322E;fill:none;"></path>
<text x="1297.5" y="2006" style="">ID int(11)</text>
<path d="M1289.5 2015.5 L1524.5 2015.5" style="stroke:#33322E;fill:none;"></path>
<text x="1297.5" y="2037" style="">CreatedAt decimal(13,3)</text>
<path d="M1289.5 2046.5 L1524.5 2046.5" style="stroke:#33322E;fill:none;"></path>
<text x="1297.5" y="2068" style="">UpdatedAt decimal(13,3)</text>
<rect x="1877.5" y="1814.5" height="310" width="235" style="stroke:#33322E;fill:#eee8d5;"></rect>
<text x="1947.5" y="1836" style="">BoardReply</text>
<path d="M1877.5 1845.5 L2112.5 1845.5" style="stroke:#33322E;fill:none;"></path>
<text x="1885.5" y="1867" style="">Category int(11)</text>
<path d="M1877.5 1876.5 L2112.5 1876.5" style="stroke:#33322E;fill:none;"></path>
<text x="1885.5" y="1898" style="">Status int(11)</text>
<path d="M1877.5 1907.5 L2112.5 1907.5" style="stroke:#33322E;fill:none;"></path>
<text x="1885.5" y="1929" style="">Theme varchar(45)</text>
<path d="M1877.5 1938.5 L2112.5 1938.5" style="stroke:#33322E;fill:none;"></path>
<text x="1885.5" y="1960" style="">Content text</text>
<path d="M1877.5 1969.5 L2112.5 1969.5" style="stroke:#33322E;fill:none;"></path>
<text x="1885.5" y="1991" style="">*BoardID int(11)</text>
<path d="M1877.5 2000.5 L2112.5 2000.5" style="stroke:#33322E;fill:none;"></path>
<text x="1885.5" y="2022" style="">*UserID int(11)</text>
<path d="M1877.5 2031.5 L2112.5 2031.5" style="stroke:#33322E;fill:none;"></path>
<text x="1885.5" y="2053" style="">ID int(11)</text>
<path d="M1877.5 2062.5 L2112.5 2062.5" style="stroke:#33322E;fill:none;"></path>
<text x="1885.5" y="2084" style="">CreatedAt decimal(13,3)</text>
<path d="M1877.5 2093.5 L2112.5 2093.5" style="stroke:#33322E;fill:none;"></path>
<text x="1885.5" y="2115" style="">UpdatedAt decimal(13,3)</text>
<rect x="1337.5" y="1200.5" height="403" width="235" style="stroke:#33322E;fill:#eee8d5;"></rect>
<text x="1436" y="1222" style="">Card</text>
<path d="M1337.5 1231.5 L1572.5 1231.5" style="stroke:#33322E;fill:none;"></path>
<text x="1345.5" y="1253" style="">Category int(11)</text>
<path d="M1337.5 1262.5 L1572.5 1262.5" style="stroke:#33322E;fill:none;"></path>
<text x="1345.5" y="1284" style="">BillingKey varchar(45)</text>
<path d="M1337.5 1293.5 L1572.5 1293.5" style="stroke:#33322E;fill:none;"></path>
<text x="1345.5" y="1315" style="">Status int(11)</text>
<path d="M1337.5 1324.5 L1572.5 1324.5" style="stroke:#33322E;fill:none;"></path>
<text x="1345.5" y="1346" style="">LastFour varchar(45)</text>
<path d="M1337.5 1355.5 L1572.5 1355.5" style="stroke:#33322E;fill:none;"></path>
<text x="1345.5" y="1377" style="">CardBrand int(11)</text>
<path d="M1337.5 1386.5 L1572.5 1386.5" style="stroke:#33322E;fill:none;"></path>
<text x="1345.5" y="1408" style="">ExpMonth int(11)</text>
<path d="M1337.5 1417.5 L1572.5 1417.5" style="stroke:#33322E;fill:none;"></path>
<text x="1345.5" y="1439" style="">ExpYear int(11)</text>
<path d="M1337.5 1448.5 L1572.5 1448.5" style="stroke:#33322E;fill:none;"></path>
<text x="1345.5" y="1470" style="">Name varchar(45)</text>
<path d="M1337.5 1479.5 L1572.5 1479.5" style="stroke:#33322E;fill:none;"></path>
<text x="1345.5" y="1501" style="">*UserID int(11)</text>
<path d="M1337.5 1510.5 L1572.5 1510.5" style="stroke:#33322E;fill:none;"></path>
<text x="1345.5" y="1532" style="">ID int(11)</text>
<path d="M1337.5 1541.5 L1572.5 1541.5" style="stroke:#33322E;fill:none;"></path>
<text x="1345.5" y="1563" style="">CreatedAt decimal(13,3)</text>
<path d="M1337.5 1572.5 L1572.5 1572.5" style="stroke:#33322E;fill:none;"></path>
<text x="1345.5" y="1594" style="">UpdatedAt decimal(13,3)</text>
<rect x="1062.5" y="1262.5" height="279" width="235" style="stroke:#33322E;fill:#eee8d5;"></rect>
<text x="1142" y="1284" style="">CartItem</text>
<path d="M1062.5 1293.5 L1297.5 1293.5" style="stroke:#33322E;fill:none;"></path>
<text x="1070.5" y="1315" style="">Status int(11)</text>
<path d="M1062.5 1324.5 L1297.5 1324.5" style="stroke:#33322E;fill:none;"></path>
<text x="1070.5" y="1346" style="">Count int(11)</text>
<path d="M1062.5 1355.5 L1297.5 1355.5" style="stroke:#33322E;fill:none;"></path>
<text x="1070.5" y="1377" style="">ShareCode varchar(45)</text>
<path d="M1062.5 1386.5 L1297.5 1386.5" style="stroke:#33322E;fill:none;"></path>
<text x="1070.5" y="1408" style="">*ProductID int(11)</text>
<path d="M1062.5 1417.5 L1297.5 1417.5" style="stroke:#33322E;fill:none;"></path>
<text x="1070.5" y="1439" style="">*UserID int(11)</text>
<path d="M1062.5 1448.5 L1297.5 1448.5" style="stroke:#33322E;fill:none;"></path>
<text x="1070.5" y="1470" style="">ID int(11)</text>
<path d="M1062.5 1479.5 L1297.5 1479.5" style="stroke:#33322E;fill:none;"></path>
<text x="1070.5" y="1501" style="">CreatedAt decimal(13,3)</text>
<path d="M1062.5 1510.5 L1297.5 1510.5" style="stroke:#33322E;fill:none;"></path>
<text x="1070.5" y="1532" style="">UpdatedAt decimal(13,3)</text>
<rect x="1757.5" y="2241.5" height="1023" width="339" style="stroke:#33322E;fill:#eee8d5;"></rect>
<text x="1865.3" y="2263" style="">DeliveryGroup</text>
<path d="M1757.5 2272.5 L2096.5 2272.5" style="stroke:#33322E;fill:none;"></path>
<text x="1765.5" y="2294" style="">DeliveryNumber varchar(150)</text>
<path d="M1757.5 2303.5 L2096.5 2303.5" style="stroke:#33322E;fill:none;"></path>
<text x="1765.5" y="2325" style="">DeliveryCompany varchar(150)</text>
<path d="M1757.5 2334.5 L2096.5 2334.5" style="stroke:#33322E;fill:none;"></path>
<text x="1765.5" y="2356" style="">DeliveryHistory text</text>
<path d="M1757.5 2365.5 L2096.5 2365.5" style="stroke:#33322E;fill:none;"></path>
<text x="1765.5" y="2387" style="">DeliveryRequest text</text>
<path d="M1757.5 2396.5 L2096.5 2396.5" style="stroke:#33322E;fill:none;"></path>
<text x="1765.5" y="2418" style="">RecipientName varchar(45)</text>
<path d="M1757.5 2427.5 L2096.5 2427.5" style="stroke:#33322E;fill:none;"></path>
<text x="1765.5" y="2449" style="">RecipientPhone varchar(45)</text>
<path d="M1757.5 2458.5 L2096.5 2458.5" style="stroke:#33322E;fill:none;"></path>
<text x="1765.5" y="2480" style="">Review text</text>
<path d="M1757.5 2489.5 L2096.5 2489.5" style="stroke:#33322E;fill:none;"></path>
<text x="1765.5" y="2511" style="">ShippingStreet varchar(200)</text>
<path d="M1757.5 2520.5 L2096.5 2520.5" style="stroke:#33322E;fill:none;"></path>
<text x="1765.5" y="2542" style="">ShippingCity varchar(45)</text>
<path d="M1757.5 2551.5 L2096.5 2551.5" style="stroke:#33322E;fill:none;"></path>
<text x="1765.5" y="2573" style="">ShippingProvince varchar(45)</text>
<path d="M1757.5 2582.5 L2096.5 2582.5" style="stroke:#33322E;fill:none;"></path>
<text x="1765.5" y="2604" style="">ShippingZipcode varchar(45)</text>
<path d="M1757.5 2613.5 L2096.5 2613.5" style="stroke:#33322E;fill:none;"></path>
<text x="1765.5" y="2635" style="">CancellationReason text</text>
<path d="M1757.5 2644.5 L2096.5 2644.5" style="stroke:#33322E;fill:none;"></path>
<text x="1765.5" y="2666" style="">Rating decimal(5,2)</text>
<path d="M1757.5 2675.5 L2096.5 2675.5" style="stroke:#33322E;fill:none;"></path>
<text x="1765.5" y="2697" style="">DeliveryDate decimal(13,3)</text>
<path d="M1757.5 2706.5 L2096.5 2706.5" style="stroke:#33322E;fill:none;"></path>
<text x="1765.5" y="2728" style="">FulfillmentDate decimal(13,3)</text>
<path d="M1757.5 2737.5 L2096.5 2737.5" style="stroke:#33322E;fill:none;"></path>
<text x="1765.5" y="2759" style="">Status int(10)</text>
<path d="M1757.5 2768.5 L2096.5 2768.5" style="stroke:#33322E;fill:none;"></path>
<text x="1765.5" y="2790" style="">CancellationType int(10)</text>
<path d="M1757.5 2799.5 L2096.5 2799.5" style="stroke:#33322E;fill:none;"></path>
<text x="1765.5" y="2821" style="">TollPenalty int(10)</text>
<path d="M1757.5 2830.5 L2096.5 2830.5" style="stroke:#33322E;fill:none;"></path>
<text x="1765.5" y="2852" style="">DeliveryStatus int(10)</text>
<path d="M1757.5 2861.5 L2096.5 2861.5" style="stroke:#33322E;fill:none;"></path>
<text x="1765.5" y="2883" style="">Category int(10)</text>
<path d="M1757.5 2892.5 L2096.5 2892.5" style="stroke:#33322E;fill:none;"></path>
<text x="1765.5" y="2914" style="">ShippingInfoDeadline decimal(13,3)</text>
<path d="M1757.5 2923.5 L2096.5 2923.5" style="stroke:#33322E;fill:none;"></path>
<text x="1765.5" y="2945" style="">TollDiscount int(10)</text>
<path d="M1757.5 2954.5 L2096.5 2954.5" style="stroke:#33322E;fill:none;"></path>
<text x="1765.5" y="2976" style="">TollPayment int(10)</text>
<path d="M1757.5 2985.5 L2096.5 2985.5" style="stroke:#33322E;fill:none;"></path>
<text x="1765.5" y="3007" style="">PreviousTollAmount int(10)</text>
<path d="M1757.5 3016.5 L2096.5 3016.5" style="stroke:#33322E;fill:none;"></path>
<text x="1765.5" y="3038" style="">DeliveryFee decimal(10,2)</text>
<path d="M1757.5 3047.5 L2096.5 3047.5" style="stroke:#33322E;fill:none;"></path>
<text x="1765.5" y="3069" style="">ShippingCountry int(4)</text>
<path d="M1757.5 3078.5 L2096.5 3078.5" style="stroke:#33322E;fill:none;"></path>
<text x="1765.5" y="3100" style="">*LotteryID int(10)</text>
<path d="M1757.5 3109.5 L2096.5 3109.5" style="stroke:#33322E;fill:none;"></path>
<text x="1765.5" y="3131" style="">*PaymentID int(10)</text>
<path d="M1757.5 3140.5 L2096.5 3140.5" style="stroke:#33322E;fill:none;"></path>
<text x="1765.5" y="3162" style="">*UserID int(10)</text>
<path d="M1757.5 3171.5 L2096.5 3171.5" style="stroke:#33322E;fill:none;"></path>
<text x="1765.5" y="3193" style="">ID int(11)</text>
<path d="M1757.5 3202.5 L2096.5 3202.5" style="stroke:#33322E;fill:none;"></path>
<text x="1765.5" y="3224" style="">CreatedAt decimal(13,3)</text>
<path d="M1757.5 3233.5 L2096.5 3233.5" style="stroke:#33322E;fill:none;"></path>
<text x="1765.5" y="3255" style="">UpdatedAt decimal(13,3)</text>
<rect x="13.5" y="3304.5" height="279" width="349" style="stroke:#33322E;fill:#eee8d5;"></rect>
<text x="131" y="3326" style="">DeliveryItem</text>
<path d="M13.5 3335.5 L362.5 3335.5" style="stroke:#33322E;fill:none;"></path>
<text x="21.5" y="3357" style="">Quantity int(10)</text>
<path d="M13.5 3366.5 L362.5 3366.5" style="stroke:#33322E;fill:none;"></path>
<text x="21.5" y="3388" style="">ProductReviewDeadline decimal(13,3)</text>
<path d="M13.5 3397.5 L362.5 3397.5" style="stroke:#33322E;fill:none;"></path>
<text x="21.5" y="3419" style="">LotteryReviewDeadline decimal(13,3)</text>
<path d="M13.5 3428.5 L362.5 3428.5" style="stroke:#33322E;fill:none;"></path>
<text x="21.5" y="3450" style="">*ProductID int(10)</text>
<path d="M13.5 3459.5 L362.5 3459.5" style="stroke:#33322E;fill:none;"></path>
<text x="21.5" y="3481" style="">*DeliveryGroupID int(10)</text>
<path d="M13.5 3490.5 L362.5 3490.5" style="stroke:#33322E;fill:none;"></path>
<text x="21.5" y="3512" style="">ID int(11)</text>
<path d="M13.5 3521.5 L362.5 3521.5" style="stroke:#33322E;fill:none;"></path>
<text x="21.5" y="3543" style="">CreatedAt decimal(13,3)</text>
<path d="M13.5 3552.5 L362.5 3552.5" style="stroke:#33322E;fill:none;"></path>
<text x="21.5" y="3574" style="">UpdatedAt decimal(13,3)</text>
<rect x="286.5" y="3623.5" height="186" width="244" style="stroke:#33322E;fill:#eee8d5;"></rect>
<text x="323" y="3645" style="">DeliveryItemOption</text>
<path d="M286.5 3654.5 L530.5 3654.5" style="stroke:#33322E;fill:none;"></path>
<text x="294.5" y="3676" style="">*DeliveryItemID int(11)</text>
<path d="M286.5 3685.5 L530.5 3685.5" style="stroke:#33322E;fill:none;"></path>
<text x="294.5" y="3707" style="">*ProductOptionID int(11)</text>
<path d="M286.5 3716.5 L530.5 3716.5" style="stroke:#33322E;fill:none;"></path>
<text x="294.5" y="3738" style="">ID int(11)</text>
<path d="M286.5 3747.5 L530.5 3747.5" style="stroke:#33322E;fill:none;"></path>
<text x="294.5" y="3769" style="">CreatedAt decimal(13,3)</text>
<path d="M286.5 3778.5 L530.5 3778.5" style="stroke:#33322E;fill:none;"></path>
<text x="294.5" y="3800" style="">UpdatedAt decimal(13,3)</text>
<rect x="228.5" y="1107.5" height="589" width="244" style="stroke:#33322E;fill:#eee8d5;"></rect>
<text x="317.3" y="1129" style="">Lottery</text>
<path d="M228.5 1138.5 L472.5 1138.5" style="stroke:#33322E;fill:none;"></path>
<text x="236.5" y="1160" style="">Status int(11)</text>
<path d="M228.5 1169.5 L472.5 1169.5" style="stroke:#33322E;fill:none;"></path>
<text x="236.5" y="1191" style="">StartsAt decimal(13,3)</text>
<path d="M228.5 1200.5 L472.5 1200.5" style="stroke:#33322E;fill:none;"></path>
<text x="236.5" y="1222" style="">EndsAt decimal(13,3)</text>
<path d="M228.5 1231.5 L472.5 1231.5" style="stroke:#33322E;fill:none;"></path>
<text x="236.5" y="1253" style="">MinToll int(11)</text>
<path d="M228.5 1262.5 L472.5 1262.5" style="stroke:#33322E;fill:none;"></path>
<text x="236.5" y="1284" style="">MaxToll int(11)</text>
<path d="M228.5 1293.5 L472.5 1293.5" style="stroke:#33322E;fill:none;"></path>
<text x="236.5" y="1315" style="">MinParticipants int(11)</text>
<path d="M228.5 1324.5 L472.5 1324.5" style="stroke:#33322E;fill:none;"></path>
<text x="236.5" y="1346" style="">MaxParticipants int(11)</text>
<path d="M228.5 1355.5 L472.5 1355.5" style="stroke:#33322E;fill:none;"></path>
<text x="236.5" y="1377" style="">Quantity int(10)</text>
<path d="M228.5 1386.5 L472.5 1386.5" style="stroke:#33322E;fill:none;"></path>
<text x="236.5" y="1408" style="">WinnerCount int(10)</text>
<path d="M228.5 1417.5 L472.5 1417.5" style="stroke:#33322E;fill:none;"></path>
<text x="236.5" y="1439" style="">TollPrice int(10)</text>
<path d="M228.5 1448.5 L472.5 1448.5" style="stroke:#33322E;fill:none;"></path>
<text x="236.5" y="1470" style="">ViewCount int(10)</text>
<path d="M228.5 1479.5 L472.5 1479.5" style="stroke:#33322E;fill:none;"></path>
<text x="236.5" y="1501" style="">ParticipantCount int(10)</text>
<path d="M228.5 1510.5 L472.5 1510.5" style="stroke:#33322E;fill:none;"></path>
<text x="236.5" y="1532" style="">TollAmount int(10)</text>
<path d="M228.5 1541.5 L472.5 1541.5" style="stroke:#33322E;fill:none;"></path>
<text x="236.5" y="1563" style="">WinningTickets text</text>
<path d="M228.5 1572.5 L472.5 1572.5" style="stroke:#33322E;fill:none;"></path>
<text x="236.5" y="1594" style="">*ProductID int(11)</text>
<path d="M228.5 1603.5 L472.5 1603.5" style="stroke:#33322E;fill:none;"></path>
<text x="236.5" y="1625" style="">ID int(11)</text>
<path d="M228.5 1634.5 L472.5 1634.5" style="stroke:#33322E;fill:none;"></path>
<text x="236.5" y="1656" style="">CreatedAt decimal(13,3)</text>
<path d="M228.5 1665.5 L472.5 1665.5" style="stroke:#33322E;fill:none;"></path>
<text x="236.5" y="1687" style="">UpdatedAt decimal(13,3)</text>
<rect x="1564.5" y="1736.5" height="465" width="273" style="stroke:#33322E;fill:#eee8d5;"></rect>
<text x="1667.8" y="1758" style="">Payment</text>
<path d="M1564.5 1767.5 L1837.5 1767.5" style="stroke:#33322E;fill:none;"></path>
<text x="1572.5" y="1789" style="">Category int(11)</text>
<path d="M1564.5 1798.5 L1837.5 1798.5" style="stroke:#33322E;fill:none;"></path>
<text x="1572.5" y="1820" style="">Amount decimal(10,2)</text>
<path d="M1564.5 1829.5 L1837.5 1829.5" style="stroke:#33322E;fill:none;"></path>
<text x="1572.5" y="1851" style="">TollAmount int(11)</text>
<path d="M1564.5 1860.5 L1837.5 1860.5" style="stroke:#33322E;fill:none;"></path>
<text x="1572.5" y="1882" style="">PaymentMethod int(11)</text>
<path d="M1564.5 1891.5 L1837.5 1891.5" style="stroke:#33322E;fill:none;"></path>
<text x="1572.5" y="1913" style="">Status int(11)</text>
<path d="M1564.5 1922.5 L1837.5 1922.5" style="stroke:#33322E;fill:none;"></path>
<text x="1572.5" y="1944" style="">Description text</text>
<path d="M1564.5 1953.5 L1837.5 1953.5" style="stroke:#33322E;fill:none;"></path>
<text x="1572.5" y="1975" style="">VBankName varchar(45)</text>
<path d="M1564.5 1984.5 L1837.5 1984.5" style="stroke:#33322E;fill:none;"></path>
<text x="1572.5" y="2006" style="">VBankNumber varchar(45)</text>
<path d="M1564.5 2015.5 L1837.5 2015.5" style="stroke:#33322E;fill:none;"></path>
<text x="1572.5" y="2037" style="">TransactionKey varchar(255)</text>
<path d="M1564.5 2046.5 L1837.5 2046.5" style="stroke:#33322E;fill:none;"></path>
<text x="1572.5" y="2068" style="">*CardID int(11)</text>
<path d="M1564.5 2077.5 L1837.5 2077.5" style="stroke:#33322E;fill:none;"></path>
<text x="1572.5" y="2099" style="">*UserID int(11)</text>
<path d="M1564.5 2108.5 L1837.5 2108.5" style="stroke:#33322E;fill:none;"></path>
<text x="1572.5" y="2130" style="">ID int(11)</text>
<path d="M1564.5 2139.5 L1837.5 2139.5" style="stroke:#33322E;fill:none;"></path>
<text x="1572.5" y="2161" style="">CreatedAt decimal(13,3)</text>
<path d="M1564.5 2170.5 L1837.5 2170.5" style="stroke:#33322E;fill:none;"></path>
<text x="1572.5" y="2192" style="">UpdatedAt decimal(13,3)</text>
<rect x="323.5" y="44.5" height="992" width="292" style="stroke:#33322E;fill:#eee8d5;"></rect>
<text x="436.3" y="66" style="">Product</text>
<path d="M323.5 75.5 L615.5 75.5" style="stroke:#33322E;fill:none;"></path>
<text x="331.5" y="97" style="">Name varchar(45)</text>
<path d="M323.5 106.5 L615.5 106.5" style="stroke:#33322E;fill:none;"></path>
<text x="331.5" y="128" style="">Description text</text>
<path d="M323.5 137.5 L615.5 137.5" style="stroke:#33322E;fill:none;"></path>
<text x="331.5" y="159" style="">Status int(11)</text>
<path d="M323.5 168.5 L615.5 168.5" style="stroke:#33322E;fill:none;"></path>
<text x="331.5" y="190" style="">Position int(11)</text>
<path d="M323.5 199.5 L615.5 199.5" style="stroke:#33322E;fill:none;"></path>
<text x="331.5" y="221" style="">Category int(11)</text>
<path d="M323.5 230.5 L615.5 230.5" style="stroke:#33322E;fill:none;"></path>
<text x="331.5" y="252" style="">DeliveryMethod int(11)</text>
<path d="M323.5 261.5 L615.5 261.5" style="stroke:#33322E;fill:none;"></path>
<text x="331.5" y="283" style="">MaxDiscount decimal(10,2)</text>
<path d="M323.5 292.5 L615.5 292.5" style="stroke:#33322E;fill:none;"></path>
<text x="331.5" y="314" style="">SourcingOrigin text</text>
<path d="M323.5 323.5 L615.5 323.5" style="stroke:#33322E;fill:none;"></path>
<text x="331.5" y="345" style="">Thumbnail text</text>
<path d="M323.5 354.5 L615.5 354.5" style="stroke:#33322E;fill:none;"></path>
<text x="331.5" y="376" style="">ImageURL text</text>
<path d="M323.5 385.5 L615.5 385.5" style="stroke:#33322E;fill:none;"></path>
<text x="331.5" y="407" style="">Stock int(11)</text>
<path d="M323.5 416.5 L615.5 416.5" style="stroke:#33322E;fill:none;"></path>
<text x="331.5" y="438" style="">Merchant varchar(45)</text>
<path d="M323.5 447.5 L615.5 447.5" style="stroke:#33322E;fill:none;"></path>
<text x="331.5" y="469" style="">Domestic int(11)</text>
<path d="M323.5 478.5 L615.5 478.5" style="stroke:#33322E;fill:none;"></path>
<text x="331.5" y="500" style="">ProductionPrice decimal(10,2)</text>
<path d="M323.5 509.5 L615.5 509.5" style="stroke:#33322E;fill:none;"></path>
<text x="331.5" y="531" style="">SellPrice decimal(10,2)</text>
<path d="M323.5 540.5 L615.5 540.5" style="stroke:#33322E;fill:none;"></path>
<text x="331.5" y="562" style="">FakePrice decimal(10,2)</text>
<path d="M323.5 571.5 L615.5 571.5" style="stroke:#33322E;fill:none;"></path>
<text x="331.5" y="593" style="">MaxSalePrice decimal(10,2)</text>
<path d="M323.5 602.5 L615.5 602.5" style="stroke:#33322E;fill:none;"></path>
<text x="331.5" y="624" style="">Color int(10)</text>
<path d="M323.5 633.5 L615.5 633.5" style="stroke:#33322E;fill:none;"></path>
<text x="331.5" y="655" style="">Width decimal(10,2)</text>
<path d="M323.5 664.5 L615.5 664.5" style="stroke:#33322E;fill:none;"></path>
<text x="331.5" y="686" style="">Length decimal(10,2)</text>
<path d="M323.5 695.5 L615.5 695.5" style="stroke:#33322E;fill:none;"></path>
<text x="331.5" y="717" style="">Height decimal(10,2)</text>
<path d="M323.5 726.5 L615.5 726.5" style="stroke:#33322E;fill:none;"></path>
<text x="331.5" y="748" style="">SourcingCountry int(10)</text>
<path d="M323.5 757.5 L615.5 757.5" style="stroke:#33322E;fill:none;"></path>
<text x="331.5" y="779" style="">Handling text</text>
<path d="M323.5 788.5 L615.5 788.5" style="stroke:#33322E;fill:none;"></path>
<text x="331.5" y="810" style="">QualityAssurance text</text>
<path d="M323.5 819.5 L615.5 819.5" style="stroke:#33322E;fill:none;"></path>
<text x="331.5" y="841" style="">ASContact text</text>
<path d="M323.5 850.5 L615.5 850.5" style="stroke:#33322E;fill:none;"></path>
<text x="331.5" y="872" style="">TollPrice int(10)</text>
<path d="M323.5 881.5 L615.5 881.5" style="stroke:#33322E;fill:none;"></path>
<text x="331.5" y="903" style="">ViewCount int(10)</text>
<path d="M323.5 912.5 L615.5 912.5" style="stroke:#33322E;fill:none;"></path>
<text x="331.5" y="934" style="">CouponLimit int(11)</text>
<path d="M323.5 943.5 L615.5 943.5" style="stroke:#33322E;fill:none;"></path>
<text x="331.5" y="965" style="">ID int(11)</text>
<path d="M323.5 974.5 L615.5 974.5" style="stroke:#33322E;fill:none;"></path>
<text x="331.5" y="996" style="">CreatedAt decimal(13,3)</text>
<path d="M323.5 1005.5 L615.5 1005.5" style="stroke:#33322E;fill:none;"></path>
<text x="331.5" y="1027" style="">UpdatedAt decimal(13,3)</text>
<rect x="512.5" y="1262.5" height="279" width="235" style="stroke:#33322E;fill:#eee8d5;"></rect>
<text x="568.3" y="1284" style="">ProductOption</text>
<path d="M512.5 1293.5 L747.5 1293.5" style="stroke:#33322E;fill:none;"></path>
<text x="520.5" y="1315" style="">Name varchar(45)</text>
<path d="M512.5 1324.5 L747.5 1324.5" style="stroke:#33322E;fill:none;"></path>
<text x="520.5" y="1346" style="">Description text</text>
<path d="M512.5 1355.5 L747.5 1355.5" style="stroke:#33322E;fill:none;"></path>
<text x="520.5" y="1377" style="">AddedCost decimal(10,2)</text>
<path d="M512.5 1386.5 L747.5 1386.5" style="stroke:#33322E;fill:none;"></path>
<text x="520.5" y="1408" style="">Status int(10)</text>
<path d="M512.5 1417.5 L747.5 1417.5" style="stroke:#33322E;fill:none;"></path>
<text x="520.5" y="1439" style="">*ProductID int(11)</text>
<path d="M512.5 1448.5 L747.5 1448.5" style="stroke:#33322E;fill:none;"></path>
<text x="520.5" y="1470" style="">ID int(11)</text>
<path d="M512.5 1479.5 L747.5 1479.5" style="stroke:#33322E;fill:none;"></path>
<text x="520.5" y="1501" style="">CreatedAt decimal(13,3)</text>
<path d="M512.5 1510.5 L747.5 1510.5" style="stroke:#33322E;fill:none;"></path>
<text x="520.5" y="1532" style="">UpdatedAt decimal(13,3)</text>
<rect x="1324.5" y="13.5" height="1054" width="396" style="stroke:#33322E;fill:#eee8d5;"></rect>
<text x="1503.5" y="35" style="">User</text>
<path d="M1324.5 44.5 L1720.5 44.5" style="stroke:#33322E;fill:none;"></path>
<text x="1332.5" y="66" style="">AuthID varchar(45)</text>
<path d="M1324.5 75.5 L1720.5 75.5" style="stroke:#33322E;fill:none;"></path>
<text x="1332.5" y="97" style="">Name varchar(45)</text>
<path d="M1324.5 106.5 L1720.5 106.5" style="stroke:#33322E;fill:none;"></path>
<text x="1332.5" y="128" style="">Nickname varchar(45)</text>
<path d="M1324.5 137.5 L1720.5 137.5" style="stroke:#33322E;fill:none;"></path>
<text x="1332.5" y="159" style="">Email varchar(45)</text>
<path d="M1324.5 168.5 L1720.5 168.5" style="stroke:#33322E;fill:none;"></path>
<text x="1332.5" y="190" style="">Password varchar(45)</text>
<path d="M1324.5 199.5 L1720.5 199.5" style="stroke:#33322E;fill:none;"></path>
<text x="1332.5" y="221" style="">Phone varchar(45)</text>
<path d="M1324.5 230.5 L1720.5 230.5" style="stroke:#33322E;fill:none;"></path>
<text x="1332.5" y="252" style="">Status int(11)</text>
<path d="M1324.5 261.5 L1720.5 261.5" style="stroke:#33322E;fill:none;"></path>
<text x="1332.5" y="283" style="">HashAccount varchar(45)</text>
<path d="M1324.5 292.5 L1720.5 292.5" style="stroke:#33322E;fill:none;"></path>
<text x="1332.5" y="314" style="">TollBalance int(11)</text>
<path d="M1324.5 323.5 L1720.5 323.5" style="stroke:#33322E;fill:none;"></path>
<text x="1332.5" y="345" style="">Flag varchar(45)</text>
<path d="M1324.5 354.5 L1720.5 354.5" style="stroke:#33322E;fill:none;"></path>
<text x="1332.5" y="376" style="">Profile varchar(1000)</text>
<path d="M1324.5 385.5 L1720.5 385.5" style="stroke:#33322E;fill:none;"></path>
<text x="1332.5" y="407" style="">OneSignalPushToken varchar(300)</text>
<path d="M1324.5 416.5 L1720.5 416.5" style="stroke:#33322E;fill:none;"></path>
<text x="1332.5" y="438" style="">OneSignalUserID varchar(300)</text>
<path d="M1324.5 447.5 L1720.5 447.5" style="stroke:#33322E;fill:none;"></path>
<text x="1332.5" y="469" style="">ShareCode varchar(45)</text>
<path d="M1324.5 478.5 L1720.5 478.5" style="stroke:#33322E;fill:none;"></path>
<text x="1332.5" y="500" style="">ShareReward decimal(5,2)</text>
<path d="M1324.5 509.5 L1720.5 509.5" style="stroke:#33322E;fill:none;"></path>
<text x="1332.5" y="531" style="">UnreadEventsLotteryParticipation int(10)</text>
<path d="M1324.5 540.5 L1720.5 540.5" style="stroke:#33322E;fill:none;"></path>
<text x="1332.5" y="562" style="">UnreadEventsLotteryWinner int(10)</text>
<path d="M1324.5 571.5 L1720.5 571.5" style="stroke:#33322E;fill:none;"></path>
<text x="1332.5" y="593" style="">UnreadEventsLotteryLoser int(10)</text>
<path d="M1324.5 602.5 L1720.5 602.5" style="stroke:#33322E;fill:none;"></path>
<text x="1332.5" y="624" style="">UnreadEventsReview int(10)</text>
<path d="M1324.5 633.5 L1720.5 633.5" style="stroke:#33322E;fill:none;"></path>
<text x="1332.5" y="655" style="">UnreadEventsInquiry int(10)</text>
<path d="M1324.5 664.5 L1720.5 664.5" style="stroke:#33322E;fill:none;"></path>
<text x="1332.5" y="686" style="">TutorialDeadline decimal(13,3)</text>
<path d="M1324.5 695.5 L1720.5 695.5" style="stroke:#33322E;fill:none;"></path>
<text x="1332.5" y="717" style="">FirstCouponDeadline decimal(13,3)</text>
<path d="M1324.5 726.5 L1720.5 726.5" style="stroke:#33322E;fill:none;"></path>
<text x="1332.5" y="748" style="">UnreadEventsShopping int(10)</text>
<path d="M1324.5 757.5 L1720.5 757.5" style="stroke:#33322E;fill:none;"></path>
<text x="1332.5" y="779" style="">UnreadEventsCoupon int(10)</text>
<path d="M1324.5 788.5 L1720.5 788.5" style="stroke:#33322E;fill:none;"></path>
<text x="1332.5" y="810" style="">UnreadEventsSharing int(10)</text>
<path d="M1324.5 819.5 L1720.5 819.5" style="stroke:#33322E;fill:none;"></path>
<text x="1332.5" y="841" style="">StripeCustomerKey varchar(45)</text>
<path d="M1324.5 850.5 L1720.5 850.5" style="stroke:#33322E;fill:none;"></path>
<text x="1332.5" y="872" style="">SignInCount int(10)</text>
<path d="M1324.5 881.5 L1720.5 881.5" style="stroke:#33322E;fill:none;"></path>
<text x="1332.5" y="903" style="">EntryPlatform int(10)</text>
<path d="M1324.5 912.5 L1720.5 912.5" style="stroke:#33322E;fill:none;"></path>
<text x="1332.5" y="934" style="">PhoneConfirmed tinyint(1)</text>
<path d="M1324.5 943.5 L1720.5 943.5" style="stroke:#33322E;fill:none;"></path>
<text x="1332.5" y="965" style="">CustomsCode varchar(45)</text>
<path d="M1324.5 974.5 L1720.5 974.5" style="stroke:#33322E;fill:none;"></path>
<text x="1332.5" y="996" style="">ID int(11)</text>
<path d="M1324.5 1005.5 L1720.5 1005.5" style="stroke:#33322E;fill:none;"></path>
<text x="1332.5" y="1027" style="">CreatedAt decimal(13,3)</text>
<path d="M1324.5 1036.5 L1720.5 1036.5" style="stroke:#33322E;fill:none;"></path>
<text x="1332.5" y="1058" style="">UpdatedAt decimal(13,3)</text></svg>
