<svg width="929.75" height="1005" version="1.1" baseProfile="full" xmlns="http://www.w3.org/2000/svg" xmlns:xlink="http://www.w3.org/1999/xlink" xmlns:ev="http://www.w3.org/2001/xml-events" style="font-weight:bold; font-size:12pt; font-family:'Calibri', Helvetica, sans-serif;;stroke-width:3;stroke-linejoin:round;stroke-linecap:round"><text x="377" y="600.5" style="">Parent</text>
<text x="291.8" y="721" style="">Child</text>
<path d="M369 580.5 L347.3 662.5 L347.3 729 L347.3 729 " style="stroke:#33322E;fill:none;"></path>
<text x="500.6" y="600.5" style="">Parent</text>
<text x="497" y="674.5" style="">Child</text>
<path d="M492.6 580.5 L543.5 662.5 L552.5 682.5 L552.5 682.5 " style="stroke:#33322E;fill:none;"></path>
<text x="465.8" y="135.1" style="">Parent</text>
<text x="75.5" y="247" style="">Child</text>
<path d="M457.8 115.1 L131 219.5 L131 255 L131 255 " style="stroke:#33322E;fill:none;"></path>
<text x="481.9" y="142" style="">Parent</text>
<text x="350.5" y="293.5" style="">Child</text>
<path d="M473.9 122 L406 219.5 L406 301.5 L406 301.5 " style="stroke:#33322E;fill:none;"></path>
<text x="514.4" y="142" style="">Parent</text>
<text x="584.5" y="674.5" style="">Child</text>
<path d="M506.4 122 L642.3 219.5 L642.3 662.5 L642.3 662.5 L640 682.5 L640 682.5 " style="stroke:#33322E;fill:none;"></path>
<text x="519.8" y="136.2" style="">Parent</text>
<text x="744.3" y="231.5" style="">Child</text>
<path d="M511.8 116.2 L799.8 219.5 L799.8 239.5 L799.8 239.5 " style="stroke:#33322E;fill:none;"></path>
<rect x="13.5" y="255.5" height="372" width="235" style="stroke:#33322E;fill:#eee8d5;"></rect>
<text x="97.8" y="277" style="">Address</text>
<path d="M13.5 286.5 L248.5 286.5" style="stroke:#33322E;fill:none;"></path>
<text x="21.5" y="308" style="">Category int(11)</text>
<path d="M13.5 317.5 L248.5 317.5" style="stroke:#33322E;fill:none;"></path>
<text x="21.5" y="339" style="">Status int(11)</text>
<path d="M13.5 348.5 L248.5 348.5" style="stroke:#33322E;fill:none;"></path>
<text x="21.5" y="370" style="">Country int(4)</text>
<path d="M13.5 379.5 L248.5 379.5" style="stroke:#33322E;fill:none;"></path>
<text x="21.5" y="401" style="">UserID int(11)</text>
<path d="M13.5 410.5 L248.5 410.5" style="stroke:#33322E;fill:none;"></path>
<text x="21.5" y="432" style="">Street varchar(45)</text>
<path d="M13.5 441.5 L248.5 441.5" style="stroke:#33322E;fill:none;"></path>
<text x="21.5" y="463" style="">City varchar(45)</text>
<path d="M13.5 472.5 L248.5 472.5" style="stroke:#33322E;fill:none;"></path>
<text x="21.5" y="494" style="">Province varchar(45)</text>
<path d="M13.5 503.5 L248.5 503.5" style="stroke:#33322E;fill:none;"></path>
<text x="21.5" y="525" style="">Zipcode varchar(45)</text>
<path d="M13.5 534.5 L248.5 534.5" style="stroke:#33322E;fill:none;"></path>
<text x="21.5" y="556" style="">ID int(11)</text>
<path d="M13.5 565.5 L248.5 565.5" style="stroke:#33322E;fill:none;"></path>
<text x="21.5" y="587" style="">CreatedAt decimal(13,3)</text>
<path d="M13.5 596.5 L248.5 596.5" style="stroke:#33322E;fill:none;"></path>
<text x="21.5" y="618" style="">UpdatedAt decimal(13,3)</text>
<rect x="288.5" y="301.5" height="279" width="235" style="stroke:#33322E;fill:#eee8d5;"></rect>
<text x="382.3" y="323" style="">Board</text>
<path d="M288.5 332.5 L523.5 332.5" style="stroke:#33322E;fill:none;"></path>
<text x="296.5" y="354" style="">UserID int(11)</text>
<path d="M288.5 363.5 L523.5 363.5" style="stroke:#33322E;fill:none;"></path>
<text x="296.5" y="385" style="">Category int(11)</text>
<path d="M288.5 394.5 L523.5 394.5" style="stroke:#33322E;fill:none;"></path>
<text x="296.5" y="416" style="">Status int(11)</text>
<path d="M288.5 425.5 L523.5 425.5" style="stroke:#33322E;fill:none;"></path>
<text x="296.5" y="447" style="">Theme varchar(45)</text>
<path d="M288.5 456.5 L523.5 456.5" style="stroke:#33322E;fill:none;"></path>
<text x="296.5" y="478" style="">Content text</text>
<path d="M288.5 487.5 L523.5 487.5" style="stroke:#33322E;fill:none;"></path>
<text x="296.5" y="509" style="">ID int(11)</text>
<path d="M288.5 518.5 L523.5 518.5" style="stroke:#33322E;fill:none;"></path>
<text x="296.5" y="540" style="">CreatedAt decimal(13,3)</text>
<path d="M288.5 549.5 L523.5 549.5" style="stroke:#33322E;fill:none;"></path>
<text x="296.5" y="571" style="">UpdatedAt decimal(13,3)</text>
<rect x="229.5" y="729.5" height="217" width="235" style="stroke:#33322E;fill:#eee8d5;"></rect>
<text x="299.5" y="751" style="">BoardImage</text>
<path d="M229.5 760.5 L464.5 760.5" style="stroke:#33322E;fill:none;"></path>
<text x="237.5" y="782" style="">ImageURL varchar(250)</text>
<path d="M229.5 791.5 L464.5 791.5" style="stroke:#33322E;fill:none;"></path>
<text x="237.5" y="813" style="">BoardID int(10)</text>
<path d="M229.5 822.5 L464.5 822.5" style="stroke:#33322E;fill:none;"></path>
<text x="237.5" y="844" style="">Status int(10)</text>
<path d="M229.5 853.5 L464.5 853.5" style="stroke:#33322E;fill:none;"></path>
<text x="237.5" y="875" style="">ID int(11)</text>
<path d="M229.5 884.5 L464.5 884.5" style="stroke:#33322E;fill:none;"></path>
<text x="237.5" y="906" style="">CreatedAt decimal(13,3)</text>
<path d="M229.5 915.5 L464.5 915.5" style="stroke:#33322E;fill:none;"></path>
<text x="237.5" y="937" style="">UpdatedAt decimal(13,3)</text>
<rect x="504.5" y="682.5" height="310" width="235" style="stroke:#33322E;fill:#eee8d5;"></rect>
<text x="574.5" y="704" style="">BoardReply</text>
<path d="M504.5 713.5 L739.5 713.5" style="stroke:#33322E;fill:none;"></path>
<text x="512.5" y="735" style="">BoardID int(11)</text>
<path d="M504.5 744.5 L739.5 744.5" style="stroke:#33322E;fill:none;"></path>
<text x="512.5" y="766" style="">UserID int(11)</text>
<path d="M504.5 775.5 L739.5 775.5" style="stroke:#33322E;fill:none;"></path>
<text x="512.5" y="797" style="">Category int(11)</text>
<path d="M504.5 806.5 L739.5 806.5" style="stroke:#33322E;fill:none;"></path>
<text x="512.5" y="828" style="">Status int(11)</text>
<path d="M504.5 837.5 L739.5 837.5" style="stroke:#33322E;fill:none;"></path>
<text x="512.5" y="859" style="">Theme varchar(45)</text>
<path d="M504.5 868.5 L739.5 868.5" style="stroke:#33322E;fill:none;"></path>
<text x="512.5" y="890" style="">Content text</text>
<path d="M504.5 899.5 L739.5 899.5" style="stroke:#33322E;fill:none;"></path>
<text x="512.5" y="921" style="">ID int(11)</text>
<path d="M504.5 930.5 L739.5 930.5" style="stroke:#33322E;fill:none;"></path>
<text x="512.5" y="952" style="">CreatedAt decimal(13,3)</text>
<path d="M504.5 961.5 L739.5 961.5" style="stroke:#33322E;fill:none;"></path>
<text x="512.5" y="983" style="">UpdatedAt decimal(13,3)</text>
<rect x="682.5" y="239.5" height="403" width="235" style="stroke:#33322E;fill:#eee8d5;"></rect>
<text x="781" y="261" style="">Card</text>
<path d="M682.5 270.5 L917.5 270.5" style="stroke:#33322E;fill:none;"></path>
<text x="690.5" y="292" style="">UserID int(11)</text>
<path d="M682.5 301.5 L917.5 301.5" style="stroke:#33322E;fill:none;"></path>
<text x="690.5" y="323" style="">Category int(11)</text>
<path d="M682.5 332.5 L917.5 332.5" style="stroke:#33322E;fill:none;"></path>
<text x="690.5" y="354" style="">BillingKey varchar(45)</text>
<path d="M682.5 363.5 L917.5 363.5" style="stroke:#33322E;fill:none;"></path>
<text x="690.5" y="385" style="">Status int(11)</text>
<path d="M682.5 394.5 L917.5 394.5" style="stroke:#33322E;fill:none;"></path>
<text x="690.5" y="416" style="">LastFour varchar(45)</text>
<path d="M682.5 425.5 L917.5 425.5" style="stroke:#33322E;fill:none;"></path>
<text x="690.5" y="447" style="">CardBrand int(11)</text>
<path d="M682.5 456.5 L917.5 456.5" style="stroke:#33322E;fill:none;"></path>
<text x="690.5" y="478" style="">ExpMonth int(11)</text>
<path d="M682.5 487.5 L917.5 487.5" style="stroke:#33322E;fill:none;"></path>
<text x="690.5" y="509" style="">ExpYear int(11)</text>
<path d="M682.5 518.5 L917.5 518.5" style="stroke:#33322E;fill:none;"></path>
<text x="690.5" y="540" style="">Name varchar(45)</text>
<path d="M682.5 549.5 L917.5 549.5" style="stroke:#33322E;fill:none;"></path>
<text x="690.5" y="571" style="">ID int(11)</text>
<path d="M682.5 580.5 L917.5 580.5" style="stroke:#33322E;fill:none;"></path>
<text x="690.5" y="602" style="">CreatedAt decimal(13,3)</text>
<path d="M682.5 611.5 L917.5 611.5" style="stroke:#33322E;fill:none;"></path>
<text x="690.5" y="633" style="">UpdatedAt decimal(13,3)</text>
<rect x="182.5" y="13.5" height="186" width="235" style="stroke:#33322E;fill:#eee8d5;"></rect>
<text x="214.5" y="35" style="">DeliveryItemOption</text>
<path d="M182.5 44.5 L417.5 44.5" style="stroke:#33322E;fill:none;"></path>
<text x="190.5" y="66" style="">DeliveryItemID int(11)</text>
<path d="M182.5 75.5 L417.5 75.5" style="stroke:#33322E;fill:none;"></path>
<text x="190.5" y="97" style="">ProductOptionID int(11)</text>
<path d="M182.5 106.5 L417.5 106.5" style="stroke:#33322E;fill:none;"></path>
<text x="190.5" y="128" style="">ID int(11)</text>
<path d="M182.5 137.5 L417.5 137.5" style="stroke:#33322E;fill:none;"></path>
<text x="190.5" y="159" style="">CreatedAt decimal(13,3)</text>
<path d="M182.5 168.5 L417.5 168.5" style="stroke:#33322E;fill:none;"></path>
<text x="190.5" y="190" style="">UpdatedAt decimal(13,3)</text>
<rect x="457.5" y="91.5" height="31" width="54" style="stroke:#33322E;fill:#eee8d5;"></rect>
<text x="465.5" y="113" style="">User</text></svg>
