<svg width="1785.5" height="4349" version="1.1" baseProfile="full" xmlns="http://www.w3.org/2000/svg" xmlns:xlink="http://www.w3.org/1999/xlink" xmlns:ev="http://www.w3.org/2001/xml-events" style="font-weight:bold; font-size:12pt; font-family:'Calibri', Helvetica, sans-serif;;stroke-width:3;stroke-linejoin:round;stroke-linecap:round"><path d="M390.1 1743 L347.3 2119.5 L347.3 2325.5 L347.3 2325.5 " style="stroke:#33322E;fill:none;"></path>
<path d="M341.9 2312.2 L347.3 2318.8 L352.6 2312.2 L347.3 2325.5 Z" style="stroke:#33322E;fill:#33322E;"></path>
<path d="M443.2 1743 L543.5 2119.5 L583.4 2279 L583.4 2279 " style="stroke:#33322E;fill:none;"></path>
<path d="M575 2267.4 L581.8 2272.5 L585.4 2264.8 L583.4 2279 Z" style="stroke:#33322E;fill:#33322E;"></path>
<path d="M1436.5 1805 L1436.5 2119.5 L1457 2201.5 L1457 2201.5 " style="stroke:#33322E;fill:none;"></path>
<path d="M1448.6 2189.9 L1455.4 2195 L1459 2187.3 L1457 2201.5 Z" style="stroke:#33322E;fill:#33322E;"></path>
<path d="M1603.5 3791.5 L1603.5 3811.5 L954.3 3937.2 L954.3 3937.2 " style="stroke:#33322E;fill:none;"></path>
<path d="M966.3 3929.4 L960.8 3935.9 L968.4 3939.9 L954.3 3937.2 Z" style="stroke:#33322E;fill:#33322E;"></path>
<path d="M779.8 4110.5 L779.8 4130.5 L833.8 4166.1 L833.8 4166.1 " style="stroke:#33322E;fill:none;"></path>
<path d="M819.7 4163.2 L828.2 4162.4 L825.6 4154.3 L833.8 4166.1 Z" style="stroke:#33322E;fill:#33322E;"></path>
<path d="M941.8 2728.5 L941.8 2748.5 L1434 3143.9 L1434 3143.9 " style="stroke:#33322E;fill:none;"></path>
<path d="M1420.3 3139.7 L1428.8 3139.7 L1426.9 3131.4 L1434 3143.9 Z" style="stroke:#33322E;fill:#33322E;"></path>
<path d="M1515.3 2666.5 L1515.3 2748.5 L1518.6 2768.5 L1518.6 2768.5 " style="stroke:#33322E;fill:none;"></path>
<path d="M1511.1 2756.2 L1517.5 2761.9 L1521.6 2754.5 L1518.6 2768.5 Z" style="stroke:#33322E;fill:#33322E;"></path>
<path d="M805.3 2042.8 L779.8 2119.5 L779.8 3811.5 L779.8 3811.5 L779.8 3831.5 L779.8 3831.5 " style="stroke:#33322E;fill:none;"></path>
<path d="M774.4 3818.2 L779.8 3824.8 L785.1 3818.2 L779.8 3831.5 Z" style="stroke:#33322E;fill:#33322E;"></path>
<path d="M942.1 2099.5 L941.8 2119.5 L941.8 2139.5 L941.8 2139.5 " style="stroke:#33322E;fill:none;"></path>
<path d="M936.4 2126.2 L941.8 2132.8 L947.1 2126.2 L941.8 2139.5 Z" style="stroke:#33322E;fill:#33322E;"></path>
<path d="M1097.3 1882.5 L1221.3 2119.5 L1221.3 2294.5 L1221.3 2294.5 " style="stroke:#33322E;fill:none;"></path>
<path d="M1215.9 2281.2 L1221.3 2287.8 L1226.6 2281.2 L1221.3 2294.5 Z" style="stroke:#33322E;fill:#33322E;"></path>
<path d="M1221.3 2573.5 L1221.3 2748.5 L1221.3 4130.5 L1221.3 4130.5 L1068.8 4194.3 L1068.8 4194.3 " style="stroke:#33322E;fill:none;"></path>
<path d="M1079 4184.3 L1074.9 4191.8 L1083.1 4194.1 L1068.8 4194.3 Z" style="stroke:#33322E;fill:#33322E;"></path>
<path d="M812 663.7 L131 1087.5 L131 1417.5 L131 1417.5 " style="stroke:#33322E;fill:none;"></path>
<path d="M125.7 1404.2 L131 1410.8 L136.3 1404.2 L131 1417.5 Z" style="stroke:#33322E;fill:#33322E;"></path>
<path d="M812 719.8 L406 1087.5 L406 1464 L406 1464 " style="stroke:#33322E;fill:none;"></path>
<path d="M400.7 1450.7 L406 1457.3 L411.3 1450.7 L406 1464 Z" style="stroke:#33322E;fill:#33322E;"></path>
<path d="M812 835 L642.3 1087.5 L642.3 2119.5 L642.3 2119.5 L632.1 2279 L632.1 2279 " style="stroke:#33322E;fill:none;"></path>
<path d="M627.6 2265.4 L632.5 2272.3 L638.3 2266 L632.1 2279 Z" style="stroke:#33322E;fill:#33322E;"></path>
<path d="M1208 794.4 L1436.5 1087.5 L1436.5 1402 L1436.5 1402 " style="stroke:#33322E;fill:none;"></path>
<path d="M1431.2 1388.7 L1436.5 1395.3 L1441.8 1388.7 L1436.5 1402 Z" style="stroke:#33322E;fill:#33322E;"></path>
<path d="M1208 697 L1702.3 1087.5 L1702.3 2748.5 L1702.3 2748.5 L1698.5 2768.5 L1698.5 2768.5 " style="stroke:#33322E;fill:none;"></path>
<path d="M1695.7 2754.4 L1699.8 2761.9 L1706.2 2756.4 L1698.5 2768.5 Z" style="stroke:#33322E;fill:#33322E;"></path>
<path d="M1208 726 L1594 1087.5 L1594 2119.5 L1594 2119.5 L1573.5 2201.5 L1573.5 2201.5 " style="stroke:#33322E;fill:none;"></path>
<path d="M1571.5 2187.3 L1575.1 2195 L1581.9 2189.9 L1573.5 2201.5 Z" style="stroke:#33322E;fill:#33322E;"></path>
<rect x="13.5" y="1417.5" height="372" width="235" style="stroke:#33322E;fill:#eee8d5;"></rect>
<text x="97.8" y="1439" style="">Address</text>
<path d="M13.5 1448.5 L248.5 1448.5" style="stroke:#33322E;fill:none;"></path>
<text x="21.5" y="1470" style="">Category int(11)</text>
<path d="M13.5 1479.5 L248.5 1479.5" style="stroke:#33322E;fill:none;"></path>
<text x="21.5" y="1501" style="">Status int(11)</text>
<path d="M13.5 1510.5 L248.5 1510.5" style="stroke:#33322E;fill:none;"></path>
<text x="21.5" y="1532" style="">Country int(4)</text>
<path d="M13.5 1541.5 L248.5 1541.5" style="stroke:#33322E;fill:none;"></path>
<text x="21.5" y="1563" style="">Street varchar(45)</text>
<path d="M13.5 1572.5 L248.5 1572.5" style="stroke:#33322E;fill:none;"></path>
<text x="21.5" y="1594" style="">City varchar(45)</text>
<path d="M13.5 1603.5 L248.5 1603.5" style="stroke:#33322E;fill:none;"></path>
<text x="21.5" y="1625" style="">Province varchar(45)</text>
<path d="M13.5 1634.5 L248.5 1634.5" style="stroke:#33322E;fill:none;"></path>
<text x="21.5" y="1656" style="">Zipcode varchar(45)</text>
<path d="M13.5 1665.5 L248.5 1665.5" style="stroke:#33322E;fill:none;"></path>
<text x="21.5" y="1687" style="">UserID int(11)</text>
<path d="M13.5 1696.5 L248.5 1696.5" style="stroke:#33322E;fill:none;"></path>
<text x="21.5" y="1718" style="">ID int(11)</text>
<path d="M13.5 1727.5 L248.5 1727.5" style="stroke:#33322E;fill:none;"></path>
<text x="21.5" y="1749" style="">CreatedAt decimal(13,3)</text>
<path d="M13.5 1758.5 L248.5 1758.5" style="stroke:#33322E;fill:none;"></path>
<text x="21.5" y="1780" style="">UpdatedAt decimal(13,3)</text>
<rect x="288.5" y="1464.5" height="279" width="235" style="stroke:#33322E;fill:#eee8d5;"></rect>
<text x="382.3" y="1486" style="">Board</text>
<path d="M288.5 1495.5 L523.5 1495.5" style="stroke:#33322E;fill:none;"></path>
<text x="296.5" y="1517" style="">Category int(11)</text>
<path d="M288.5 1526.5 L523.5 1526.5" style="stroke:#33322E;fill:none;"></path>
<text x="296.5" y="1548" style="">Status int(11)</text>
<path d="M288.5 1557.5 L523.5 1557.5" style="stroke:#33322E;fill:none;"></path>
<text x="296.5" y="1579" style="">Theme varchar(45)</text>
<path d="M288.5 1588.5 L523.5 1588.5" style="stroke:#33322E;fill:none;"></path>
<text x="296.5" y="1610" style="">Content text</text>
<path d="M288.5 1619.5 L523.5 1619.5" style="stroke:#33322E;fill:none;"></path>
<text x="296.5" y="1641" style="">UserID int(11)</text>
<path d="M288.5 1650.5 L523.5 1650.5" style="stroke:#33322E;fill:none;"></path>
<text x="296.5" y="1672" style="">ID int(11)</text>
<path d="M288.5 1681.5 L523.5 1681.5" style="stroke:#33322E;fill:none;"></path>
<text x="296.5" y="1703" style="">CreatedAt decimal(13,3)</text>
<path d="M288.5 1712.5 L523.5 1712.5" style="stroke:#33322E;fill:none;"></path>
<text x="296.5" y="1734" style="">UpdatedAt decimal(13,3)</text>
<rect x="229.5" y="2325.5" height="217" width="235" style="stroke:#33322E;fill:#eee8d5;"></rect>
<text x="299.5" y="2347" style="">BoardImage</text>
<path d="M229.5 2356.5 L464.5 2356.5" style="stroke:#33322E;fill:none;"></path>
<text x="237.5" y="2378" style="">ImageURL varchar(250)</text>
<path d="M229.5 2387.5 L464.5 2387.5" style="stroke:#33322E;fill:none;"></path>
<text x="237.5" y="2409" style="">Status int(10)</text>
<path d="M229.5 2418.5 L464.5 2418.5" style="stroke:#33322E;fill:none;"></path>
<text x="237.5" y="2440" style="">BoardID int(10)</text>
<path d="M229.5 2449.5 L464.5 2449.5" style="stroke:#33322E;fill:none;"></path>
<text x="237.5" y="2471" style="">ID int(11)</text>
<path d="M229.5 2480.5 L464.5 2480.5" style="stroke:#33322E;fill:none;"></path>
<text x="237.5" y="2502" style="">CreatedAt decimal(13,3)</text>
<path d="M229.5 2511.5 L464.5 2511.5" style="stroke:#33322E;fill:none;"></path>
<text x="237.5" y="2533" style="">UpdatedAt decimal(13,3)</text>
<rect x="504.5" y="2279.5" height="310" width="235" style="stroke:#33322E;fill:#eee8d5;"></rect>
<text x="574.5" y="2301" style="">BoardReply</text>
<path d="M504.5 2310.5 L739.5 2310.5" style="stroke:#33322E;fill:none;"></path>
<text x="512.5" y="2332" style="">Category int(11)</text>
<path d="M504.5 2341.5 L739.5 2341.5" style="stroke:#33322E;fill:none;"></path>
<text x="512.5" y="2363" style="">Status int(11)</text>
<path d="M504.5 2372.5 L739.5 2372.5" style="stroke:#33322E;fill:none;"></path>
<text x="512.5" y="2394" style="">Theme varchar(45)</text>
<path d="M504.5 2403.5 L739.5 2403.5" style="stroke:#33322E;fill:none;"></path>
<text x="512.5" y="2425" style="">Content text</text>
<path d="M504.5 2434.5 L739.5 2434.5" style="stroke:#33322E;fill:none;"></path>
<text x="512.5" y="2456" style="">BoardID int(11)</text>
<path d="M504.5 2465.5 L739.5 2465.5" style="stroke:#33322E;fill:none;"></path>
<text x="512.5" y="2487" style="">UserID int(11)</text>
<path d="M504.5 2496.5 L739.5 2496.5" style="stroke:#33322E;fill:none;"></path>
<text x="512.5" y="2518" style="">ID int(11)</text>
<path d="M504.5 2527.5 L739.5 2527.5" style="stroke:#33322E;fill:none;"></path>
<text x="512.5" y="2549" style="">CreatedAt decimal(13,3)</text>
<path d="M504.5 2558.5 L739.5 2558.5" style="stroke:#33322E;fill:none;"></path>
<text x="512.5" y="2580" style="">UpdatedAt decimal(13,3)</text>
<rect x="1319.5" y="1402.5" height="403" width="235" style="stroke:#33322E;fill:#eee8d5;"></rect>
<text x="1418" y="1424" style="">Card</text>
<path d="M1319.5 1433.5 L1554.5 1433.5" style="stroke:#33322E;fill:none;"></path>
<text x="1327.5" y="1455" style="">Category int(11)</text>
<path d="M1319.5 1464.5 L1554.5 1464.5" style="stroke:#33322E;fill:none;"></path>
<text x="1327.5" y="1486" style="">BillingKey varchar(45)</text>
<path d="M1319.5 1495.5 L1554.5 1495.5" style="stroke:#33322E;fill:none;"></path>
<text x="1327.5" y="1517" style="">Status int(11)</text>
<path d="M1319.5 1526.5 L1554.5 1526.5" style="stroke:#33322E;fill:none;"></path>
<text x="1327.5" y="1548" style="">LastFour varchar(45)</text>
<path d="M1319.5 1557.5 L1554.5 1557.5" style="stroke:#33322E;fill:none;"></path>
<text x="1327.5" y="1579" style="">CardBrand int(11)</text>
<path d="M1319.5 1588.5 L1554.5 1588.5" style="stroke:#33322E;fill:none;"></path>
<text x="1327.5" y="1610" style="">ExpMonth int(11)</text>
<path d="M1319.5 1619.5 L1554.5 1619.5" style="stroke:#33322E;fill:none;"></path>
<text x="1327.5" y="1641" style="">ExpYear int(11)</text>
<path d="M1319.5 1650.5 L1554.5 1650.5" style="stroke:#33322E;fill:none;"></path>
<text x="1327.5" y="1672" style="">Name varchar(45)</text>
<path d="M1319.5 1681.5 L1554.5 1681.5" style="stroke:#33322E;fill:none;"></path>
<text x="1327.5" y="1703" style="">UserID int(11)</text>
<path d="M1319.5 1712.5 L1554.5 1712.5" style="stroke:#33322E;fill:none;"></path>
<text x="1327.5" y="1734" style="">ID int(11)</text>
<path d="M1319.5 1743.5 L1554.5 1743.5" style="stroke:#33322E;fill:none;"></path>
<text x="1327.5" y="1765" style="">CreatedAt decimal(13,3)</text>
<path d="M1319.5 1774.5 L1554.5 1774.5" style="stroke:#33322E;fill:none;"></path>
<text x="1327.5" y="1796" style="">UpdatedAt decimal(13,3)</text>
<rect x="1434.5" y="2768.5" height="1023" width="339" style="stroke:#33322E;fill:#eee8d5;"></rect>
<text x="1542.3" y="2790" style="">DeliveryGroup</text>
<path d="M1434.5 2799.5 L1773.5 2799.5" style="stroke:#33322E;fill:none;"></path>
<text x="1442.5" y="2821" style="">DeliveryNumber varchar(150)</text>
<path d="M1434.5 2830.5 L1773.5 2830.5" style="stroke:#33322E;fill:none;"></path>
<text x="1442.5" y="2852" style="">DeliveryCompany varchar(150)</text>
<path d="M1434.5 2861.5 L1773.5 2861.5" style="stroke:#33322E;fill:none;"></path>
<text x="1442.5" y="2883" style="">DeliveryHistory text</text>
<path d="M1434.5 2892.5 L1773.5 2892.5" style="stroke:#33322E;fill:none;"></path>
<text x="1442.5" y="2914" style="">DeliveryRequest text</text>
<path d="M1434.5 2923.5 L1773.5 2923.5" style="stroke:#33322E;fill:none;"></path>
<text x="1442.5" y="2945" style="">RecipientName varchar(45)</text>
<path d="M1434.5 2954.5 L1773.5 2954.5" style="stroke:#33322E;fill:none;"></path>
<text x="1442.5" y="2976" style="">RecipientPhone varchar(45)</text>
<path d="M1434.5 2985.5 L1773.5 2985.5" style="stroke:#33322E;fill:none;"></path>
<text x="1442.5" y="3007" style="">Review text</text>
<path d="M1434.5 3016.5 L1773.5 3016.5" style="stroke:#33322E;fill:none;"></path>
<text x="1442.5" y="3038" style="">ShippingStreet varchar(200)</text>
<path d="M1434.5 3047.5 L1773.5 3047.5" style="stroke:#33322E;fill:none;"></path>
<text x="1442.5" y="3069" style="">ShippingCity varchar(45)</text>
<path d="M1434.5 3078.5 L1773.5 3078.5" style="stroke:#33322E;fill:none;"></path>
<text x="1442.5" y="3100" style="">ShippingProvince varchar(45)</text>
<path d="M1434.5 3109.5 L1773.5 3109.5" style="stroke:#33322E;fill:none;"></path>
<text x="1442.5" y="3131" style="">ShippingZipcode varchar(45)</text>
<path d="M1434.5 3140.5 L1773.5 3140.5" style="stroke:#33322E;fill:none;"></path>
<text x="1442.5" y="3162" style="">CancellationReason text</text>
<path d="M1434.5 3171.5 L1773.5 3171.5" style="stroke:#33322E;fill:none;"></path>
<text x="1442.5" y="3193" style="">Rating decimal(5,2)</text>
<path d="M1434.5 3202.5 L1773.5 3202.5" style="stroke:#33322E;fill:none;"></path>
<text x="1442.5" y="3224" style="">DeliveryDate decimal(13,3)</text>
<path d="M1434.5 3233.5 L1773.5 3233.5" style="stroke:#33322E;fill:none;"></path>
<text x="1442.5" y="3255" style="">FulfillmentDate decimal(13,3)</text>
<path d="M1434.5 3264.5 L1773.5 3264.5" style="stroke:#33322E;fill:none;"></path>
<text x="1442.5" y="3286" style="">Status int(10)</text>
<path d="M1434.5 3295.5 L1773.5 3295.5" style="stroke:#33322E;fill:none;"></path>
<text x="1442.5" y="3317" style="">CancellationType int(10)</text>
<path d="M1434.5 3326.5 L1773.5 3326.5" style="stroke:#33322E;fill:none;"></path>
<text x="1442.5" y="3348" style="">TollPenalty int(10)</text>
<path d="M1434.5 3357.5 L1773.5 3357.5" style="stroke:#33322E;fill:none;"></path>
<text x="1442.5" y="3379" style="">DeliveryStatus int(10)</text>
<path d="M1434.5 3388.5 L1773.5 3388.5" style="stroke:#33322E;fill:none;"></path>
<text x="1442.5" y="3410" style="">Category int(10)</text>
<path d="M1434.5 3419.5 L1773.5 3419.5" style="stroke:#33322E;fill:none;"></path>
<text x="1442.5" y="3441" style="">ShippingInfoDeadline decimal(13,3)</text>
<path d="M1434.5 3450.5 L1773.5 3450.5" style="stroke:#33322E;fill:none;"></path>
<text x="1442.5" y="3472" style="">TollDiscount int(10)</text>
<path d="M1434.5 3481.5 L1773.5 3481.5" style="stroke:#33322E;fill:none;"></path>
<text x="1442.5" y="3503" style="">TollPayment int(10)</text>
<path d="M1434.5 3512.5 L1773.5 3512.5" style="stroke:#33322E;fill:none;"></path>
<text x="1442.5" y="3534" style="">PreviousTollAmount int(10)</text>
<path d="M1434.5 3543.5 L1773.5 3543.5" style="stroke:#33322E;fill:none;"></path>
<text x="1442.5" y="3565" style="">DeliveryFee decimal(10,2)</text>
<path d="M1434.5 3574.5 L1773.5 3574.5" style="stroke:#33322E;fill:none;"></path>
<text x="1442.5" y="3596" style="">ShippingCountry int(4)</text>
<path d="M1434.5 3605.5 L1773.5 3605.5" style="stroke:#33322E;fill:none;"></path>
<text x="1442.5" y="3627" style="">LotteryID int(10)</text>
<path d="M1434.5 3636.5 L1773.5 3636.5" style="stroke:#33322E;fill:none;"></path>
<text x="1442.5" y="3658" style="">PaymentID int(10)</text>
<path d="M1434.5 3667.5 L1773.5 3667.5" style="stroke:#33322E;fill:none;"></path>
<text x="1442.5" y="3689" style="">UserID int(10)</text>
<path d="M1434.5 3698.5 L1773.5 3698.5" style="stroke:#33322E;fill:none;"></path>
<text x="1442.5" y="3720" style="">ID int(11)</text>
<path d="M1434.5 3729.5 L1773.5 3729.5" style="stroke:#33322E;fill:none;"></path>
<text x="1442.5" y="3751" style="">CreatedAt decimal(13,3)</text>
<path d="M1434.5 3760.5 L1773.5 3760.5" style="stroke:#33322E;fill:none;"></path>
<text x="1442.5" y="3782" style="">UpdatedAt decimal(13,3)</text>
<rect x="605.5" y="3831.5" height="279" width="349" style="stroke:#33322E;fill:#eee8d5;"></rect>
<text x="723" y="3853" style="">DeliveryItem</text>
<path d="M605.5 3862.5 L954.5 3862.5" style="stroke:#33322E;fill:none;"></path>
<text x="613.5" y="3884" style="">Quantity int(10)</text>
<path d="M605.5 3893.5 L954.5 3893.5" style="stroke:#33322E;fill:none;"></path>
<text x="613.5" y="3915" style="">ProductReviewDeadline decimal(13,3)</text>
<path d="M605.5 3924.5 L954.5 3924.5" style="stroke:#33322E;fill:none;"></path>
<text x="613.5" y="3946" style="">LotteryReviewDeadline decimal(13,3)</text>
<path d="M605.5 3955.5 L954.5 3955.5" style="stroke:#33322E;fill:none;"></path>
<text x="613.5" y="3977" style="">ProductID int(10)</text>
<path d="M605.5 3986.5 L954.5 3986.5" style="stroke:#33322E;fill:none;"></path>
<text x="613.5" y="4008" style="">DeliveryGroupID int(10)</text>
<path d="M605.5 4017.5 L954.5 4017.5" style="stroke:#33322E;fill:none;"></path>
<text x="613.5" y="4039" style="">ID int(11)</text>
<path d="M605.5 4048.5 L954.5 4048.5" style="stroke:#33322E;fill:none;"></path>
<text x="613.5" y="4070" style="">CreatedAt decimal(13,3)</text>
<path d="M605.5 4079.5 L954.5 4079.5" style="stroke:#33322E;fill:none;"></path>
<text x="613.5" y="4101" style="">UpdatedAt decimal(13,3)</text>
<rect x="833.5" y="4150.5" height="186" width="235" style="stroke:#33322E;fill:#eee8d5;"></rect>
<text x="865.5" y="4172" style="">DeliveryItemOption</text>
<path d="M833.5 4181.5 L1068.5 4181.5" style="stroke:#33322E;fill:none;"></path>
<text x="841.5" y="4203" style="">DeliveryItemID int(11)</text>
<path d="M833.5 4212.5 L1068.5 4212.5" style="stroke:#33322E;fill:none;"></path>
<text x="841.5" y="4234" style="">ProductOptionID int(11)</text>
<path d="M833.5 4243.5 L1068.5 4243.5" style="stroke:#33322E;fill:none;"></path>
<text x="841.5" y="4265" style="">ID int(11)</text>
<path d="M833.5 4274.5 L1068.5 4274.5" style="stroke:#33322E;fill:none;"></path>
<text x="841.5" y="4296" style="">CreatedAt decimal(13,3)</text>
<path d="M833.5 4305.5 L1068.5 4305.5" style="stroke:#33322E;fill:none;"></path>
<text x="841.5" y="4327" style="">UpdatedAt decimal(13,3)</text>
<rect x="819.5" y="2139.5" height="589" width="244" style="stroke:#33322E;fill:#eee8d5;"></rect>
<text x="908.3" y="2161" style="">Lottery</text>
<path d="M819.5 2170.5 L1063.5 2170.5" style="stroke:#33322E;fill:none;"></path>
<text x="827.5" y="2192" style="">Status int(11)</text>
<path d="M819.5 2201.5 L1063.5 2201.5" style="stroke:#33322E;fill:none;"></path>
<text x="827.5" y="2223" style="">StartsAt decimal(13,3)</text>
<path d="M819.5 2232.5 L1063.5 2232.5" style="stroke:#33322E;fill:none;"></path>
<text x="827.5" y="2254" style="">EndsAt decimal(13,3)</text>
<path d="M819.5 2263.5 L1063.5 2263.5" style="stroke:#33322E;fill:none;"></path>
<text x="827.5" y="2285" style="">MinToll int(11)</text>
<path d="M819.5 2294.5 L1063.5 2294.5" style="stroke:#33322E;fill:none;"></path>
<text x="827.5" y="2316" style="">MaxToll int(11)</text>
<path d="M819.5 2325.5 L1063.5 2325.5" style="stroke:#33322E;fill:none;"></path>
<text x="827.5" y="2347" style="">MinParticipants int(11)</text>
<path d="M819.5 2356.5 L1063.5 2356.5" style="stroke:#33322E;fill:none;"></path>
<text x="827.5" y="2378" style="">MaxParticipants int(11)</text>
<path d="M819.5 2387.5 L1063.5 2387.5" style="stroke:#33322E;fill:none;"></path>
<text x="827.5" y="2409" style="">Quantity int(10)</text>
<path d="M819.5 2418.5 L1063.5 2418.5" style="stroke:#33322E;fill:none;"></path>
<text x="827.5" y="2440" style="">WinnerCount int(10)</text>
<path d="M819.5 2449.5 L1063.5 2449.5" style="stroke:#33322E;fill:none;"></path>
<text x="827.5" y="2471" style="">TollPrice int(10)</text>
<path d="M819.5 2480.5 L1063.5 2480.5" style="stroke:#33322E;fill:none;"></path>
<text x="827.5" y="2502" style="">ViewCount int(10)</text>
<path d="M819.5 2511.5 L1063.5 2511.5" style="stroke:#33322E;fill:none;"></path>
<text x="827.5" y="2533" style="">ParticipantCount int(10)</text>
<path d="M819.5 2542.5 L1063.5 2542.5" style="stroke:#33322E;fill:none;"></path>
<text x="827.5" y="2564" style="">TollAmount int(10)</text>
<path d="M819.5 2573.5 L1063.5 2573.5" style="stroke:#33322E;fill:none;"></path>
<text x="827.5" y="2595" style="">WinningTickets text</text>
<path d="M819.5 2604.5 L1063.5 2604.5" style="stroke:#33322E;fill:none;"></path>
<text x="827.5" y="2626" style="">ProductID int(11)</text>
<path d="M819.5 2635.5 L1063.5 2635.5" style="stroke:#33322E;fill:none;"></path>
<text x="827.5" y="2657" style="">ID int(11)</text>
<path d="M819.5 2666.5 L1063.5 2666.5" style="stroke:#33322E;fill:none;"></path>
<text x="827.5" y="2688" style="">CreatedAt decimal(13,3)</text>
<path d="M819.5 2697.5 L1063.5 2697.5" style="stroke:#33322E;fill:none;"></path>
<text x="827.5" y="2719" style="">UpdatedAt decimal(13,3)</text>
<rect x="1378.5" y="2201.5" height="465" width="273" style="stroke:#33322E;fill:#eee8d5;"></rect>
<text x="1481.8" y="2223" style="">Payment</text>
<path d="M1378.5 2232.5 L1651.5 2232.5" style="stroke:#33322E;fill:none;"></path>
<text x="1386.5" y="2254" style="">Category int(11)</text>
<path d="M1378.5 2263.5 L1651.5 2263.5" style="stroke:#33322E;fill:none;"></path>
<text x="1386.5" y="2285" style="">Amount decimal(10,2)</text>
<path d="M1378.5 2294.5 L1651.5 2294.5" style="stroke:#33322E;fill:none;"></path>
<text x="1386.5" y="2316" style="">TollAmount int(11)</text>
<path d="M1378.5 2325.5 L1651.5 2325.5" style="stroke:#33322E;fill:none;"></path>
<text x="1386.5" y="2347" style="">PaymentMethod int(11)</text>
<path d="M1378.5 2356.5 L1651.5 2356.5" style="stroke:#33322E;fill:none;"></path>
<text x="1386.5" y="2378" style="">Status int(11)</text>
<path d="M1378.5 2387.5 L1651.5 2387.5" style="stroke:#33322E;fill:none;"></path>
<text x="1386.5" y="2409" style="">Description text</text>
<path d="M1378.5 2418.5 L1651.5 2418.5" style="stroke:#33322E;fill:none;"></path>
<text x="1386.5" y="2440" style="">VBankName varchar(45)</text>
<path d="M1378.5 2449.5 L1651.5 2449.5" style="stroke:#33322E;fill:none;"></path>
<text x="1386.5" y="2471" style="">VBankNumber varchar(45)</text>
<path d="M1378.5 2480.5 L1651.5 2480.5" style="stroke:#33322E;fill:none;"></path>
<text x="1386.5" y="2502" style="">TransactionKey varchar(255)</text>
<path d="M1378.5 2511.5 L1651.5 2511.5" style="stroke:#33322E;fill:none;"></path>
<text x="1386.5" y="2533" style="">CardID int(11)</text>
<path d="M1378.5 2542.5 L1651.5 2542.5" style="stroke:#33322E;fill:none;"></path>
<text x="1386.5" y="2564" style="">UserID int(11)</text>
<path d="M1378.5 2573.5 L1651.5 2573.5" style="stroke:#33322E;fill:none;"></path>
<text x="1386.5" y="2595" style="">ID int(11)</text>
<path d="M1378.5 2604.5 L1651.5 2604.5" style="stroke:#33322E;fill:none;"></path>
<text x="1386.5" y="2626" style="">CreatedAt decimal(13,3)</text>
<path d="M1378.5 2635.5 L1651.5 2635.5" style="stroke:#33322E;fill:none;"></path>
<text x="1386.5" y="2657" style="">UpdatedAt decimal(13,3)</text>
<rect x="805.5" y="1107.5" height="992" width="292" style="stroke:#33322E;fill:#eee8d5;"></rect>
<text x="918.3" y="1129" style="">Product</text>
<path d="M805.5 1138.5 L1097.5 1138.5" style="stroke:#33322E;fill:none;"></path>
<text x="813.5" y="1160" style="">Name varchar(45)</text>
<path d="M805.5 1169.5 L1097.5 1169.5" style="stroke:#33322E;fill:none;"></path>
<text x="813.5" y="1191" style="">Description text</text>
<path d="M805.5 1200.5 L1097.5 1200.5" style="stroke:#33322E;fill:none;"></path>
<text x="813.5" y="1222" style="">Status int(11)</text>
<path d="M805.5 1231.5 L1097.5 1231.5" style="stroke:#33322E;fill:none;"></path>
<text x="813.5" y="1253" style="">Position int(11)</text>
<path d="M805.5 1262.5 L1097.5 1262.5" style="stroke:#33322E;fill:none;"></path>
<text x="813.5" y="1284" style="">Category int(11)</text>
<path d="M805.5 1293.5 L1097.5 1293.5" style="stroke:#33322E;fill:none;"></path>
<text x="813.5" y="1315" style="">DeliveryMethod int(11)</text>
<path d="M805.5 1324.5 L1097.5 1324.5" style="stroke:#33322E;fill:none;"></path>
<text x="813.5" y="1346" style="">MaxDiscount decimal(10,2)</text>
<path d="M805.5 1355.5 L1097.5 1355.5" style="stroke:#33322E;fill:none;"></path>
<text x="813.5" y="1377" style="">SourcingOrigin text</text>
<path d="M805.5 1386.5 L1097.5 1386.5" style="stroke:#33322E;fill:none;"></path>
<text x="813.5" y="1408" style="">Thumbnail text</text>
<path d="M805.5 1417.5 L1097.5 1417.5" style="stroke:#33322E;fill:none;"></path>
<text x="813.5" y="1439" style="">ImageURL text</text>
<path d="M805.5 1448.5 L1097.5 1448.5" style="stroke:#33322E;fill:none;"></path>
<text x="813.5" y="1470" style="">Stock int(11)</text>
<path d="M805.5 1479.5 L1097.5 1479.5" style="stroke:#33322E;fill:none;"></path>
<text x="813.5" y="1501" style="">Merchant varchar(45)</text>
<path d="M805.5 1510.5 L1097.5 1510.5" style="stroke:#33322E;fill:none;"></path>
<text x="813.5" y="1532" style="">Domestic int(11)</text>
<path d="M805.5 1541.5 L1097.5 1541.5" style="stroke:#33322E;fill:none;"></path>
<text x="813.5" y="1563" style="">ProductionPrice decimal(10,2)</text>
<path d="M805.5 1572.5 L1097.5 1572.5" style="stroke:#33322E;fill:none;"></path>
<text x="813.5" y="1594" style="">SellPrice decimal(10,2)</text>
<path d="M805.5 1603.5 L1097.5 1603.5" style="stroke:#33322E;fill:none;"></path>
<text x="813.5" y="1625" style="">FakePrice decimal(10,2)</text>
<path d="M805.5 1634.5 L1097.5 1634.5" style="stroke:#33322E;fill:none;"></path>
<text x="813.5" y="1656" style="">MaxSalePrice decimal(10,2)</text>
<path d="M805.5 1665.5 L1097.5 1665.5" style="stroke:#33322E;fill:none;"></path>
<text x="813.5" y="1687" style="">Color int(10)</text>
<path d="M805.5 1696.5 L1097.5 1696.5" style="stroke:#33322E;fill:none;"></path>
<text x="813.5" y="1718" style="">Width decimal(10,2)</text>
<path d="M805.5 1727.5 L1097.5 1727.5" style="stroke:#33322E;fill:none;"></path>
<text x="813.5" y="1749" style="">Length decimal(10,2)</text>
<path d="M805.5 1758.5 L1097.5 1758.5" style="stroke:#33322E;fill:none;"></path>
<text x="813.5" y="1780" style="">Height decimal(10,2)</text>
<path d="M805.5 1789.5 L1097.5 1789.5" style="stroke:#33322E;fill:none;"></path>
<text x="813.5" y="1811" style="">SourcingCountry int(10)</text>
<path d="M805.5 1820.5 L1097.5 1820.5" style="stroke:#33322E;fill:none;"></path>
<text x="813.5" y="1842" style="">Handling text</text>
<path d="M805.5 1851.5 L1097.5 1851.5" style="stroke:#33322E;fill:none;"></path>
<text x="813.5" y="1873" style="">QualityAssurance text</text>
<path d="M805.5 1882.5 L1097.5 1882.5" style="stroke:#33322E;fill:none;"></path>
<text x="813.5" y="1904" style="">ASContact text</text>
<path d="M805.5 1913.5 L1097.5 1913.5" style="stroke:#33322E;fill:none;"></path>
<text x="813.5" y="1935" style="">TollPrice int(10)</text>
<path d="M805.5 1944.5 L1097.5 1944.5" style="stroke:#33322E;fill:none;"></path>
<text x="813.5" y="1966" style="">ViewCount int(10)</text>
<path d="M805.5 1975.5 L1097.5 1975.5" style="stroke:#33322E;fill:none;"></path>
<text x="813.5" y="1997" style="">CouponLimit int(11)</text>
<path d="M805.5 2006.5 L1097.5 2006.5" style="stroke:#33322E;fill:none;"></path>
<text x="813.5" y="2028" style="">ID int(11)</text>
<path d="M805.5 2037.5 L1097.5 2037.5" style="stroke:#33322E;fill:none;"></path>
<text x="813.5" y="2059" style="">CreatedAt decimal(13,3)</text>
<path d="M805.5 2068.5 L1097.5 2068.5" style="stroke:#33322E;fill:none;"></path>
<text x="813.5" y="2090" style="">UpdatedAt decimal(13,3)</text>
<rect x="1103.5" y="2294.5" height="279" width="235" style="stroke:#33322E;fill:#eee8d5;"></rect>
<text x="1159.3" y="2316" style="">ProductOption</text>
<path d="M1103.5 2325.5 L1338.5 2325.5" style="stroke:#33322E;fill:none;"></path>
<text x="1111.5" y="2347" style="">Name varchar(45)</text>
<path d="M1103.5 2356.5 L1338.5 2356.5" style="stroke:#33322E;fill:none;"></path>
<text x="1111.5" y="2378" style="">Description text</text>
<path d="M1103.5 2387.5 L1338.5 2387.5" style="stroke:#33322E;fill:none;"></path>
<text x="1111.5" y="2409" style="">AddedCost decimal(10,2)</text>
<path d="M1103.5 2418.5 L1338.5 2418.5" style="stroke:#33322E;fill:none;"></path>
<text x="1111.5" y="2440" style="">Status int(10)</text>
<path d="M1103.5 2449.5 L1338.5 2449.5" style="stroke:#33322E;fill:none;"></path>
<text x="1111.5" y="2471" style="">ProductID int(11)</text>
<path d="M1103.5 2480.5 L1338.5 2480.5" style="stroke:#33322E;fill:none;"></path>
<text x="1111.5" y="2502" style="">ID int(11)</text>
<path d="M1103.5 2511.5 L1338.5 2511.5" style="stroke:#33322E;fill:none;"></path>
<text x="1111.5" y="2533" style="">CreatedAt decimal(13,3)</text>
<path d="M1103.5 2542.5 L1338.5 2542.5" style="stroke:#33322E;fill:none;"></path>
<text x="1111.5" y="2564" style="">UpdatedAt decimal(13,3)</text>
<rect x="812.5" y="13.5" height="1054" width="396" style="stroke:#33322E;fill:#eee8d5;"></rect>
<text x="991.5" y="35" style="">User</text>
<path d="M812.5 44.5 L1208.5 44.5" style="stroke:#33322E;fill:none;"></path>
<text x="820.5" y="66" style="">AuthID varchar(45)</text>
<path d="M812.5 75.5 L1208.5 75.5" style="stroke:#33322E;fill:none;"></path>
<text x="820.5" y="97" style="">Name varchar(45)</text>
<path d="M812.5 106.5 L1208.5 106.5" style="stroke:#33322E;fill:none;"></path>
<text x="820.5" y="128" style="">Nickname varchar(45)</text>
<path d="M812.5 137.5 L1208.5 137.5" style="stroke:#33322E;fill:none;"></path>
<text x="820.5" y="159" style="">Email varchar(45)</text>
<path d="M812.5 168.5 L1208.5 168.5" style="stroke:#33322E;fill:none;"></path>
<text x="820.5" y="190" style="">Password varchar(45)</text>
<path d="M812.5 199.5 L1208.5 199.5" style="stroke:#33322E;fill:none;"></path>
<text x="820.5" y="221" style="">Phone varchar(45)</text>
<path d="M812.5 230.5 L1208.5 230.5" style="stroke:#33322E;fill:none;"></path>
<text x="820.5" y="252" style="">Status int(11)</text>
<path d="M812.5 261.5 L1208.5 261.5" style="stroke:#33322E;fill:none;"></path>
<text x="820.5" y="283" style="">HashAccount varchar(45)</text>
<path d="M812.5 292.5 L1208.5 292.5" style="stroke:#33322E;fill:none;"></path>
<text x="820.5" y="314" style="">TollBalance int(11)</text>
<path d="M812.5 323.5 L1208.5 323.5" style="stroke:#33322E;fill:none;"></path>
<text x="820.5" y="345" style="">Flag varchar(45)</text>
<path d="M812.5 354.5 L1208.5 354.5" style="stroke:#33322E;fill:none;"></path>
<text x="820.5" y="376" style="">Profile varchar(1000)</text>
<path d="M812.5 385.5 L1208.5 385.5" style="stroke:#33322E;fill:none;"></path>
<text x="820.5" y="407" style="">OneSignalPushToken varchar(300)</text>
<path d="M812.5 416.5 L1208.5 416.5" style="stroke:#33322E;fill:none;"></path>
<text x="820.5" y="438" style="">OneSignalUserID varchar(300)</text>
<path d="M812.5 447.5 L1208.5 447.5" style="stroke:#33322E;fill:none;"></path>
<text x="820.5" y="469" style="">ShareCode varchar(45)</text>
<path d="M812.5 478.5 L1208.5 478.5" style="stroke:#33322E;fill:none;"></path>
<text x="820.5" y="500" style="">ShareReward decimal(5,2)</text>
<path d="M812.5 509.5 L1208.5 509.5" style="stroke:#33322E;fill:none;"></path>
<text x="820.5" y="531" style="">UnreadEventsLotteryParticipation int(10)</text>
<path d="M812.5 540.5 L1208.5 540.5" style="stroke:#33322E;fill:none;"></path>
<text x="820.5" y="562" style="">UnreadEventsLotteryWinner int(10)</text>
<path d="M812.5 571.5 L1208.5 571.5" style="stroke:#33322E;fill:none;"></path>
<text x="820.5" y="593" style="">UnreadEventsLotteryLoser int(10)</text>
<path d="M812.5 602.5 L1208.5 602.5" style="stroke:#33322E;fill:none;"></path>
<text x="820.5" y="624" style="">UnreadEventsReview int(10)</text>
<path d="M812.5 633.5 L1208.5 633.5" style="stroke:#33322E;fill:none;"></path>
<text x="820.5" y="655" style="">UnreadEventsInquiry int(10)</text>
<path d="M812.5 664.5 L1208.5 664.5" style="stroke:#33322E;fill:none;"></path>
<text x="820.5" y="686" style="">TutorialDeadline decimal(13,3)</text>
<path d="M812.5 695.5 L1208.5 695.5" style="stroke:#33322E;fill:none;"></path>
<text x="820.5" y="717" style="">FirstCouponDeadline decimal(13,3)</text>
<path d="M812.5 726.5 L1208.5 726.5" style="stroke:#33322E;fill:none;"></path>
<text x="820.5" y="748" style="">UnreadEventsShopping int(10)</text>
<path d="M812.5 757.5 L1208.5 757.5" style="stroke:#33322E;fill:none;"></path>
<text x="820.5" y="779" style="">UnreadEventsCoupon int(10)</text>
<path d="M812.5 788.5 L1208.5 788.5" style="stroke:#33322E;fill:none;"></path>
<text x="820.5" y="810" style="">UnreadEventsSharing int(10)</text>
<path d="M812.5 819.5 L1208.5 819.5" style="stroke:#33322E;fill:none;"></path>
<text x="820.5" y="841" style="">StripeCustomerKey varchar(45)</text>
<path d="M812.5 850.5 L1208.5 850.5" style="stroke:#33322E;fill:none;"></path>
<text x="820.5" y="872" style="">SignInCount int(10)</text>
<path d="M812.5 881.5 L1208.5 881.5" style="stroke:#33322E;fill:none;"></path>
<text x="820.5" y="903" style="">EntryPlatform int(10)</text>
<path d="M812.5 912.5 L1208.5 912.5" style="stroke:#33322E;fill:none;"></path>
<text x="820.5" y="934" style="">PhoneConfirmed tinyint(1)</text>
<path d="M812.5 943.5 L1208.5 943.5" style="stroke:#33322E;fill:none;"></path>
<text x="820.5" y="965" style="">CustomsCode varchar(45)</text>
<path d="M812.5 974.5 L1208.5 974.5" style="stroke:#33322E;fill:none;"></path>
<text x="820.5" y="996" style="">ID int(11)</text>
<path d="M812.5 1005.5 L1208.5 1005.5" style="stroke:#33322E;fill:none;"></path>
<text x="820.5" y="1027" style="">CreatedAt decimal(13,3)</text>
<path d="M812.5 1036.5 L1208.5 1036.5" style="stroke:#33322E;fill:none;"></path>
<text x="820.5" y="1058" style="">UpdatedAt decimal(13,3)</text></svg>
