<svg width="931.5" height="1873" version="1.1" baseProfile="full" xmlns="http://www.w3.org/2000/svg" xmlns:xlink="http://www.w3.org/1999/xlink" xmlns:ev="http://www.w3.org/2001/xml-events" style="font-weight:bold; font-size:12pt; font-family:'Calibri', Helvetica, sans-serif;;stroke-width:3;stroke-linejoin:round;stroke-linecap:round"><text x="378.7" y="1468.5" style="">Parent</text>
<text x="293.5" y="1589" style="">Child</text>
<path d="M370.7 1448.5 L349 1530.5 L349 1597 L349 1597 " style="stroke:#33322E;fill:none;"></path>
<text x="502.3" y="1468.5" style="">Parent</text>
<text x="498.8" y="1542.5" style="">Child</text>
<path d="M494.3 1448.5 L545.3 1530.5 L554.3 1550.5 L554.3 1550.5 " style="stroke:#33322E;fill:none;"></path>
<text x="296.5" y="866.7" style="">Parent</text>
<text x="77.3" y="1115" style="">Child</text>
<path d="M288.5 846.7 L132.8 1087.5 L132.8 1123 L132.8 1123 " style="stroke:#33322E;fill:none;"></path>
<text x="418.6" y="1087.5" style="">Parent</text>
<text x="352.3" y="1161.5" style="">Child</text>
<path d="M410.6 1067.5 L407.8 1087.5 L407.8 1169.5 L407.8 1169.5 " style="stroke:#33322E;fill:none;"></path>
<text x="646.2" y="1087.5" style="">Parent</text>
<text x="586.2" y="1542.5" style="">Child</text>
<path d="M638.2 1067.5 L644 1087.5 L644 1530.5 L644 1530.5 L641.7 1550.5 L641.7 1550.5 " style="stroke:#33322E;fill:none;"></path>
<text x="692.5" y="904.3" style="">Parent</text>
<text x="746" y="1099.5" style="">Child</text>
<path d="M684.5 884.3 L801.5 1087.5 L801.5 1107.5 L801.5 1107.5 " style="stroke:#33322E;fill:none;"></path>
<rect x="15.5" y="1123.5" height="372" width="235" style="stroke:#33322E;fill:#eee8d5;"></rect>
<text x="99.8" y="1145" style="">Address</text>
<path d="M15.5 1154.5 L250.5 1154.5" style="stroke:#33322E;fill:none;"></path>
<text x="23.5" y="1176" style="">Category int(11)</text>
<path d="M15.5 1185.5 L250.5 1185.5" style="stroke:#33322E;fill:none;"></path>
<text x="23.5" y="1207" style="">Status int(11)</text>
<path d="M15.5 1216.5 L250.5 1216.5" style="stroke:#33322E;fill:none;"></path>
<text x="23.5" y="1238" style="">Country int(4)</text>
<path d="M15.5 1247.5 L250.5 1247.5" style="stroke:#33322E;fill:none;"></path>
<text x="23.5" y="1269" style="">UserID int(11)</text>
<path d="M15.5 1278.5 L250.5 1278.5" style="stroke:#33322E;fill:none;"></path>
<text x="23.5" y="1300" style="">Street varchar(45)</text>
<path d="M15.5 1309.5 L250.5 1309.5" style="stroke:#33322E;fill:none;"></path>
<text x="23.5" y="1331" style="">City varchar(45)</text>
<path d="M15.5 1340.5 L250.5 1340.5" style="stroke:#33322E;fill:none;"></path>
<text x="23.5" y="1362" style="">Province varchar(45)</text>
<path d="M15.5 1371.5 L250.5 1371.5" style="stroke:#33322E;fill:none;"></path>
<text x="23.5" y="1393" style="">Zipcode varchar(45)</text>
<path d="M15.5 1402.5 L250.5 1402.5" style="stroke:#33322E;fill:none;"></path>
<text x="23.5" y="1424" style="">ID int(11)</text>
<path d="M15.5 1433.5 L250.5 1433.5" style="stroke:#33322E;fill:none;"></path>
<text x="23.5" y="1455" style="">CreatedAt decimal(13,3)</text>
<path d="M15.5 1464.5 L250.5 1464.5" style="stroke:#33322E;fill:none;"></path>
<text x="23.5" y="1486" style="">UpdatedAt decimal(13,3)</text>
<rect x="290.5" y="1169.5" height="279" width="235" style="stroke:#33322E;fill:#eee8d5;"></rect>
<text x="384.3" y="1191" style="">Board</text>
<path d="M290.5 1200.5 L525.5 1200.5" style="stroke:#33322E;fill:none;"></path>
<text x="298.5" y="1222" style="">UserID int(11)</text>
<path d="M290.5 1231.5 L525.5 1231.5" style="stroke:#33322E;fill:none;"></path>
<text x="298.5" y="1253" style="">Category int(11)</text>
<path d="M290.5 1262.5 L525.5 1262.5" style="stroke:#33322E;fill:none;"></path>
<text x="298.5" y="1284" style="">Status int(11)</text>
<path d="M290.5 1293.5 L525.5 1293.5" style="stroke:#33322E;fill:none;"></path>
<text x="298.5" y="1315" style="">Theme varchar(45)</text>
<path d="M290.5 1324.5 L525.5 1324.5" style="stroke:#33322E;fill:none;"></path>
<text x="298.5" y="1346" style="">Content text</text>
<path d="M290.5 1355.5 L525.5 1355.5" style="stroke:#33322E;fill:none;"></path>
<text x="298.5" y="1377" style="">ID int(11)</text>
<path d="M290.5 1386.5 L525.5 1386.5" style="stroke:#33322E;fill:none;"></path>
<text x="298.5" y="1408" style="">CreatedAt decimal(13,3)</text>
<path d="M290.5 1417.5 L525.5 1417.5" style="stroke:#33322E;fill:none;"></path>
<text x="298.5" y="1439" style="">UpdatedAt decimal(13,3)</text>
<rect x="231.5" y="1597.5" height="217" width="235" style="stroke:#33322E;fill:#eee8d5;"></rect>
<text x="301.5" y="1619" style="">BoardImage</text>
<path d="M231.5 1628.5 L466.5 1628.5" style="stroke:#33322E;fill:none;"></path>
<text x="239.5" y="1650" style="">ImageURL varchar(250)</text>
<path d="M231.5 1659.5 L466.5 1659.5" style="stroke:#33322E;fill:none;"></path>
<text x="239.5" y="1681" style="">BoardID int(10)</text>
<path d="M231.5 1690.5 L466.5 1690.5" style="stroke:#33322E;fill:none;"></path>
<text x="239.5" y="1712" style="">Status int(10)</text>
<path d="M231.5 1721.5 L466.5 1721.5" style="stroke:#33322E;fill:none;"></path>
<text x="239.5" y="1743" style="">ID int(11)</text>
<path d="M231.5 1752.5 L466.5 1752.5" style="stroke:#33322E;fill:none;"></path>
<text x="239.5" y="1774" style="">CreatedAt decimal(13,3)</text>
<path d="M231.5 1783.5 L466.5 1783.5" style="stroke:#33322E;fill:none;"></path>
<text x="239.5" y="1805" style="">UpdatedAt decimal(13,3)</text>
<rect x="506.5" y="1550.5" height="310" width="235" style="stroke:#33322E;fill:#eee8d5;"></rect>
<text x="576.5" y="1572" style="">BoardReply</text>
<path d="M506.5 1581.5 L741.5 1581.5" style="stroke:#33322E;fill:none;"></path>
<text x="514.5" y="1603" style="">BoardID int(11)</text>
<path d="M506.5 1612.5 L741.5 1612.5" style="stroke:#33322E;fill:none;"></path>
<text x="514.5" y="1634" style="">UserID int(11)</text>
<path d="M506.5 1643.5 L741.5 1643.5" style="stroke:#33322E;fill:none;"></path>
<text x="514.5" y="1665" style="">Category int(11)</text>
<path d="M506.5 1674.5 L741.5 1674.5" style="stroke:#33322E;fill:none;"></path>
<text x="514.5" y="1696" style="">Status int(11)</text>
<path d="M506.5 1705.5 L741.5 1705.5" style="stroke:#33322E;fill:none;"></path>
<text x="514.5" y="1727" style="">Theme varchar(45)</text>
<path d="M506.5 1736.5 L741.5 1736.5" style="stroke:#33322E;fill:none;"></path>
<text x="514.5" y="1758" style="">Content text</text>
<path d="M506.5 1767.5 L741.5 1767.5" style="stroke:#33322E;fill:none;"></path>
<text x="514.5" y="1789" style="">ID int(11)</text>
<path d="M506.5 1798.5 L741.5 1798.5" style="stroke:#33322E;fill:none;"></path>
<text x="514.5" y="1820" style="">CreatedAt decimal(13,3)</text>
<path d="M506.5 1829.5 L741.5 1829.5" style="stroke:#33322E;fill:none;"></path>
<text x="514.5" y="1851" style="">UpdatedAt decimal(13,3)</text>
<rect x="684.5" y="1107.5" height="403" width="235" style="stroke:#33322E;fill:#eee8d5;"></rect>
<text x="783" y="1129" style="">Card</text>
<path d="M684.5 1138.5 L919.5 1138.5" style="stroke:#33322E;fill:none;"></path>
<text x="692.5" y="1160" style="">UserID int(11)</text>
<path d="M684.5 1169.5 L919.5 1169.5" style="stroke:#33322E;fill:none;"></path>
<text x="692.5" y="1191" style="">Category int(11)</text>
<path d="M684.5 1200.5 L919.5 1200.5" style="stroke:#33322E;fill:none;"></path>
<text x="692.5" y="1222" style="">BillingKey varchar(45)</text>
<path d="M684.5 1231.5 L919.5 1231.5" style="stroke:#33322E;fill:none;"></path>
<text x="692.5" y="1253" style="">Status int(11)</text>
<path d="M684.5 1262.5 L919.5 1262.5" style="stroke:#33322E;fill:none;"></path>
<text x="692.5" y="1284" style="">LastFour varchar(45)</text>
<path d="M684.5 1293.5 L919.5 1293.5" style="stroke:#33322E;fill:none;"></path>
<text x="692.5" y="1315" style="">CardBrand int(11)</text>
<path d="M684.5 1324.5 L919.5 1324.5" style="stroke:#33322E;fill:none;"></path>
<text x="692.5" y="1346" style="">ExpMonth int(11)</text>
<path d="M684.5 1355.5 L919.5 1355.5" style="stroke:#33322E;fill:none;"></path>
<text x="692.5" y="1377" style="">ExpYear int(11)</text>
<path d="M684.5 1386.5 L919.5 1386.5" style="stroke:#33322E;fill:none;"></path>
<text x="692.5" y="1408" style="">Name varchar(45)</text>
<path d="M684.5 1417.5 L919.5 1417.5" style="stroke:#33322E;fill:none;"></path>
<text x="692.5" y="1439" style="">ID int(11)</text>
<path d="M684.5 1448.5 L919.5 1448.5" style="stroke:#33322E;fill:none;"></path>
<text x="692.5" y="1470" style="">CreatedAt decimal(13,3)</text>
<path d="M684.5 1479.5 L919.5 1479.5" style="stroke:#33322E;fill:none;"></path>
<text x="692.5" y="1501" style="">UpdatedAt decimal(13,3)</text>
<rect x="13.5" y="447.5" height="186" width="235" style="stroke:#33322E;fill:#eee8d5;"></rect>
<text x="45.5" y="469" style="">DeliveryItemOption</text>
<path d="M13.5 478.5 L248.5 478.5" style="stroke:#33322E;fill:none;"></path>
<text x="21.5" y="500" style="">DeliveryItemID int(11)</text>
<path d="M13.5 509.5 L248.5 509.5" style="stroke:#33322E;fill:none;"></path>
<text x="21.5" y="531" style="">ProductOptionID int(11)</text>
<path d="M13.5 540.5 L248.5 540.5" style="stroke:#33322E;fill:none;"></path>
<text x="21.5" y="562" style="">ID int(11)</text>
<path d="M13.5 571.5 L248.5 571.5" style="stroke:#33322E;fill:none;"></path>
<text x="21.5" y="593" style="">CreatedAt decimal(13,3)</text>
<path d="M13.5 602.5 L248.5 602.5" style="stroke:#33322E;fill:none;"></path>
<text x="21.5" y="624" style="">UpdatedAt decimal(13,3)</text>
<rect x="288.5" y="13.5" height="1054" width="396" style="stroke:#33322E;fill:#eee8d5;"></rect>
<text x="467.5" y="35" style="">User</text>
<path d="M288.5 44.5 L684.5 44.5" style="stroke:#33322E;fill:none;"></path>
<text x="296.5" y="66" style="">AuthID varchar(45)</text>
<path d="M288.5 75.5 L684.5 75.5" style="stroke:#33322E;fill:none;"></path>
<text x="296.5" y="97" style="">Name varchar(45)</text>
<path d="M288.5 106.5 L684.5 106.5" style="stroke:#33322E;fill:none;"></path>
<text x="296.5" y="128" style="">Nickname varchar(45)</text>
<path d="M288.5 137.5 L684.5 137.5" style="stroke:#33322E;fill:none;"></path>
<text x="296.5" y="159" style="">Email varchar(45)</text>
<path d="M288.5 168.5 L684.5 168.5" style="stroke:#33322E;fill:none;"></path>
<text x="296.5" y="190" style="">Password varchar(45)</text>
<path d="M288.5 199.5 L684.5 199.5" style="stroke:#33322E;fill:none;"></path>
<text x="296.5" y="221" style="">Phone varchar(45)</text>
<path d="M288.5 230.5 L684.5 230.5" style="stroke:#33322E;fill:none;"></path>
<text x="296.5" y="252" style="">Status int(11)</text>
<path d="M288.5 261.5 L684.5 261.5" style="stroke:#33322E;fill:none;"></path>
<text x="296.5" y="283" style="">HashAccount varchar(45)</text>
<path d="M288.5 292.5 L684.5 292.5" style="stroke:#33322E;fill:none;"></path>
<text x="296.5" y="314" style="">TollBalance int(11)</text>
<path d="M288.5 323.5 L684.5 323.5" style="stroke:#33322E;fill:none;"></path>
<text x="296.5" y="345" style="">Flag varchar(45)</text>
<path d="M288.5 354.5 L684.5 354.5" style="stroke:#33322E;fill:none;"></path>
<text x="296.5" y="376" style="">Profile varchar(1000)</text>
<path d="M288.5 385.5 L684.5 385.5" style="stroke:#33322E;fill:none;"></path>
<text x="296.5" y="407" style="">OneSignalPushToken varchar(300)</text>
<path d="M288.5 416.5 L684.5 416.5" style="stroke:#33322E;fill:none;"></path>
<text x="296.5" y="438" style="">OneSignalUserID varchar(300)</text>
<path d="M288.5 447.5 L684.5 447.5" style="stroke:#33322E;fill:none;"></path>
<text x="296.5" y="469" style="">ShareCode varchar(45)</text>
<path d="M288.5 478.5 L684.5 478.5" style="stroke:#33322E;fill:none;"></path>
<text x="296.5" y="500" style="">ShareReward decimal(5,2)</text>
<path d="M288.5 509.5 L684.5 509.5" style="stroke:#33322E;fill:none;"></path>
<text x="296.5" y="531" style="">UnreadEventsLotteryParticipation int(10)</text>
<path d="M288.5 540.5 L684.5 540.5" style="stroke:#33322E;fill:none;"></path>
<text x="296.5" y="562" style="">UnreadEventsLotteryWinner int(10)</text>
<path d="M288.5 571.5 L684.5 571.5" style="stroke:#33322E;fill:none;"></path>
<text x="296.5" y="593" style="">UnreadEventsLotteryLoser int(10)</text>
<path d="M288.5 602.5 L684.5 602.5" style="stroke:#33322E;fill:none;"></path>
<text x="296.5" y="624" style="">UnreadEventsReview int(10)</text>
<path d="M288.5 633.5 L684.5 633.5" style="stroke:#33322E;fill:none;"></path>
<text x="296.5" y="655" style="">UnreadEventsInquiry int(10)</text>
<path d="M288.5 664.5 L684.5 664.5" style="stroke:#33322E;fill:none;"></path>
<text x="296.5" y="686" style="">TutorialDeadline decimal(13,3)</text>
<path d="M288.5 695.5 L684.5 695.5" style="stroke:#33322E;fill:none;"></path>
<text x="296.5" y="717" style="">FirstCouponDeadline decimal(13,3)</text>
<path d="M288.5 726.5 L684.5 726.5" style="stroke:#33322E;fill:none;"></path>
<text x="296.5" y="748" style="">UnreadEventsShopping int(10)</text>
<path d="M288.5 757.5 L684.5 757.5" style="stroke:#33322E;fill:none;"></path>
<text x="296.5" y="779" style="">UnreadEventsCoupon int(10)</text>
<path d="M288.5 788.5 L684.5 788.5" style="stroke:#33322E;fill:none;"></path>
<text x="296.5" y="810" style="">UnreadEventsSharing int(10)</text>
<path d="M288.5 819.5 L684.5 819.5" style="stroke:#33322E;fill:none;"></path>
<text x="296.5" y="841" style="">StripeCustomerKey varchar(45)</text>
<path d="M288.5 850.5 L684.5 850.5" style="stroke:#33322E;fill:none;"></path>
<text x="296.5" y="872" style="">SignInCount int(10)</text>
<path d="M288.5 881.5 L684.5 881.5" style="stroke:#33322E;fill:none;"></path>
<text x="296.5" y="903" style="">EntryPlatform int(10)</text>
<path d="M288.5 912.5 L684.5 912.5" style="stroke:#33322E;fill:none;"></path>
<text x="296.5" y="934" style="">PhoneConfirmed tinyint(1)</text>
<path d="M288.5 943.5 L684.5 943.5" style="stroke:#33322E;fill:none;"></path>
<text x="296.5" y="965" style="">CustomsCode varchar(45)</text>
<path d="M288.5 974.5 L684.5 974.5" style="stroke:#33322E;fill:none;"></path>
<text x="296.5" y="996" style="">ID int(11)</text>
<path d="M288.5 1005.5 L684.5 1005.5" style="stroke:#33322E;fill:none;"></path>
<text x="296.5" y="1027" style="">CreatedAt decimal(13,3)</text>
<path d="M288.5 1036.5 L684.5 1036.5" style="stroke:#33322E;fill:none;"></path>
<text x="296.5" y="1058" style="">UpdatedAt decimal(13,3)</text></svg>
