<svg width="1750.5" height="2719" version="1.1" baseProfile="full" xmlns="http://www.w3.org/2000/svg" xmlns:xlink="http://www.w3.org/1999/xlink" xmlns:ev="http://www.w3.org/2001/xml-events" style="font-weight:bold; font-size:12pt; font-family:'Calibri', Helvetica, sans-serif;;stroke-width:3;stroke-linejoin:round;stroke-linecap:round"><path d="M390.6 1758.5 L347.3 2150.5 L347.3 2217 L347.3 2217 " style="stroke:#33322E;fill:none;"></path>
<path d="M341.9 2203.7 L347.3 2210.3 L352.6 2203.7 L347.3 2217 Z" style="stroke:#33322E;fill:#33322E;"></path>
<path d="M442.1 1758.5 L543.5 2150.5 L552.5 2170.5 L552.5 2170.5 " style="stroke:#33322E;fill:none;"></path>
<path d="M542.2 2160.5 L549.8 2164.4 L551.9 2156.2 L552.5 2170.5 Z" style="stroke:#33322E;fill:#33322E;"></path>
<path d="M1568.5 2130.5 L1568.5 2150.5 L1371 2243.4 L1371 2243.4 " style="stroke:#33322E;fill:none;"></path>
<path d="M1380.8 2232.9 L1377 2240.6 L1385.3 2242.6 L1371 2243.4 Z" style="stroke:#33322E;fill:#33322E;"></path>
<path d="M1196.5 2465 L1196.5 2500.5 L1198 2520.5 L1198 2520.5 " style="stroke:#33322E;fill:none;"></path>
<path d="M1191.7 2507.6 L1197.5 2513.9 L1202.3 2506.8 L1198 2520.5 Z" style="stroke:#33322E;fill:#33322E;"></path>
<path d="M1050.5 2110.9 L1038.8 2150.5 L1070.8 2186 L1070.8 2186 " style="stroke:#33322E;fill:none;"></path>
<path d="M1057.9 2179.7 L1066.3 2181 L1065.8 2172.5 L1070.8 2186 Z" style="stroke:#33322E;fill:#33322E;"></path>
<path d="M1342.5 2064.3 L1370.8 2150.5 L1411 2195.2 L1411 2195.2 " style="stroke:#33322E;fill:none;"></path>
<path d="M1398.1 2188.8 L1406.5 2190.2 L1406 2181.7 L1411 2195.2 Z" style="stroke:#33322E;fill:#33322E;"></path>
<path d="M1528.5 2465 L1528.5 2500.5 L1322.3 2572.5 L1322.3 2572.5 " style="stroke:#33322E;fill:none;"></path>
<path d="M1333.1 2563.1 L1328.5 2570.3 L1336.6 2573.1 L1322.3 2572.5 Z" style="stroke:#33322E;fill:#33322E;"></path>
<path d="M379.8 782.9 L131 1087.5 L131 1433 L131 1433 " style="stroke:#33322E;fill:none;"></path>
<path d="M125.7 1419.7 L131 1426.3 L136.3 1419.7 L131 1433 Z" style="stroke:#33322E;fill:#33322E;"></path>
<path d="M412.3 1067.5 L406 1087.5 L406 1479.5 L406 1479.5 " style="stroke:#33322E;fill:none;"></path>
<path d="M400.7 1466.2 L406 1472.8 L411.3 1466.2 L406 1479.5 Z" style="stroke:#33322E;fill:#33322E;"></path>
<path d="M639.9 1067.5 L642.3 1087.5 L642.3 2150.5 L642.3 2150.5 L640 2170.5 L640 2170.5 " style="stroke:#33322E;fill:none;"></path>
<path d="M636.2 2156.6 L640.7 2163.9 L646.8 2157.9 L640 2170.5 Z" style="stroke:#33322E;fill:#33322E;"></path>
<path d="M775.8 884.1 L893 1087.5 L893 1417.5 L893 1417.5 " style="stroke:#33322E;fill:none;"></path>
<path d="M887.7 1404.2 L893 1410.8 L898.3 1404.2 L893 1417.5 Z" style="stroke:#33322E;fill:#33322E;"></path>
<path d="M775.8 649.8 L1568.5 1087.5 L1568.5 1107.5 L1568.5 1107.5 " style="stroke:#33322E;fill:none;"></path>
<path d="M1563.2 1094.2 L1568.5 1100.8 L1573.8 1094.2 L1568.5 1107.5 Z" style="stroke:#33322E;fill:#33322E;"></path>
<rect x="13.5" y="1433.5" height="372" width="235" style="stroke:#33322E;fill:#eee8d5;"></rect>
<text x="97.8" y="1455" style="">Address</text>
<path d="M13.5 1464.5 L248.5 1464.5" style="stroke:#33322E;fill:none;"></path>
<text x="21.5" y="1486" style="">Category int(11)</text>
<path d="M13.5 1495.5 L248.5 1495.5" style="stroke:#33322E;fill:none;"></path>
<text x="21.5" y="1517" style="">Status int(11)</text>
<path d="M13.5 1526.5 L248.5 1526.5" style="stroke:#33322E;fill:none;"></path>
<text x="21.5" y="1548" style="">Country int(4)</text>
<path d="M13.5 1557.5 L248.5 1557.5" style="stroke:#33322E;fill:none;"></path>
<text x="21.5" y="1579" style="">Street varchar(45)</text>
<path d="M13.5 1588.5 L248.5 1588.5" style="stroke:#33322E;fill:none;"></path>
<text x="21.5" y="1610" style="">City varchar(45)</text>
<path d="M13.5 1619.5 L248.5 1619.5" style="stroke:#33322E;fill:none;"></path>
<text x="21.5" y="1641" style="">Province varchar(45)</text>
<path d="M13.5 1650.5 L248.5 1650.5" style="stroke:#33322E;fill:none;"></path>
<text x="21.5" y="1672" style="">Zipcode varchar(45)</text>
<path d="M13.5 1681.5 L248.5 1681.5" style="stroke:#33322E;fill:none;"></path>
<text x="21.5" y="1703" style="">UserID int(11)</text>
<path d="M13.5 1712.5 L248.5 1712.5" style="stroke:#33322E;fill:none;"></path>
<text x="21.5" y="1734" style="">ID int(11)</text>
<path d="M13.5 1743.5 L248.5 1743.5" style="stroke:#33322E;fill:none;"></path>
<text x="21.5" y="1765" style="">CreatedAt decimal(13,3)</text>
<path d="M13.5 1774.5 L248.5 1774.5" style="stroke:#33322E;fill:none;"></path>
<text x="21.5" y="1796" style="">UpdatedAt decimal(13,3)</text>
<rect x="288.5" y="1479.5" height="279" width="235" style="stroke:#33322E;fill:#eee8d5;"></rect>
<text x="382.3" y="1501" style="">Board</text>
<path d="M288.5 1510.5 L523.5 1510.5" style="stroke:#33322E;fill:none;"></path>
<text x="296.5" y="1532" style="">Category int(11)</text>
<path d="M288.5 1541.5 L523.5 1541.5" style="stroke:#33322E;fill:none;"></path>
<text x="296.5" y="1563" style="">Status int(11)</text>
<path d="M288.5 1572.5 L523.5 1572.5" style="stroke:#33322E;fill:none;"></path>
<text x="296.5" y="1594" style="">Theme varchar(45)</text>
<path d="M288.5 1603.5 L523.5 1603.5" style="stroke:#33322E;fill:none;"></path>
<text x="296.5" y="1625" style="">Content text</text>
<path d="M288.5 1634.5 L523.5 1634.5" style="stroke:#33322E;fill:none;"></path>
<text x="296.5" y="1656" style="">UserID int(11)</text>
<path d="M288.5 1665.5 L523.5 1665.5" style="stroke:#33322E;fill:none;"></path>
<text x="296.5" y="1687" style="">ID int(11)</text>
<path d="M288.5 1696.5 L523.5 1696.5" style="stroke:#33322E;fill:none;"></path>
<text x="296.5" y="1718" style="">CreatedAt decimal(13,3)</text>
<path d="M288.5 1727.5 L523.5 1727.5" style="stroke:#33322E;fill:none;"></path>
<text x="296.5" y="1749" style="">UpdatedAt decimal(13,3)</text>
<rect x="229.5" y="2217.5" height="217" width="235" style="stroke:#33322E;fill:#eee8d5;"></rect>
<text x="299.5" y="2239" style="">BoardImage</text>
<path d="M229.5 2248.5 L464.5 2248.5" style="stroke:#33322E;fill:none;"></path>
<text x="237.5" y="2270" style="">ImageURL varchar(250)</text>
<path d="M229.5 2279.5 L464.5 2279.5" style="stroke:#33322E;fill:none;"></path>
<text x="237.5" y="2301" style="">Status int(10)</text>
<path d="M229.5 2310.5 L464.5 2310.5" style="stroke:#33322E;fill:none;"></path>
<text x="237.5" y="2332" style="">BoardID int(10)</text>
<path d="M229.5 2341.5 L464.5 2341.5" style="stroke:#33322E;fill:none;"></path>
<text x="237.5" y="2363" style="">ID int(11)</text>
<path d="M229.5 2372.5 L464.5 2372.5" style="stroke:#33322E;fill:none;"></path>
<text x="237.5" y="2394" style="">CreatedAt decimal(13,3)</text>
<path d="M229.5 2403.5 L464.5 2403.5" style="stroke:#33322E;fill:none;"></path>
<text x="237.5" y="2425" style="">UpdatedAt decimal(13,3)</text>
<rect x="504.5" y="2170.5" height="310" width="235" style="stroke:#33322E;fill:#eee8d5;"></rect>
<text x="574.5" y="2192" style="">BoardReply</text>
<path d="M504.5 2201.5 L739.5 2201.5" style="stroke:#33322E;fill:none;"></path>
<text x="512.5" y="2223" style="">Category int(11)</text>
<path d="M504.5 2232.5 L739.5 2232.5" style="stroke:#33322E;fill:none;"></path>
<text x="512.5" y="2254" style="">Status int(11)</text>
<path d="M504.5 2263.5 L739.5 2263.5" style="stroke:#33322E;fill:none;"></path>
<text x="512.5" y="2285" style="">Theme varchar(45)</text>
<path d="M504.5 2294.5 L739.5 2294.5" style="stroke:#33322E;fill:none;"></path>
<text x="512.5" y="2316" style="">Content text</text>
<path d="M504.5 2325.5 L739.5 2325.5" style="stroke:#33322E;fill:none;"></path>
<text x="512.5" y="2347" style="">BoardID int(11)</text>
<path d="M504.5 2356.5 L739.5 2356.5" style="stroke:#33322E;fill:none;"></path>
<text x="512.5" y="2378" style="">UserID int(11)</text>
<path d="M504.5 2387.5 L739.5 2387.5" style="stroke:#33322E;fill:none;"></path>
<text x="512.5" y="2409" style="">ID int(11)</text>
<path d="M504.5 2418.5 L739.5 2418.5" style="stroke:#33322E;fill:none;"></path>
<text x="512.5" y="2440" style="">CreatedAt decimal(13,3)</text>
<path d="M504.5 2449.5 L739.5 2449.5" style="stroke:#33322E;fill:none;"></path>
<text x="512.5" y="2471" style="">UpdatedAt decimal(13,3)</text>
<rect x="775.5" y="1417.5" height="403" width="235" style="stroke:#33322E;fill:#eee8d5;"></rect>
<text x="874" y="1439" style="">Card</text>
<path d="M775.5 1448.5 L1010.5 1448.5" style="stroke:#33322E;fill:none;"></path>
<text x="783.5" y="1470" style="">Category int(11)</text>
<path d="M775.5 1479.5 L1010.5 1479.5" style="stroke:#33322E;fill:none;"></path>
<text x="783.5" y="1501" style="">BillingKey varchar(45)</text>
<path d="M775.5 1510.5 L1010.5 1510.5" style="stroke:#33322E;fill:none;"></path>
<text x="783.5" y="1532" style="">Status int(11)</text>
<path d="M775.5 1541.5 L1010.5 1541.5" style="stroke:#33322E;fill:none;"></path>
<text x="783.5" y="1563" style="">LastFour varchar(45)</text>
<path d="M775.5 1572.5 L1010.5 1572.5" style="stroke:#33322E;fill:none;"></path>
<text x="783.5" y="1594" style="">CardBrand int(11)</text>
<path d="M775.5 1603.5 L1010.5 1603.5" style="stroke:#33322E;fill:none;"></path>
<text x="783.5" y="1625" style="">ExpMonth int(11)</text>
<path d="M775.5 1634.5 L1010.5 1634.5" style="stroke:#33322E;fill:none;"></path>
<text x="783.5" y="1656" style="">ExpYear int(11)</text>
<path d="M775.5 1665.5 L1010.5 1665.5" style="stroke:#33322E;fill:none;"></path>
<text x="783.5" y="1687" style="">Name varchar(45)</text>
<path d="M775.5 1696.5 L1010.5 1696.5" style="stroke:#33322E;fill:none;"></path>
<text x="783.5" y="1718" style="">UserID int(11)</text>
<path d="M775.5 1727.5 L1010.5 1727.5" style="stroke:#33322E;fill:none;"></path>
<text x="783.5" y="1749" style="">ID int(11)</text>
<path d="M775.5 1758.5 L1010.5 1758.5" style="stroke:#33322E;fill:none;"></path>
<text x="783.5" y="1780" style="">CreatedAt decimal(13,3)</text>
<path d="M775.5 1789.5 L1010.5 1789.5" style="stroke:#33322E;fill:none;"></path>
<text x="783.5" y="1811" style="">UpdatedAt decimal(13,3)</text>
<rect x="1399.5" y="1107.5" height="1023" width="339" style="stroke:#33322E;fill:#eee8d5;"></rect>
<text x="1507.3" y="1129" style="">DeliveryGroup</text>
<path d="M1399.5 1138.5 L1738.5 1138.5" style="stroke:#33322E;fill:none;"></path>
<text x="1407.5" y="1160" style="">DeliveryNumber varchar(150)</text>
<path d="M1399.5 1169.5 L1738.5 1169.5" style="stroke:#33322E;fill:none;"></path>
<text x="1407.5" y="1191" style="">DeliveryCompany varchar(150)</text>
<path d="M1399.5 1200.5 L1738.5 1200.5" style="stroke:#33322E;fill:none;"></path>
<text x="1407.5" y="1222" style="">DeliveryHistory text</text>
<path d="M1399.5 1231.5 L1738.5 1231.5" style="stroke:#33322E;fill:none;"></path>
<text x="1407.5" y="1253" style="">DeliveryRequest text</text>
<path d="M1399.5 1262.5 L1738.5 1262.5" style="stroke:#33322E;fill:none;"></path>
<text x="1407.5" y="1284" style="">RecipientName varchar(45)</text>
<path d="M1399.5 1293.5 L1738.5 1293.5" style="stroke:#33322E;fill:none;"></path>
<text x="1407.5" y="1315" style="">RecipientPhone varchar(45)</text>
<path d="M1399.5 1324.5 L1738.5 1324.5" style="stroke:#33322E;fill:none;"></path>
<text x="1407.5" y="1346" style="">Review text</text>
<path d="M1399.5 1355.5 L1738.5 1355.5" style="stroke:#33322E;fill:none;"></path>
<text x="1407.5" y="1377" style="">ShippingStreet varchar(200)</text>
<path d="M1399.5 1386.5 L1738.5 1386.5" style="stroke:#33322E;fill:none;"></path>
<text x="1407.5" y="1408" style="">ShippingCity varchar(45)</text>
<path d="M1399.5 1417.5 L1738.5 1417.5" style="stroke:#33322E;fill:none;"></path>
<text x="1407.5" y="1439" style="">ShippingProvince varchar(45)</text>
<path d="M1399.5 1448.5 L1738.5 1448.5" style="stroke:#33322E;fill:none;"></path>
<text x="1407.5" y="1470" style="">ShippingZipcode varchar(45)</text>
<path d="M1399.5 1479.5 L1738.5 1479.5" style="stroke:#33322E;fill:none;"></path>
<text x="1407.5" y="1501" style="">CancellationReason text</text>
<path d="M1399.5 1510.5 L1738.5 1510.5" style="stroke:#33322E;fill:none;"></path>
<text x="1407.5" y="1532" style="">Rating decimal(5,2)</text>
<path d="M1399.5 1541.5 L1738.5 1541.5" style="stroke:#33322E;fill:none;"></path>
<text x="1407.5" y="1563" style="">DeliveryDate decimal(13,3)</text>
<path d="M1399.5 1572.5 L1738.5 1572.5" style="stroke:#33322E;fill:none;"></path>
<text x="1407.5" y="1594" style="">FulfillmentDate decimal(13,3)</text>
<path d="M1399.5 1603.5 L1738.5 1603.5" style="stroke:#33322E;fill:none;"></path>
<text x="1407.5" y="1625" style="">Status int(10)</text>
<path d="M1399.5 1634.5 L1738.5 1634.5" style="stroke:#33322E;fill:none;"></path>
<text x="1407.5" y="1656" style="">CancellationType int(10)</text>
<path d="M1399.5 1665.5 L1738.5 1665.5" style="stroke:#33322E;fill:none;"></path>
<text x="1407.5" y="1687" style="">TollPenalty int(10)</text>
<path d="M1399.5 1696.5 L1738.5 1696.5" style="stroke:#33322E;fill:none;"></path>
<text x="1407.5" y="1718" style="">DeliveryStatus int(10)</text>
<path d="M1399.5 1727.5 L1738.5 1727.5" style="stroke:#33322E;fill:none;"></path>
<text x="1407.5" y="1749" style="">Category int(10)</text>
<path d="M1399.5 1758.5 L1738.5 1758.5" style="stroke:#33322E;fill:none;"></path>
<text x="1407.5" y="1780" style="">ShippingInfoDeadline decimal(13,3)</text>
<path d="M1399.5 1789.5 L1738.5 1789.5" style="stroke:#33322E;fill:none;"></path>
<text x="1407.5" y="1811" style="">TollDiscount int(10)</text>
<path d="M1399.5 1820.5 L1738.5 1820.5" style="stroke:#33322E;fill:none;"></path>
<text x="1407.5" y="1842" style="">TollPayment int(10)</text>
<path d="M1399.5 1851.5 L1738.5 1851.5" style="stroke:#33322E;fill:none;"></path>
<text x="1407.5" y="1873" style="">PreviousTollAmount int(10)</text>
<path d="M1399.5 1882.5 L1738.5 1882.5" style="stroke:#33322E;fill:none;"></path>
<text x="1407.5" y="1904" style="">DeliveryFee decimal(10,2)</text>
<path d="M1399.5 1913.5 L1738.5 1913.5" style="stroke:#33322E;fill:none;"></path>
<text x="1407.5" y="1935" style="">ShippingCountry int(4)</text>
<path d="M1399.5 1944.5 L1738.5 1944.5" style="stroke:#33322E;fill:none;"></path>
<text x="1407.5" y="1966" style="">LotteryID int(10)</text>
<path d="M1399.5 1975.5 L1738.5 1975.5" style="stroke:#33322E;fill:none;"></path>
<text x="1407.5" y="1997" style="">PaymentID int(10)</text>
<path d="M1399.5 2006.5 L1738.5 2006.5" style="stroke:#33322E;fill:none;"></path>
<text x="1407.5" y="2028" style="">UserID int(10)</text>
<path d="M1399.5 2037.5 L1738.5 2037.5" style="stroke:#33322E;fill:none;"></path>
<text x="1407.5" y="2059" style="">ID int(11)</text>
<path d="M1399.5 2068.5 L1738.5 2068.5" style="stroke:#33322E;fill:none;"></path>
<text x="1407.5" y="2090" style="">CreatedAt decimal(13,3)</text>
<path d="M1399.5 2099.5 L1738.5 2099.5" style="stroke:#33322E;fill:none;"></path>
<text x="1407.5" y="2121" style="">UpdatedAt decimal(13,3)</text>
<rect x="1022.5" y="2186.5" height="279" width="349" style="stroke:#33322E;fill:#eee8d5;"></rect>
<text x="1140" y="2208" style="">DeliveryItem</text>
<path d="M1022.5 2217.5 L1371.5 2217.5" style="stroke:#33322E;fill:none;"></path>
<text x="1030.5" y="2239" style="">Quantity int(10)</text>
<path d="M1022.5 2248.5 L1371.5 2248.5" style="stroke:#33322E;fill:none;"></path>
<text x="1030.5" y="2270" style="">ProductReviewDeadline decimal(13,3)</text>
<path d="M1022.5 2279.5 L1371.5 2279.5" style="stroke:#33322E;fill:none;"></path>
<text x="1030.5" y="2301" style="">LotteryReviewDeadline decimal(13,3)</text>
<path d="M1022.5 2310.5 L1371.5 2310.5" style="stroke:#33322E;fill:none;"></path>
<text x="1030.5" y="2332" style="">ProductID int(10)</text>
<path d="M1022.5 2341.5 L1371.5 2341.5" style="stroke:#33322E;fill:none;"></path>
<text x="1030.5" y="2363" style="">DeliveryGroupID int(10)</text>
<path d="M1022.5 2372.5 L1371.5 2372.5" style="stroke:#33322E;fill:none;"></path>
<text x="1030.5" y="2394" style="">ID int(11)</text>
<path d="M1022.5 2403.5 L1371.5 2403.5" style="stroke:#33322E;fill:none;"></path>
<text x="1030.5" y="2425" style="">CreatedAt decimal(13,3)</text>
<path d="M1022.5 2434.5 L1371.5 2434.5" style="stroke:#33322E;fill:none;"></path>
<text x="1030.5" y="2456" style="">UpdatedAt decimal(13,3)</text>
<rect x="1087.5" y="2520.5" height="186" width="235" style="stroke:#33322E;fill:#eee8d5;"></rect>
<text x="1119.5" y="2542" style="">DeliveryItemOption</text>
<path d="M1087.5 2551.5 L1322.5 2551.5" style="stroke:#33322E;fill:none;"></path>
<text x="1095.5" y="2573" style="">DeliveryItemID int(11)</text>
<path d="M1087.5 2582.5 L1322.5 2582.5" style="stroke:#33322E;fill:none;"></path>
<text x="1095.5" y="2604" style="">ProductOptionID int(11)</text>
<path d="M1087.5 2613.5 L1322.5 2613.5" style="stroke:#33322E;fill:none;"></path>
<text x="1095.5" y="2635" style="">ID int(11)</text>
<path d="M1087.5 2644.5 L1322.5 2644.5" style="stroke:#33322E;fill:none;"></path>
<text x="1095.5" y="2666" style="">CreatedAt decimal(13,3)</text>
<path d="M1087.5 2675.5 L1322.5 2675.5" style="stroke:#33322E;fill:none;"></path>
<text x="1095.5" y="2697" style="">UpdatedAt decimal(13,3)</text>
<rect x="1050.5" y="1123.5" height="992" width="292" style="stroke:#33322E;fill:#eee8d5;"></rect>
<text x="1163.3" y="1145" style="">Product</text>
<path d="M1050.5 1154.5 L1342.5 1154.5" style="stroke:#33322E;fill:none;"></path>
<text x="1058.5" y="1176" style="">Name varchar(45)</text>
<path d="M1050.5 1185.5 L1342.5 1185.5" style="stroke:#33322E;fill:none;"></path>
<text x="1058.5" y="1207" style="">Description text</text>
<path d="M1050.5 1216.5 L1342.5 1216.5" style="stroke:#33322E;fill:none;"></path>
<text x="1058.5" y="1238" style="">Status int(11)</text>
<path d="M1050.5 1247.5 L1342.5 1247.5" style="stroke:#33322E;fill:none;"></path>
<text x="1058.5" y="1269" style="">Position int(11)</text>
<path d="M1050.5 1278.5 L1342.5 1278.5" style="stroke:#33322E;fill:none;"></path>
<text x="1058.5" y="1300" style="">Category int(11)</text>
<path d="M1050.5 1309.5 L1342.5 1309.5" style="stroke:#33322E;fill:none;"></path>
<text x="1058.5" y="1331" style="">DeliveryMethod int(11)</text>
<path d="M1050.5 1340.5 L1342.5 1340.5" style="stroke:#33322E;fill:none;"></path>
<text x="1058.5" y="1362" style="">MaxDiscount decimal(10,2)</text>
<path d="M1050.5 1371.5 L1342.5 1371.5" style="stroke:#33322E;fill:none;"></path>
<text x="1058.5" y="1393" style="">SourcingOrigin text</text>
<path d="M1050.5 1402.5 L1342.5 1402.5" style="stroke:#33322E;fill:none;"></path>
<text x="1058.5" y="1424" style="">Thumbnail text</text>
<path d="M1050.5 1433.5 L1342.5 1433.5" style="stroke:#33322E;fill:none;"></path>
<text x="1058.5" y="1455" style="">ImageURL text</text>
<path d="M1050.5 1464.5 L1342.5 1464.5" style="stroke:#33322E;fill:none;"></path>
<text x="1058.5" y="1486" style="">Stock int(11)</text>
<path d="M1050.5 1495.5 L1342.5 1495.5" style="stroke:#33322E;fill:none;"></path>
<text x="1058.5" y="1517" style="">Merchant varchar(45)</text>
<path d="M1050.5 1526.5 L1342.5 1526.5" style="stroke:#33322E;fill:none;"></path>
<text x="1058.5" y="1548" style="">Domestic int(11)</text>
<path d="M1050.5 1557.5 L1342.5 1557.5" style="stroke:#33322E;fill:none;"></path>
<text x="1058.5" y="1579" style="">ProductionPrice decimal(10,2)</text>
<path d="M1050.5 1588.5 L1342.5 1588.5" style="stroke:#33322E;fill:none;"></path>
<text x="1058.5" y="1610" style="">SellPrice decimal(10,2)</text>
<path d="M1050.5 1619.5 L1342.5 1619.5" style="stroke:#33322E;fill:none;"></path>
<text x="1058.5" y="1641" style="">FakePrice decimal(10,2)</text>
<path d="M1050.5 1650.5 L1342.5 1650.5" style="stroke:#33322E;fill:none;"></path>
<text x="1058.5" y="1672" style="">MaxSalePrice decimal(10,2)</text>
<path d="M1050.5 1681.5 L1342.5 1681.5" style="stroke:#33322E;fill:none;"></path>
<text x="1058.5" y="1703" style="">Color int(10)</text>
<path d="M1050.5 1712.5 L1342.5 1712.5" style="stroke:#33322E;fill:none;"></path>
<text x="1058.5" y="1734" style="">Width decimal(10,2)</text>
<path d="M1050.5 1743.5 L1342.5 1743.5" style="stroke:#33322E;fill:none;"></path>
<text x="1058.5" y="1765" style="">Length decimal(10,2)</text>
<path d="M1050.5 1774.5 L1342.5 1774.5" style="stroke:#33322E;fill:none;"></path>
<text x="1058.5" y="1796" style="">Height decimal(10,2)</text>
<path d="M1050.5 1805.5 L1342.5 1805.5" style="stroke:#33322E;fill:none;"></path>
<text x="1058.5" y="1827" style="">SourcingCountry int(10)</text>
<path d="M1050.5 1836.5 L1342.5 1836.5" style="stroke:#33322E;fill:none;"></path>
<text x="1058.5" y="1858" style="">Handling text</text>
<path d="M1050.5 1867.5 L1342.5 1867.5" style="stroke:#33322E;fill:none;"></path>
<text x="1058.5" y="1889" style="">QualityAssurance text</text>
<path d="M1050.5 1898.5 L1342.5 1898.5" style="stroke:#33322E;fill:none;"></path>
<text x="1058.5" y="1920" style="">ASContact text</text>
<path d="M1050.5 1929.5 L1342.5 1929.5" style="stroke:#33322E;fill:none;"></path>
<text x="1058.5" y="1951" style="">TollPrice int(10)</text>
<path d="M1050.5 1960.5 L1342.5 1960.5" style="stroke:#33322E;fill:none;"></path>
<text x="1058.5" y="1982" style="">ViewCount int(10)</text>
<path d="M1050.5 1991.5 L1342.5 1991.5" style="stroke:#33322E;fill:none;"></path>
<text x="1058.5" y="2013" style="">CouponLimit int(11)</text>
<path d="M1050.5 2022.5 L1342.5 2022.5" style="stroke:#33322E;fill:none;"></path>
<text x="1058.5" y="2044" style="">ID int(11)</text>
<path d="M1050.5 2053.5 L1342.5 2053.5" style="stroke:#33322E;fill:none;"></path>
<text x="1058.5" y="2075" style="">CreatedAt decimal(13,3)</text>
<path d="M1050.5 2084.5 L1342.5 2084.5" style="stroke:#33322E;fill:none;"></path>
<text x="1058.5" y="2106" style="">UpdatedAt decimal(13,3)</text>
<rect x="1411.5" y="2186.5" height="279" width="235" style="stroke:#33322E;fill:#eee8d5;"></rect>
<text x="1467.3" y="2208" style="">ProductOption</text>
<path d="M1411.5 2217.5 L1646.5 2217.5" style="stroke:#33322E;fill:none;"></path>
<text x="1419.5" y="2239" style="">Name varchar(45)</text>
<path d="M1411.5 2248.5 L1646.5 2248.5" style="stroke:#33322E;fill:none;"></path>
<text x="1419.5" y="2270" style="">Description text</text>
<path d="M1411.5 2279.5 L1646.5 2279.5" style="stroke:#33322E;fill:none;"></path>
<text x="1419.5" y="2301" style="">AddedCost decimal(10,2)</text>
<path d="M1411.5 2310.5 L1646.5 2310.5" style="stroke:#33322E;fill:none;"></path>
<text x="1419.5" y="2332" style="">Status int(10)</text>
<path d="M1411.5 2341.5 L1646.5 2341.5" style="stroke:#33322E;fill:none;"></path>
<text x="1419.5" y="2363" style="">ProductID int(11)</text>
<path d="M1411.5 2372.5 L1646.5 2372.5" style="stroke:#33322E;fill:none;"></path>
<text x="1419.5" y="2394" style="">ID int(11)</text>
<path d="M1411.5 2403.5 L1646.5 2403.5" style="stroke:#33322E;fill:none;"></path>
<text x="1419.5" y="2425" style="">CreatedAt decimal(13,3)</text>
<path d="M1411.5 2434.5 L1646.5 2434.5" style="stroke:#33322E;fill:none;"></path>
<text x="1419.5" y="2456" style="">UpdatedAt decimal(13,3)</text>
<rect x="379.5" y="13.5" height="1054" width="396" style="stroke:#33322E;fill:#eee8d5;"></rect>
<text x="558.5" y="35" style="">User</text>
<path d="M379.5 44.5 L775.5 44.5" style="stroke:#33322E;fill:none;"></path>
<text x="387.5" y="66" style="">AuthID varchar(45)</text>
<path d="M379.5 75.5 L775.5 75.5" style="stroke:#33322E;fill:none;"></path>
<text x="387.5" y="97" style="">Name varchar(45)</text>
<path d="M379.5 106.5 L775.5 106.5" style="stroke:#33322E;fill:none;"></path>
<text x="387.5" y="128" style="">Nickname varchar(45)</text>
<path d="M379.5 137.5 L775.5 137.5" style="stroke:#33322E;fill:none;"></path>
<text x="387.5" y="159" style="">Email varchar(45)</text>
<path d="M379.5 168.5 L775.5 168.5" style="stroke:#33322E;fill:none;"></path>
<text x="387.5" y="190" style="">Password varchar(45)</text>
<path d="M379.5 199.5 L775.5 199.5" style="stroke:#33322E;fill:none;"></path>
<text x="387.5" y="221" style="">Phone varchar(45)</text>
<path d="M379.5 230.5 L775.5 230.5" style="stroke:#33322E;fill:none;"></path>
<text x="387.5" y="252" style="">Status int(11)</text>
<path d="M379.5 261.5 L775.5 261.5" style="stroke:#33322E;fill:none;"></path>
<text x="387.5" y="283" style="">HashAccount varchar(45)</text>
<path d="M379.5 292.5 L775.5 292.5" style="stroke:#33322E;fill:none;"></path>
<text x="387.5" y="314" style="">TollBalance int(11)</text>
<path d="M379.5 323.5 L775.5 323.5" style="stroke:#33322E;fill:none;"></path>
<text x="387.5" y="345" style="">Flag varchar(45)</text>
<path d="M379.5 354.5 L775.5 354.5" style="stroke:#33322E;fill:none;"></path>
<text x="387.5" y="376" style="">Profile varchar(1000)</text>
<path d="M379.5 385.5 L775.5 385.5" style="stroke:#33322E;fill:none;"></path>
<text x="387.5" y="407" style="">OneSignalPushToken varchar(300)</text>
<path d="M379.5 416.5 L775.5 416.5" style="stroke:#33322E;fill:none;"></path>
<text x="387.5" y="438" style="">OneSignalUserID varchar(300)</text>
<path d="M379.5 447.5 L775.5 447.5" style="stroke:#33322E;fill:none;"></path>
<text x="387.5" y="469" style="">ShareCode varchar(45)</text>
<path d="M379.5 478.5 L775.5 478.5" style="stroke:#33322E;fill:none;"></path>
<text x="387.5" y="500" style="">ShareReward decimal(5,2)</text>
<path d="M379.5 509.5 L775.5 509.5" style="stroke:#33322E;fill:none;"></path>
<text x="387.5" y="531" style="">UnreadEventsLotteryParticipation int(10)</text>
<path d="M379.5 540.5 L775.5 540.5" style="stroke:#33322E;fill:none;"></path>
<text x="387.5" y="562" style="">UnreadEventsLotteryWinner int(10)</text>
<path d="M379.5 571.5 L775.5 571.5" style="stroke:#33322E;fill:none;"></path>
<text x="387.5" y="593" style="">UnreadEventsLotteryLoser int(10)</text>
<path d="M379.5 602.5 L775.5 602.5" style="stroke:#33322E;fill:none;"></path>
<text x="387.5" y="624" style="">UnreadEventsReview int(10)</text>
<path d="M379.5 633.5 L775.5 633.5" style="stroke:#33322E;fill:none;"></path>
<text x="387.5" y="655" style="">UnreadEventsInquiry int(10)</text>
<path d="M379.5 664.5 L775.5 664.5" style="stroke:#33322E;fill:none;"></path>
<text x="387.5" y="686" style="">TutorialDeadline decimal(13,3)</text>
<path d="M379.5 695.5 L775.5 695.5" style="stroke:#33322E;fill:none;"></path>
<text x="387.5" y="717" style="">FirstCouponDeadline decimal(13,3)</text>
<path d="M379.5 726.5 L775.5 726.5" style="stroke:#33322E;fill:none;"></path>
<text x="387.5" y="748" style="">UnreadEventsShopping int(10)</text>
<path d="M379.5 757.5 L775.5 757.5" style="stroke:#33322E;fill:none;"></path>
<text x="387.5" y="779" style="">UnreadEventsCoupon int(10)</text>
<path d="M379.5 788.5 L775.5 788.5" style="stroke:#33322E;fill:none;"></path>
<text x="387.5" y="810" style="">UnreadEventsSharing int(10)</text>
<path d="M379.5 819.5 L775.5 819.5" style="stroke:#33322E;fill:none;"></path>
<text x="387.5" y="841" style="">StripeCustomerKey varchar(45)</text>
<path d="M379.5 850.5 L775.5 850.5" style="stroke:#33322E;fill:none;"></path>
<text x="387.5" y="872" style="">SignInCount int(10)</text>
<path d="M379.5 881.5 L775.5 881.5" style="stroke:#33322E;fill:none;"></path>
<text x="387.5" y="903" style="">EntryPlatform int(10)</text>
<path d="M379.5 912.5 L775.5 912.5" style="stroke:#33322E;fill:none;"></path>
<text x="387.5" y="934" style="">PhoneConfirmed tinyint(1)</text>
<path d="M379.5 943.5 L775.5 943.5" style="stroke:#33322E;fill:none;"></path>
<text x="387.5" y="965" style="">CustomsCode varchar(45)</text>
<path d="M379.5 974.5 L775.5 974.5" style="stroke:#33322E;fill:none;"></path>
<text x="387.5" y="996" style="">ID int(11)</text>
<path d="M379.5 1005.5 L775.5 1005.5" style="stroke:#33322E;fill:none;"></path>
<text x="387.5" y="1027" style="">CreatedAt decimal(13,3)</text>
<path d="M379.5 1036.5 L775.5 1036.5" style="stroke:#33322E;fill:none;"></path>
<text x="387.5" y="1058" style="">UpdatedAt decimal(13,3)</text></svg>
