<svg width="495.75" height="560" version="1.1" baseProfile="full" xmlns="http://www.w3.org/2000/svg" xmlns:xlink="http://www.w3.org/1999/xlink" xmlns:ev="http://www.w3.org/2001/xml-events" style="font-weight:bold; font-size:11pt; font-family:'Calibri', Helvetica, sans-serif;;stroke-width:3;stroke-linejoin:round;stroke-linecap:round"><path d="M234.3 131.5 L191 164 L191 196.5 L191 196.5 " style="stroke:#33322E;fill:none;"></path>
<path d="M184.5 180.3 L191 188.4 L197.5 180.3 L191 196.5 Z" style="stroke:#33322E;fill:#33322E;"></path>
<path d="M191 234.5 L191 267 L191 299.5 L191 299.5 " style="stroke:#33322E;fill:none;"></path>
<path d="M184.5 283.3 L191 291.4 L197.5 283.3 L191 299.5 Z" style="stroke:#33322E;fill:#33322E;"></path>
<path d="M191 337.5 L191 370 L191 402.5 L191 402.5 " style="stroke:#33322E;fill:none;"></path>
<path d="M184.5 386.3 L191 394.4 L197.5 386.3 L191 402.5 Z" style="stroke:#33322E;fill:#33322E;"></path>
<path d="M191 440.5 L191 473 L266.3 505.5 L266.3 505.5 " style="stroke:#33322E;fill:none;"></path>
<path d="M248.8 505 L258.8 502.3 L253.9 493.1 L266.3 505.5 Z" style="stroke:#33322E;fill:#33322E;"></path>
<path d="M354.2 505.5 L429.5 473 L429.5 164 L429.5 164 L386.2 131.5 L386.2 131.5 " style="stroke:#33322E;fill:none;"></path>
<path d="M403.1 136.1 L392.7 136.4 L395.3 146.5 L386.2 131.5 Z" style="stroke:#33322E;fill:#33322E;"></path>
<rect x="160.5" y="17.5" height="114" width="300" style="stroke:#33322E;fill:#eee8d5;"></rect>
<text x="172.8" y="41.9" style="">User with unfinished tutorial</text>
<path d="M160.5 55.5 L460.5 55.5" style="stroke:#33322E;fill:none;"></path>
<text x="172.5" y="79.9" style="">TutorialDeadline != 0</text>
<path d="M160.5 93.5 L460.5 93.5" style="stroke:#33322E;fill:none;"></path>
<text x="172.5" y="117.9" style="">TutorialDeadline <= now</text>
<rect x="17.5" y="196.5" height="38" width="347" style="stroke:#33322E;fill:#ff906b;"></rect>
<text x="29.5" y="220.9" style="">Set TutorialDeadline to 9999999999</text>
<rect x="84.5" y="299.5" height="38" width="214" style="stroke:#33322E;fill:#ff906b;"></rect>
<text x="96.5" y="323.9" style="">Set UpdatedAt to now</text>
<rect x="129.5" y="402.5" height="38" width="124" style="stroke:#33322E;fill:#f2f8f9;"></rect>
<text x="141.5" y="426.9" style="">Wait 1 min</text>
<rect x="141.5" y="505.5" height="38" width="338" style="stroke:#33322E;fill:#edcdff;"></rect>
<text x="153.5" y="529.9" style="">Get User with unfinished tutorial</text></svg>
