<svg width="708" height="1102" version="1.1" baseProfile="full" xmlns="http://www.w3.org/2000/svg" xmlns:xlink="http://www.w3.org/1999/xlink" xmlns:ev="http://www.w3.org/2001/xml-events" style="font-weight:bold; font-size:11pt; font-family:'Calibri', Helvetica, sans-serif;;stroke-width:3;stroke-linejoin:round;stroke-linecap:round"><path d="M425.4 55.5 L356.8 88 L356.8 120.5 L356.8 120.5 " style="stroke:#33322E;fill:none;"></path>
<path d="M350.3 104.3 L356.8 112.4 L363.3 104.3 L356.8 120.5 Z" style="stroke:#33322E;fill:#33322E;"></path>
<path d="M505.6 55.5 L574.3 88 L574.3 120.5 L574.3 120.5 " style="stroke:#33322E;fill:none;"></path>
<path d="M567.8 104.3 L574.3 112.4 L580.8 104.3 L574.3 120.5 Z" style="stroke:#33322E;fill:#33322E;"></path>
<path d="M574.3 158.5 L574.3 191 L574.3 223.5 L574.3 223.5 " style="stroke:#33322E;fill:none;"></path>
<path d="M567.8 207.3 L574.3 215.4 L580.8 207.3 L574.3 223.5 Z" style="stroke:#33322E;fill:#33322E;"></path>
<path d="M356.8 158.5 L356.8 191 L356.8 223.5 L356.8 223.5 " style="stroke:#33322E;fill:none;"></path>
<path d="M350.3 207.3 L356.8 215.4 L363.3 207.3 L356.8 223.5 Z" style="stroke:#33322E;fill:#33322E;"></path>
<path d="M356.8 261.5 L356.8 294 L356.8 326.5 L356.8 326.5 " style="stroke:#33322E;fill:none;"></path>
<path d="M350.3 310.3 L356.8 318.4 L363.3 310.3 L356.8 326.5 Z" style="stroke:#33322E;fill:#33322E;"></path>
<path d="M356.8 364.5 L356.8 397 L356.8 429.5 L356.8 429.5 " style="stroke:#33322E;fill:none;"></path>
<path d="M350.3 413.3 L356.8 421.4 L363.3 413.3 L356.8 429.5 Z" style="stroke:#33322E;fill:#33322E;"></path>
<path d="M356.8 467.5 L356.8 500 L356.8 532.5 L356.8 532.5 " style="stroke:#33322E;fill:none;"></path>
<path d="M350.3 516.3 L356.8 524.4 L363.3 516.3 L356.8 532.5 Z" style="stroke:#33322E;fill:#33322E;"></path>
<path d="M356.8 570.5 L356.8 603 L356.8 635.5 L356.8 635.5 " style="stroke:#33322E;fill:none;"></path>
<path d="M350.3 619.3 L356.8 627.4 L363.3 619.3 L356.8 635.5 Z" style="stroke:#33322E;fill:#33322E;"></path>
<path d="M288.6 673.5 L172 706 L172 738.5 L172 738.5 " style="stroke:#33322E;fill:none;"></path>
<path d="M165.5 722.3 L172 730.4 L178.5 722.3 L172 738.5 Z" style="stroke:#33322E;fill:#33322E;"></path>
<path d="M424.9 673.5 L541.5 706 L541.5 738.5 L541.5 738.5 " style="stroke:#33322E;fill:none;"></path>
<path d="M535 722.3 L541.5 730.4 L548 722.3 L541.5 738.5 Z" style="stroke:#33322E;fill:#33322E;"></path>
<path d="M172 776.5 L172 809 L172 841.5 L172 841.5 " style="stroke:#33322E;fill:none;"></path>
<path d="M165.5 825.3 L172 833.4 L178.5 825.3 L172 841.5 Z" style="stroke:#33322E;fill:#33322E;"></path>
<path d="M541.5 776.5 L541.5 809 L541.5 841.5 L541.5 841.5 " style="stroke:#33322E;fill:none;"></path>
<path d="M535 825.3 L541.5 833.4 L548 825.3 L541.5 841.5 Z" style="stroke:#33322E;fill:#33322E;"></path>
<path d="M172 879.5 L172 912 L172 944.5 L172 944.5 " style="stroke:#33322E;fill:none;"></path>
<path d="M165.5 928.3 L172 936.4 L178.5 928.3 L172 944.5 Z" style="stroke:#33322E;fill:#33322E;"></path>
<path d="M541.5 879.5 L541.5 912 L541.5 944.5 L541.5 944.5 " style="stroke:#33322E;fill:none;"></path>
<path d="M535 928.3 L541.5 936.4 L548 928.3 L541.5 944.5 Z" style="stroke:#33322E;fill:#33322E;"></path>
<path d="M172 982.5 L172 1015 L288.6 1047.5 L288.6 1047.5 " style="stroke:#33322E;fill:none;"></path>
<path d="M271.2 1049.4 L280.8 1045.3 L274.7 1036.9 L288.6 1047.5 Z" style="stroke:#33322E;fill:#33322E;"></path>
<path d="M541.5 982.5 L541.5 1015 L424.9 1047.5 L424.9 1047.5 " style="stroke:#33322E;fill:none;"></path>
<path d="M438.8 1036.9 L432.7 1045.3 L442.3 1049.4 L424.9 1047.5 Z" style="stroke:#33322E;fill:#33322E;"></path>
<rect x="391.5" y="17.5" height="38" width="148" style="stroke:#33322E;fill:#edcdff;"></rect>
<text x="403.5" y="41.9" style="">Car Accident?</text>
<ellipse cx="356.8" cy="139.5" rx="31" ry="19" style="stroke:#33322E;fill:#ceffcf;"></ellipse>
<text x="337.5" y="144.9" style="">yes*</text>
<ellipse cx="574.3" cy="139.5" rx="26.5" ry="19" style="stroke:#33322E;fill:#ffc5c5;"></ellipse>
<text x="559.5" y="144.9" style="">no*</text>
<ellipse cx="574.3" cy="242.5" rx="26.5" ry="19" style="stroke:#33322E;fill:#ffc5c5;"></ellipse>
<text x="559.5" y="247.9" style="">End</text>
<rect x="230.5" y="223.5" height="38" width="252" style="stroke:#33322E;fill:#eee8d5;"></rect>
<text x="242.5" y="247.9" style="">Notify Insurance Company</text>
<rect x="249.5" y="326.5" height="38" width="214" style="stroke:#33322E;fill:#eee8d5;"></rect>
<text x="261.5" y="350.9" style="">Send Insurance Agent</text>
<rect x="278.5" y="429.5" height="38" width="157" style="stroke:#33322E;fill:#ff906b;"></rect>
<text x="290.5" y="453.9" style="">Take Car Photo</text>
<rect x="278.5" y="532.5" height="38" width="157" style="stroke:#33322E;fill:#eee8d5;"></rect>
<text x="290.5" y="556.9" style="">R&D Neural Net</text>
<rect x="221.5" y="635.5" height="38" width="271" style="stroke:#33322E;fill:#edcdff;"></rect>
<text x="233.5" y="659.9" style="">Successful Classification?</text>
<ellipse cx="172" cy="757.5" rx="26.5" ry="19" style="stroke:#33322E;fill:#ceffcf;"></ellipse>
<text x="157.5" y="762.9" style="">yes</text>
<ellipse cx="541.5" cy="757.5" rx="21.5" ry="19" style="stroke:#33322E;fill:#ffc5c5;"></ellipse>
<text x="532.5" y="762.9" style="">no</text>
<rect x="17.5" y="841.5" height="38" width="309" style="stroke:#33322E;fill:#eee8d5;"></rect>
<text x="29.5" y="865.9" style="">Car-Specific Damage Assessment</text>
<rect x="410.5" y="841.5" height="38" width="262" style="stroke:#33322E;fill:#eee8d5;"></rect>
<text x="422.8" y="865.9" style="">Generic Damage Assessment</text>
<rect x="17.5" y="944.5" height="38" width="309" style="stroke:#33322E;fill:#eee8d5;"></rect>
<text x="29.5" y="968.9" style="">Detailed Assessment & Estimate</text>
<rect x="391.5" y="944.5" height="38" width="300" style="stroke:#33322E;fill:#eee8d5;"></rect>
<text x="403.8" y="968.9" style="">General Assessment & Estimate</text>
<rect x="235.5" y="1047.5" height="38" width="243" style="stroke:#33322E;fill:#ff906b;"></rect>
<text x="247.5" y="1071.9" style="">Send Report To Customer</text></svg>
